# MagicaVoxel @ Ephtracy

# group
g test-9

# material
mtllib test-9.mtl
usemtl palette

# normals
vn -1 0 0
vn 1 0 0
vn 0 0 1
vn 0 0 -1
vn 0 -1 0
vn 0 1 0

# texcoords
vt 0.970703 0.5
vt 0.978516 0.5

# verts
v -16 0 16
v -16 0 15
v -16 32 16
v -16 32 15
v 16 0 16
v 16 0 15
v 16 32 16
v 16 32 15
v -16 0 16
v -16 32 16
v -14 18 16
v -14 19 16
v -13 18 16
v -13 19 16
v -12 25 16
v -12 26 16
v -11 25 16
v -11 26 16
v -9 10 16
v -9 11 16
v -8 10 16
v -8 11 16
v -2 27 16
v -2 28 16
v -2 30 16
v -2 31 16
v -1 26 16
v -1 27 16
v -1 28 16
v -1 29 16
v -1 30 16
v 0 26 16
v 0 27 16
v 0 28 16
v 1 24 16
v 1 27 16
v 1 28 16
v 1 29 16
v 1 31 16
v 1 32 16
v 2 24 16
v 2 25 16
v 2 26 16
v 2 27 16
v 3 26 16
v 3 28 16
v 4 25 16
v 4 26 16
v 4 29 16
v 4 31 16
v 5 31 16
v 5 32 16
v 6 26 16
v 6 28 16
v 8 28 16
v 8 29 16
v 8 30 16
v 9 29 16
v 9 30 16
v 16 0 16
v 16 32 16
v -16 0 15
v -16 32 15
v -14 18 15
v -14 19 15
v -13 18 15
v -13 19 15
v -12 25 15
v -12 26 15
v -11 25 15
v -11 26 15
v -9 10 15
v -9 11 15
v -8 10 15
v -8 11 15
v -2 27 15
v -2 28 15
v -2 30 15
v -2 31 15
v -1 26 15
v -1 27 15
v -1 28 15
v -1 29 15
v -1 30 15
v 0 26 15
v 0 27 15
v 0 28 15
v 1 24 15
v 1 27 15
v 1 28 15
v 1 29 15
v 1 31 15
v 1 32 15
v 2 24 15
v 2 25 15
v 2 26 15
v 2 27 15
v 3 26 15
v 3 28 15
v 4 25 15
v 4 26 15
v 4 29 15
v 4 31 15
v 5 31 15
v 5 32 15
v 6 26 15
v 6 28 15
v 8 28 15
v 8 29 15
v 8 30 15
v 9 29 15
v 9 30 15
v 16 0 15
v 16 32 15
v -16 0 16
v 16 0 16
v -16 0 15
v 16 0 15
v -16 32 16
v 1 32 16
v 5 32 16
v 16 32 16
v -16 32 15
v 1 32 15
v 5 32 15
v 16 32 15

# faces
f 3/2/1 2/2/1 1/2/1
f 4/2/1 2/2/1 3/2/1
f 5/2/2 6/2/2 7/2/2
f 7/2/2 6/2/2 8/2/2
f 11/2/3 10/2/3 9/2/3
f 12/2/3 10/2/3 11/2/3
f 13/2/3 11/2/3 9/2/3
f 13/1/3 12/1/3 11/1/3
f 14/2/3 10/2/3 12/2/3
f 14/1/3 12/1/3 13/1/3
f 15/2/3 14/2/3 13/2/3
f 15/2/3 10/2/3 14/2/3
f 16/2/3 10/2/3 15/2/3
f 17/2/3 15/2/3 13/2/3
f 17/1/3 16/1/3 15/1/3
f 18/2/3 10/2/3 16/2/3
f 18/1/3 16/1/3 17/1/3
f 19/2/3 13/2/3 9/2/3
f 19/2/3 17/2/3 13/2/3
f 19/2/3 18/2/3 17/2/3
f 20/2/3 18/2/3 19/2/3
f 21/2/3 19/2/3 9/2/3
f 21/1/3 20/1/3 19/1/3
f 22/2/3 18/2/3 20/2/3
f 22/1/3 20/1/3 21/1/3
f 23/2/3 10/2/3 18/2/3
f 23/2/3 18/2/3 22/2/3
f 23/2/3 22/2/3 21/2/3
f 24/2/3 10/2/3 23/2/3
f 25/2/3 10/2/3 24/2/3
f 26/2/3 10/2/3 25/2/3
f 27/2/3 23/2/3 21/2/3
f 28/1/3 24/1/3 23/1/3
f 28/2/3 23/2/3 27/2/3
f 29/2/3 25/2/3 24/2/3
f 29/1/3 24/1/3 28/1/3
f 30/2/3 25/2/3 29/2/3
f 31/1/3 26/1/3 25/1/3
f 31/2/3 25/2/3 30/2/3
f 32/2/3 27/2/3 21/2/3
f 32/1/3 28/1/3 27/1/3
f 33/2/3 30/2/3 29/2/3
f 33/1/3 28/1/3 32/1/3
f 33/2/3 29/2/3 28/2/3
f 34/2/3 30/2/3 33/2/3
f 35/2/3 32/2/3 21/2/3
f 35/2/3 33/2/3 32/2/3
f 36/1/3 34/1/3 33/1/3
f 36/2/3 33/2/3 35/2/3
f 37/2/3 30/2/3 34/2/3
f 37/1/3 34/1/3 36/1/3
f 38/1/3 31/1/3 30/1/3
f 38/2/3 30/2/3 37/2/3
f 39/2/3 10/2/3 26/2/3
f 39/1/3 31/1/3 38/1/3
f 39/1/3 26/1/3 31/1/3
f 40/2/3 10/2/3 39/2/3
f 41/2/3 35/2/3 21/2/3
f 41/1/3 36/1/3 35/1/3
f 42/1/3 36/1/3 41/1/3
f 43/1/3 36/1/3 42/1/3
f 44/2/3 37/2/3 36/2/3
f 44/1/3 36/1/3 43/1/3
f 45/1/3 43/1/3 42/1/3
f 45/2/3 44/2/3 43/2/3
f 46/1/3 38/1/3 37/1/3
f 46/2/3 44/2/3 45/2/3
f 46/2/3 37/2/3 44/2/3
f 46/1/3 40/1/3 39/1/3
f 46/1/3 39/1/3 38/1/3
f 47/1/3 45/1/3 42/1/3
f 47/2/3 42/2/3 41/2/3
f 47/1/3 46/1/3 45/1/3
f 48/1/3 46/1/3 47/1/3
f 49/1/3 40/1/3 46/1/3
f 49/1/3 46/1/3 48/1/3
f 50/1/3 40/1/3 49/1/3
f 51/2/3 50/2/3 49/2/3
f 51/1/3 40/1/3 50/1/3
f 52/1/3 40/1/3 51/1/3
f 53/2/3 48/2/3 47/2/3
f 53/1/3 49/1/3 48/1/3
f 54/1/3 49/1/3 53/1/3
f 55/2/3 54/2/3 53/2/3
f 55/1/3 49/1/3 54/1/3
f 56/2/3 52/2/3 51/2/3
f 56/1/3 49/1/3 55/1/3
f 56/2/3 51/2/3 49/2/3
f 57/2/3 52/2/3 56/2/3
f 58/2/3 56/2/3 55/2/3
f 58/1/3 57/1/3 56/1/3
f 59/2/3 52/2/3 57/2/3
f 59/1/3 57/1/3 58/1/3
f 60/2/3 21/2/3 9/2/3
f 60/2/3 41/2/3 21/2/3
f 60/2/3 59/2/3 58/2/3
f 60/2/3 58/2/3 55/2/3
f 60/2/3 53/2/3 47/2/3
f 60/2/3 55/2/3 53/2/3
f 60/2/3 47/2/3 41/2/3
f 61/2/3 52/2/3 59/2/3
f 61/2/3 59/2/3 60/2/3
f 62/2/4 63/2/4 64/2/4
f 64/2/4 63/2/4 65/2/4
f 62/2/4 64/2/4 66/2/4
f 64/1/4 65/1/4 66/1/4
f 65/2/4 63/2/4 67/2/4
f 66/1/4 65/1/4 67/1/4
f 66/2/4 67/2/4 68/2/4
f 67/2/4 63/2/4 68/2/4
f 68/2/4 63/2/4 69/2/4
f 66/2/4 68/2/4 70/2/4
f 68/1/4 69/1/4 70/1/4
f 69/2/4 63/2/4 71/2/4
f 70/1/4 69/1/4 71/1/4
f 62/2/4 66/2/4 72/2/4
f 66/2/4 70/2/4 72/2/4
f 70/2/4 71/2/4 72/2/4
f 72/2/4 71/2/4 73/2/4
f 62/2/4 72/2/4 74/2/4
f 72/1/4 73/1/4 74/1/4
f 73/2/4 71/2/4 75/2/4
f 74/1/4 73/1/4 75/1/4
f 71/2/4 63/2/4 76/2/4
f 75/2/4 71/2/4 76/2/4
f 74/2/4 75/2/4 76/2/4
f 76/2/4 63/2/4 77/2/4
f 77/2/4 63/2/4 78/2/4
f 78/2/4 63/2/4 79/2/4
f 74/2/4 76/2/4 80/2/4
f 76/1/4 77/1/4 81/1/4
f 80/2/4 76/2/4 81/2/4
f 77/2/4 78/2/4 82/2/4
f 81/1/4 77/1/4 82/1/4
f 82/2/4 78/2/4 83/2/4
f 78/1/4 79/1/4 84/1/4
f 83/2/4 78/2/4 84/2/4
f 74/2/4 80/2/4 85/2/4
f 80/1/4 81/1/4 85/1/4
f 82/2/4 83/2/4 86/2/4
f 85/1/4 81/1/4 86/1/4
f 81/2/4 82/2/4 86/2/4
f 86/2/4 83/2/4 87/2/4
f 74/2/4 85/2/4 88/2/4
f 85/2/4 86/2/4 88/2/4
f 86/1/4 87/1/4 89/1/4
f 88/2/4 86/2/4 89/2/4
f 87/2/4 83/2/4 90/2/4
f 89/1/4 87/1/4 90/1/4
f 83/1/4 84/1/4 91/1/4
f 90/2/4 83/2/4 91/2/4
f 79/2/4 63/2/4 92/2/4
f 91/1/4 84/1/4 92/1/4
f 84/1/4 79/1/4 92/1/4
f 92/2/4 63/2/4 93/2/4
f 74/2/4 88/2/4 94/2/4
f 88/1/4 89/1/4 94/1/4
f 94/1/4 89/1/4 95/1/4
f 95/1/4 89/1/4 96/1/4
f 89/2/4 90/2/4 97/2/4
f 96/1/4 89/1/4 97/1/4
f 95/1/4 96/1/4 98/1/4
f 96/2/4 97/2/4 98/2/4
f 90/1/4 91/1/4 99/1/4
f 98/2/4 97/2/4 99/2/4
f 97/2/4 90/2/4 99/2/4
f 92/1/4 93/1/4 99/1/4
f 91/1/4 92/1/4 99/1/4
f 95/1/4 98/1/4 100/1/4
f 94/2/4 95/2/4 100/2/4
f 98/1/4 99/1/4 100/1/4
f 100/1/4 99/1/4 101/1/4
f 99/1/4 93/1/4 102/1/4
f 101/1/4 99/1/4 102/1/4
f 102/1/4 93/1/4 103/1/4
f 102/2/4 103/2/4 104/2/4
f 103/1/4 93/1/4 104/1/4
f 104/1/4 93/1/4 105/1/4
f 100/2/4 101/2/4 106/2/4
f 101/1/4 102/1/4 106/1/4
f 106/1/4 102/1/4 107/1/4
f 106/2/4 107/2/4 108/2/4
f 107/1/4 102/1/4 108/1/4
f 104/2/4 105/2/4 109/2/4
f 108/1/4 102/1/4 109/1/4
f 102/2/4 104/2/4 109/2/4
f 109/2/4 105/2/4 110/2/4
f 108/2/4 109/2/4 111/2/4
f 109/1/4 110/1/4 111/1/4
f 110/2/4 105/2/4 112/2/4
f 111/1/4 110/1/4 112/1/4
f 62/2/4 74/2/4 113/2/4
f 74/2/4 94/2/4 113/2/4
f 111/2/4 112/2/4 113/2/4
f 108/2/4 111/2/4 113/2/4
f 100/2/4 106/2/4 113/2/4
f 106/2/4 108/2/4 113/2/4
f 94/2/4 100/2/4 113/2/4
f 112/2/4 105/2/4 114/2/4
f 113/2/4 112/2/4 114/2/4
f 117/2/5 116/2/5 115/2/5
f 118/2/5 116/2/5 117/2/5
f 119/2/6 120/2/6 123/2/6
f 120/1/6 121/1/6 124/1/6
f 123/2/6 120/2/6 124/2/6
f 121/2/6 122/2/6 125/2/6
f 124/1/6 121/1/6 125/1/6
f 125/2/6 122/2/6 126/2/6
