# MagicaVoxel @ Ephtracy

# group
g test-29

# material
mtllib test-29.mtl
usemtl palette

# normals
vn -1 0 0
vn 1 0 0
vn 0 0 1
vn 0 0 -1
vn 0 -1 0
vn 0 1 0

# texcoords
vt 0.908203 0.5
vt 0.912109 0.5

# verts
v -16 0 16
v -16 0 15
v -16 4 16
v -16 4 15
v -16 14 16
v -16 14 15
v -16 15 16
v -16 15 15
v -16 16 16
v -16 16 15
v -16 17 16
v -16 17 15
v -16 27 16
v -16 27 15
v -16 28 16
v -16 28 15
v -16 30 16
v -16 30 15
v -16 32 16
v -16 32 15
v 16 0 16
v 16 0 15
v 16 5 16
v 16 5 15
v 16 13 16
v 16 13 15
v 16 14 16
v 16 14 15
v 16 18 16
v 16 18 15
v 16 19 16
v 16 19 15
v 16 31 16
v 16 31 15
v 16 32 16
v 16 32 15
v -16 0 16
v -16 4 16
v -16 14 16
v -16 15 16
v -16 16 16
v -16 17 16
v -16 27 16
v -16 28 16
v -16 30 16
v -16 32 16
v -15 0 16
v -15 4 16
v -15 14 16
v -15 15 16
v -15 16 16
v -15 17 16
v -15 27 16
v -15 28 16
v -15 30 16
v -15 31 16
v -14 0 16
v -14 1 16
v -13 0 16
v -13 1 16
v -12 0 16
v -12 1 16
v -11 0 16
v -11 1 16
v -11 31 16
v -11 32 16
v -6 0 16
v -6 1 16
v -5 0 16
v -5 1 16
v -4 0 16
v -4 1 16
v -4 31 16
v -4 32 16
v -3 0 16
v -3 1 16
v -3 4 16
v -3 5 16
v -2 4 16
v -2 5 16
v -1 31 16
v -1 32 16
v 1 31 16
v 1 32 16
v 3 31 16
v 3 32 16
v 4 0 16
v 4 1 16
v 5 0 16
v 5 1 16
v 6 0 16
v 6 1 16
v 7 0 16
v 7 1 16
v 8 0 16
v 8 1 16
v 9 0 16
v 9 1 16
v 11 0 16
v 11 1 16
v 13 31 16
v 13 32 16
v 15 1 16
v 15 5 16
v 15 13 16
v 15 14 16
v 15 18 16
v 15 19 16
v 16 0 16
v 16 5 16
v 16 13 16
v 16 14 16
v 16 18 16
v 16 19 16
v 16 31 16
v 16 32 16
v -16 0 15
v -16 4 15
v -16 14 15
v -16 15 15
v -16 16 15
v -16 17 15
v -16 27 15
v -16 28 15
v -16 30 15
v -16 32 15
v -15 0 15
v -15 4 15
v -15 14 15
v -15 15 15
v -15 16 15
v -15 17 15
v -15 27 15
v -15 28 15
v -15 30 15
v -15 31 15
v -14 0 15
v -14 1 15
v -13 0 15
v -13 1 15
v -12 0 15
v -12 1 15
v -11 0 15
v -11 1 15
v -11 31 15
v -11 32 15
v -6 0 15
v -6 1 15
v -5 0 15
v -5 1 15
v -4 0 15
v -4 1 15
v -4 31 15
v -4 32 15
v -3 0 15
v -3 1 15
v -3 4 15
v -3 5 15
v -2 4 15
v -2 5 15
v -1 31 15
v -1 32 15
v 1 31 15
v 1 32 15
v 3 31 15
v 3 32 15
v 4 0 15
v 4 1 15
v 5 0 15
v 5 1 15
v 6 0 15
v 6 1 15
v 7 0 15
v 7 1 15
v 8 0 15
v 8 1 15
v 9 0 15
v 9 1 15
v 11 0 15
v 11 1 15
v 13 31 15
v 13 32 15
v 15 1 15
v 15 5 15
v 15 13 15
v 15 14 15
v 15 18 15
v 15 19 15
v 16 0 15
v 16 5 15
v 16 13 15
v 16 14 15
v 16 18 15
v 16 19 15
v 16 31 15
v 16 32 15
v -16 0 16
v -15 0 16
v -14 0 16
v -13 0 16
v -12 0 16
v -11 0 16
v -6 0 16
v -5 0 16
v -4 0 16
v -3 0 16
v 4 0 16
v 5 0 16
v 6 0 16
v 7 0 16
v 8 0 16
v 9 0 16
v 11 0 16
v 16 0 16
v -16 0 15
v -15 0 15
v -14 0 15
v -13 0 15
v -12 0 15
v -11 0 15
v -6 0 15
v -5 0 15
v -4 0 15
v -3 0 15
v 4 0 15
v 5 0 15
v 6 0 15
v 7 0 15
v 8 0 15
v 9 0 15
v 11 0 15
v 16 0 15
v -16 32 16
v -11 32 16
v -4 32 16
v -1 32 16
v 1 32 16
v 3 32 16
v 13 32 16
v 16 32 16
v -16 32 15
v -11 32 15
v -4 32 15
v -1 32 15
v 1 32 15
v 3 32 15
v 13 32 15
v 16 32 15

# faces
f 3/2/1 2/2/1 1/2/1
f 4/2/1 2/2/1 3/2/1
f 5/1/1 4/1/1 3/1/1
f 6/1/1 4/1/1 5/1/1
f 7/2/1 6/2/1 5/2/1
f 8/2/1 6/2/1 7/2/1
f 9/1/1 8/1/1 7/1/1
f 10/1/1 8/1/1 9/1/1
f 11/2/1 10/2/1 9/2/1
f 12/2/1 10/2/1 11/2/1
f 13/1/1 12/1/1 11/1/1
f 14/1/1 12/1/1 13/1/1
f 15/2/1 14/2/1 13/2/1
f 16/2/1 14/2/1 15/2/1
f 17/1/1 16/1/1 15/1/1
f 18/1/1 16/1/1 17/1/1
f 19/2/1 18/2/1 17/2/1
f 20/2/1 18/2/1 19/2/1
f 21/2/2 22/2/2 23/2/2
f 23/2/2 22/2/2 24/2/2
f 23/1/2 24/1/2 25/1/2
f 25/1/2 24/1/2 26/1/2
f 25/2/2 26/2/2 27/2/2
f 27/2/2 26/2/2 28/2/2
f 27/1/2 28/1/2 29/1/2
f 29/1/2 28/1/2 30/1/2
f 29/2/2 30/2/2 31/2/2
f 31/2/2 30/2/2 32/2/2
f 31/1/2 32/1/2 33/1/2
f 33/1/2 32/1/2 34/1/2
f 33/2/2 34/2/2 35/2/2
f 35/2/2 34/2/2 36/2/2
f 47/2/3 38/2/3 37/2/3
f 48/1/3 39/1/3 38/1/3
f 48/2/3 38/2/3 47/2/3
f 49/2/3 40/2/3 39/2/3
f 49/1/3 39/1/3 48/1/3
f 50/1/3 41/1/3 40/1/3
f 50/2/3 40/2/3 49/2/3
f 51/2/3 42/2/3 41/2/3
f 51/1/3 41/1/3 50/1/3
f 52/1/3 43/1/3 42/1/3
f 52/2/3 42/2/3 51/2/3
f 53/2/3 44/2/3 43/2/3
f 53/1/3 43/1/3 52/1/3
f 54/1/3 45/1/3 44/1/3
f 54/2/3 44/2/3 53/2/3
f 55/2/3 46/2/3 45/2/3
f 55/1/3 45/1/3 54/1/3
f 56/2/3 46/2/3 55/2/3
f 57/1/3 54/1/3 53/1/3
f 57/1/3 48/1/3 47/1/3
f 57/1/3 56/1/3 55/1/3
f 57/1/3 55/1/3 54/1/3
f 57/1/3 53/1/3 52/1/3
f 57/1/3 52/1/3 51/1/3
f 57/1/3 51/1/3 50/1/3
f 57/1/3 50/1/3 49/1/3
f 57/1/3 49/1/3 48/1/3
f 58/1/3 56/1/3 57/1/3
f 59/2/3 58/2/3 57/2/3
f 60/1/3 56/1/3 58/1/3
f 60/2/3 58/2/3 59/2/3
f 61/1/3 60/1/3 59/1/3
f 62/1/3 56/1/3 60/1/3
f 62/1/3 60/1/3 61/1/3
f 63/2/3 62/2/3 61/2/3
f 64/1/3 56/1/3 62/1/3
f 64/2/3 62/2/3 63/2/3
f 65/2/3 46/2/3 56/2/3
f 65/1/3 56/1/3 64/1/3
f 66/2/3 46/2/3 65/2/3
f 67/1/3 64/1/3 63/1/3
f 67/1/3 65/1/3 64/1/3
f 67/1/3 66/1/3 65/1/3
f 68/1/3 66/1/3 67/1/3
f 69/2/3 68/2/3 67/2/3
f 70/1/3 66/1/3 68/1/3
f 70/2/3 68/2/3 69/2/3
f 71/1/3 70/1/3 69/1/3
f 72/1/3 66/1/3 70/1/3
f 72/1/3 70/1/3 71/1/3
f 73/1/3 66/1/3 72/1/3
f 74/1/3 66/1/3 73/1/3
f 75/2/3 72/2/3 71/2/3
f 76/1/3 73/1/3 72/1/3
f 76/2/3 72/2/3 75/2/3
f 77/1/3 73/1/3 76/1/3
f 78/1/3 73/1/3 77/1/3
f 79/1/3 76/1/3 75/1/3
f 79/1/3 77/1/3 76/1/3
f 79/2/3 78/2/3 77/2/3
f 80/1/3 73/1/3 78/1/3
f 80/2/3 78/2/3 79/2/3
f 81/2/3 74/2/3 73/2/3
f 81/1/3 73/1/3 80/1/3
f 81/1/3 80/1/3 79/1/3
f 82/2/3 74/2/3 81/2/3
f 83/1/3 81/1/3 79/1/3
f 83/1/3 82/1/3 81/1/3
f 84/1/3 82/1/3 83/1/3
f 85/1/3 83/1/3 79/1/3
f 85/2/3 84/2/3 83/2/3
f 86/2/3 84/2/3 85/2/3
f 87/1/3 79/1/3 75/1/3
f 87/1/3 85/1/3 79/1/3
f 87/1/3 86/1/3 85/1/3
f 88/1/3 86/1/3 87/1/3
f 89/2/3 88/2/3 87/2/3
f 90/1/3 86/1/3 88/1/3
f 90/2/3 88/2/3 89/2/3
f 91/1/3 90/1/3 89/1/3
f 92/1/3 86/1/3 90/1/3
f 92/1/3 90/1/3 91/1/3
f 93/2/3 92/2/3 91/2/3
f 94/1/3 86/1/3 92/1/3
f 94/2/3 92/2/3 93/2/3
f 95/1/3 94/1/3 93/1/3
f 96/1/3 86/1/3 94/1/3
f 96/1/3 94/1/3 95/1/3
f 97/2/3 96/2/3 95/2/3
f 98/1/3 86/1/3 96/1/3
f 98/2/3 96/2/3 97/2/3
f 99/1/3 98/1/3 97/1/3
f 100/1/3 86/1/3 98/1/3
f 100/1/3 98/1/3 99/1/3
f 101/1/3 86/1/3 100/1/3
f 102/1/3 86/1/3 101/1/3
f 103/2/3 100/2/3 99/2/3
f 103/1/3 101/1/3 100/1/3
f 104/1/3 101/1/3 103/1/3
f 105/1/3 101/1/3 104/1/3
f 106/1/3 101/1/3 105/1/3
f 107/1/3 101/1/3 106/1/3
f 108/1/3 101/1/3 107/1/3
f 109/2/3 103/2/3 99/2/3
f 109/2/3 104/2/3 103/2/3
f 110/1/3 105/1/3 104/1/3
f 110/2/3 104/2/3 109/2/3
f 111/2/3 106/2/3 105/2/3
f 111/1/3 105/1/3 110/1/3
f 112/1/3 107/1/3 106/1/3
f 112/2/3 106/2/3 111/2/3
f 113/2/3 108/2/3 107/2/3
f 113/1/3 107/1/3 112/1/3
f 114/1/3 101/1/3 108/1/3
f 114/2/3 108/2/3 113/2/3
f 115/2/3 102/2/3 101/2/3
f 115/1/3 101/1/3 114/1/3
f 116/2/3 102/2/3 115/2/3
f 117/2/4 118/2/4 127/2/4
f 118/1/4 119/1/4 128/1/4
f 127/2/4 118/2/4 128/2/4
f 119/2/4 120/2/4 129/2/4
f 128/1/4 119/1/4 129/1/4
f 120/1/4 121/1/4 130/1/4
f 129/2/4 120/2/4 130/2/4
f 121/2/4 122/2/4 131/2/4
f 130/1/4 121/1/4 131/1/4
f 122/1/4 123/1/4 132/1/4
f 131/2/4 122/2/4 132/2/4
f 123/2/4 124/2/4 133/2/4
f 132/1/4 123/1/4 133/1/4
f 124/1/4 125/1/4 134/1/4
f 133/2/4 124/2/4 134/2/4
f 125/2/4 126/2/4 135/2/4
f 134/1/4 125/1/4 135/1/4
f 135/2/4 126/2/4 136/2/4
f 133/1/4 134/1/4 137/1/4
f 127/1/4 128/1/4 137/1/4
f 135/1/4 136/1/4 137/1/4
f 134/1/4 135/1/4 137/1/4
f 132/1/4 133/1/4 137/1/4
f 131/1/4 132/1/4 137/1/4
f 130/1/4 131/1/4 137/1/4
f 129/1/4 130/1/4 137/1/4
f 128/1/4 129/1/4 137/1/4
f 137/1/4 136/1/4 138/1/4
f 137/2/4 138/2/4 139/2/4
f 138/1/4 136/1/4 140/1/4
f 139/2/4 138/2/4 140/2/4
f 139/1/4 140/1/4 141/1/4
f 140/1/4 136/1/4 142/1/4
f 141/1/4 140/1/4 142/1/4
f 141/2/4 142/2/4 143/2/4
f 142/1/4 136/1/4 144/1/4
f 143/2/4 142/2/4 144/2/4
f 136/2/4 126/2/4 145/2/4
f 144/1/4 136/1/4 145/1/4
f 145/2/4 126/2/4 146/2/4
f 143/1/4 144/1/4 147/1/4
f 144/1/4 145/1/4 147/1/4
f 145/1/4 146/1/4 147/1/4
f 147/1/4 146/1/4 148/1/4
f 147/2/4 148/2/4 149/2/4
f 148/1/4 146/1/4 150/1/4
f 149/2/4 148/2/4 150/2/4
f 149/1/4 150/1/4 151/1/4
f 150/1/4 146/1/4 152/1/4
f 151/1/4 150/1/4 152/1/4
f 152/1/4 146/1/4 153/1/4
f 153/1/4 146/1/4 154/1/4
f 151/2/4 152/2/4 155/2/4
f 152/1/4 153/1/4 156/1/4
f 155/2/4 152/2/4 156/2/4
f 156/1/4 153/1/4 157/1/4
f 157/1/4 153/1/4 158/1/4
f 155/1/4 156/1/4 159/1/4
f 156/1/4 157/1/4 159/1/4
f 157/2/4 158/2/4 159/2/4
f 158/1/4 153/1/4 160/1/4
f 159/2/4 158/2/4 160/2/4
f 153/2/4 154/2/4 161/2/4
f 160/1/4 153/1/4 161/1/4
f 159/1/4 160/1/4 161/1/4
f 161/2/4 154/2/4 162/2/4
f 159/1/4 161/1/4 163/1/4
f 161/1/4 162/1/4 163/1/4
f 163/1/4 162/1/4 164/1/4
f 159/1/4 163/1/4 165/1/4
f 163/2/4 164/2/4 165/2/4
f 165/2/4 164/2/4 166/2/4
f 155/1/4 159/1/4 167/1/4
f 159/1/4 165/1/4 167/1/4
f 165/1/4 166/1/4 167/1/4
f 167/1/4 166/1/4 168/1/4
f 167/2/4 168/2/4 169/2/4
f 168/1/4 166/1/4 170/1/4
f 169/2/4 168/2/4 170/2/4
f 169/1/4 170/1/4 171/1/4
f 170/1/4 166/1/4 172/1/4
f 171/1/4 170/1/4 172/1/4
f 171/2/4 172/2/4 173/2/4
f 172/1/4 166/1/4 174/1/4
f 173/2/4 172/2/4 174/2/4
f 173/1/4 174/1/4 175/1/4
f 174/1/4 166/1/4 176/1/4
f 175/1/4 174/1/4 176/1/4
f 175/2/4 176/2/4 177/2/4
f 176/1/4 166/1/4 178/1/4
f 177/2/4 176/2/4 178/2/4
f 177/1/4 178/1/4 179/1/4
f 178/1/4 166/1/4 180/1/4
f 179/1/4 178/1/4 180/1/4
f 180/1/4 166/1/4 181/1/4
f 181/1/4 166/1/4 182/1/4
f 179/2/4 180/2/4 183/2/4
f 180/1/4 181/1/4 183/1/4
f 183/1/4 181/1/4 184/1/4
f 184/1/4 181/1/4 185/1/4
f 185/1/4 181/1/4 186/1/4
f 186/1/4 181/1/4 187/1/4
f 187/1/4 181/1/4 188/1/4
f 179/2/4 183/2/4 189/2/4
f 183/2/4 184/2/4 189/2/4
f 184/1/4 185/1/4 190/1/4
f 189/2/4 184/2/4 190/2/4
f 185/2/4 186/2/4 191/2/4
f 190/1/4 185/1/4 191/1/4
f 186/1/4 187/1/4 192/1/4
f 191/2/4 186/2/4 192/2/4
f 187/2/4 188/2/4 193/2/4
f 192/1/4 187/1/4 193/1/4
f 188/1/4 181/1/4 194/1/4
f 193/2/4 188/2/4 194/2/4
f 181/2/4 182/2/4 195/2/4
f 194/1/4 181/1/4 195/1/4
f 195/2/4 182/2/4 196/2/4
f 215/2/5 198/2/5 197/2/5
f 216/1/5 199/1/5 198/1/5
f 216/2/5 198/2/5 215/2/5
f 217/2/5 200/2/5 199/2/5
f 217/1/5 199/1/5 216/1/5
f 218/1/5 201/1/5 200/1/5
f 218/2/5 200/2/5 217/2/5
f 219/2/5 202/2/5 201/2/5
f 219/1/5 201/1/5 218/1/5
f 220/1/5 203/1/5 202/1/5
f 220/2/5 202/2/5 219/2/5
f 221/2/5 204/2/5 203/2/5
f 221/1/5 203/1/5 220/1/5
f 222/1/5 205/1/5 204/1/5
f 222/2/5 204/2/5 221/2/5
f 223/2/5 206/2/5 205/2/5
f 223/1/5 205/1/5 222/1/5
f 224/1/5 207/1/5 206/1/5
f 224/2/5 206/2/5 223/2/5
f 225/2/5 208/2/5 207/2/5
f 225/1/5 207/1/5 224/1/5
f 226/1/5 209/1/5 208/1/5
f 226/2/5 208/2/5 225/2/5
f 227/2/5 210/2/5 209/2/5
f 227/1/5 209/1/5 226/1/5
f 228/1/5 211/1/5 210/1/5
f 228/2/5 210/2/5 227/2/5
f 229/2/5 212/2/5 211/2/5
f 229/1/5 211/1/5 228/1/5
f 230/1/5 213/1/5 212/1/5
f 230/2/5 212/2/5 229/2/5
f 231/2/5 214/2/5 213/2/5
f 231/1/5 213/1/5 230/1/5
f 232/2/5 214/2/5 231/2/5
f 233/2/6 234/2/6 241/2/6
f 234/1/6 235/1/6 242/1/6
f 241/2/6 234/2/6 242/2/6
f 235/2/6 236/2/6 243/2/6
f 242/1/6 235/1/6 243/1/6
f 236/1/6 237/1/6 244/1/6
f 243/2/6 236/2/6 244/2/6
f 237/2/6 238/2/6 245/2/6
f 244/1/6 237/1/6 245/1/6
f 238/1/6 239/1/6 246/1/6
f 245/2/6 238/2/6 246/2/6
f 239/2/6 240/2/6 247/2/6
f 246/1/6 239/1/6 247/1/6
f 247/2/6 240/2/6 248/2/6
