# MagicaVoxel @ Ephtracy

# group
g test-31

# material
mtllib test-31.mtl
usemtl palette

# normals
vn -1 0 0
vn 1 0 0
vn 0 0 1
vn 0 0 -1
vn 0 -1 0
vn 0 1 0

# texcoords
vt 0.908203 0.5
vt 0.912109 0.5
vt 0.970703 0.5
vt 0.978516 0.5

# verts
v -16 0 16
v -16 0 15
v -16 4 16
v -16 4 15
v -16 14 16
v -16 14 15
v -16 15 16
v -16 15 15
v -16 16 16
v -16 16 15
v -16 17 16
v -16 17 15
v -16 27 16
v -16 27 15
v -16 28 16
v -16 28 15
v -16 30 16
v -16 30 15
v -16 32 16
v -16 32 15
v 16 0 16
v 16 0 15
v 16 5 16
v 16 5 15
v 16 13 16
v 16 13 15
v 16 14 16
v 16 14 15
v 16 18 16
v 16 18 15
v 16 19 16
v 16 19 15
v 16 31 16
v 16 31 15
v 16 32 16
v 16 32 15
v -16 0 16
v -16 4 16
v -16 14 16
v -16 15 16
v -16 16 16
v -16 17 16
v -16 27 16
v -16 28 16
v -16 30 16
v -16 32 16
v -15 0 16
v -15 4 16
v -15 14 16
v -15 15 16
v -15 16 16
v -15 17 16
v -15 27 16
v -15 28 16
v -15 30 16
v -15 31 16
v -14 0 16
v -14 1 16
v -13 0 16
v -13 1 16
v -12 0 16
v -12 1 16
v -11 0 16
v -11 1 16
v -11 31 16
v -11 32 16
v -6 0 16
v -6 1 16
v -5 0 16
v -5 1 16
v -4 0 16
v -4 1 16
v -4 10 16
v -4 11 16
v -4 12 16
v -4 15 16
v -4 18 16
v -4 19 16
v -4 31 16
v -4 32 16
v -3 0 16
v -3 1 16
v -3 4 16
v -3 5 16
v -3 9 16
v -3 10 16
v -3 11 16
v -3 12 16
v -3 15 16
v -3 18 16
v -3 19 16
v -2 4 16
v -2 5 16
v -2 11 16
v -2 12 16
v -2 17 16
v -2 18 16
v -2 19 16
v -2 20 16
v -2 21 16
v -1 17 16
v -1 18 16
v -1 19 16
v -1 31 16
v -1 32 16
v 1 17 16
v 1 18 16
v 1 19 16
v 1 20 16
v 1 21 16
v 1 31 16
v 1 32 16
v 2 11 16
v 2 12 16
v 2 17 16
v 2 18 16
v 2 19 16
v 2 20 16
v 2 21 16
v 3 10 16
v 3 11 16
v 3 12 16
v 3 13 16
v 3 15 16
v 3 19 16
v 3 20 16
v 3 21 16
v 3 31 16
v 3 32 16
v 4 0 16
v 4 1 16
v 4 9 16
v 4 11 16
v 4 12 16
v 4 13 16
v 4 15 16
v 4 19 16
v 5 0 16
v 5 1 16
v 6 0 16
v 6 1 16
v 7 0 16
v 7 1 16
v 8 0 16
v 8 1 16
v 9 0 16
v 9 1 16
v 11 0 16
v 11 1 16
v 13 31 16
v 13 32 16
v 15 1 16
v 15 5 16
v 15 13 16
v 15 14 16
v 15 18 16
v 15 19 16
v 16 0 16
v 16 5 16
v 16 13 16
v 16 14 16
v 16 18 16
v 16 19 16
v 16 31 16
v 16 32 16
v -16 0 15
v -16 4 15
v -16 14 15
v -16 15 15
v -16 16 15
v -16 17 15
v -16 27 15
v -16 28 15
v -16 30 15
v -16 32 15
v -15 0 15
v -15 4 15
v -15 14 15
v -15 15 15
v -15 16 15
v -15 17 15
v -15 27 15
v -15 28 15
v -15 30 15
v -15 31 15
v -14 0 15
v -14 1 15
v -13 0 15
v -13 1 15
v -12 0 15
v -12 1 15
v -11 0 15
v -11 1 15
v -11 31 15
v -11 32 15
v -6 0 15
v -6 1 15
v -5 0 15
v -5 1 15
v -4 0 15
v -4 1 15
v -4 10 15
v -4 11 15
v -4 12 15
v -4 15 15
v -4 18 15
v -4 19 15
v -4 31 15
v -4 32 15
v -3 0 15
v -3 1 15
v -3 4 15
v -3 5 15
v -3 9 15
v -3 10 15
v -3 11 15
v -3 12 15
v -3 15 15
v -3 18 15
v -3 19 15
v -2 4 15
v -2 5 15
v -2 11 15
v -2 12 15
v -2 17 15
v -2 18 15
v -2 19 15
v -2 20 15
v -2 21 15
v -1 17 15
v -1 18 15
v -1 19 15
v -1 31 15
v -1 32 15
v 1 17 15
v 1 18 15
v 1 19 15
v 1 20 15
v 1 21 15
v 1 31 15
v 1 32 15
v 2 11 15
v 2 12 15
v 2 17 15
v 2 18 15
v 2 19 15
v 2 20 15
v 2 21 15
v 3 10 15
v 3 11 15
v 3 12 15
v 3 13 15
v 3 15 15
v 3 19 15
v 3 20 15
v 3 21 15
v 3 31 15
v 3 32 15
v 4 0 15
v 4 1 15
v 4 9 15
v 4 11 15
v 4 12 15
v 4 13 15
v 4 15 15
v 4 19 15
v 5 0 15
v 5 1 15
v 6 0 15
v 6 1 15
v 7 0 15
v 7 1 15
v 8 0 15
v 8 1 15
v 9 0 15
v 9 1 15
v 11 0 15
v 11 1 15
v 13 31 15
v 13 32 15
v 15 1 15
v 15 5 15
v 15 13 15
v 15 14 15
v 15 18 15
v 15 19 15
v 16 0 15
v 16 5 15
v 16 13 15
v 16 14 15
v 16 18 15
v 16 19 15
v 16 31 15
v 16 32 15
v -16 0 16
v -15 0 16
v -14 0 16
v -13 0 16
v -12 0 16
v -11 0 16
v -6 0 16
v -5 0 16
v -4 0 16
v -3 0 16
v 4 0 16
v 5 0 16
v 6 0 16
v 7 0 16
v 8 0 16
v 9 0 16
v 11 0 16
v 16 0 16
v -16 0 15
v -15 0 15
v -14 0 15
v -13 0 15
v -12 0 15
v -11 0 15
v -6 0 15
v -5 0 15
v -4 0 15
v -3 0 15
v 4 0 15
v 5 0 15
v 6 0 15
v 7 0 15
v 8 0 15
v 9 0 15
v 11 0 15
v 16 0 15
v -16 32 16
v -11 32 16
v -4 32 16
v -1 32 16
v 1 32 16
v 3 32 16
v 13 32 16
v 16 32 16
v -16 32 15
v -11 32 15
v -4 32 15
v -1 32 15
v 1 32 15
v 3 32 15
v 13 32 15
v 16 32 15

# faces
f 3/2/1 2/2/1 1/2/1
f 4/2/1 2/2/1 3/2/1
f 5/1/1 4/1/1 3/1/1
f 6/1/1 4/1/1 5/1/1
f 7/2/1 6/2/1 5/2/1
f 8/2/1 6/2/1 7/2/1
f 9/1/1 8/1/1 7/1/1
f 10/1/1 8/1/1 9/1/1
f 11/2/1 10/2/1 9/2/1
f 12/2/1 10/2/1 11/2/1
f 13/1/1 12/1/1 11/1/1
f 14/1/1 12/1/1 13/1/1
f 15/2/1 14/2/1 13/2/1
f 16/2/1 14/2/1 15/2/1
f 17/1/1 16/1/1 15/1/1
f 18/1/1 16/1/1 17/1/1
f 19/2/1 18/2/1 17/2/1
f 20/2/1 18/2/1 19/2/1
f 21/2/2 22/2/2 23/2/2
f 23/2/2 22/2/2 24/2/2
f 23/1/2 24/1/2 25/1/2
f 25/1/2 24/1/2 26/1/2
f 25/2/2 26/2/2 27/2/2
f 27/2/2 26/2/2 28/2/2
f 27/1/2 28/1/2 29/1/2
f 29/1/2 28/1/2 30/1/2
f 29/2/2 30/2/2 31/2/2
f 31/2/2 30/2/2 32/2/2
f 31/1/2 32/1/2 33/1/2
f 33/1/2 32/1/2 34/1/2
f 33/2/2 34/2/2 35/2/2
f 35/2/2 34/2/2 36/2/2
f 47/2/3 38/2/3 37/2/3
f 48/1/3 39/1/3 38/1/3
f 48/2/3 38/2/3 47/2/3
f 49/2/3 40/2/3 39/2/3
f 49/1/3 39/1/3 48/1/3
f 50/1/3 41/1/3 40/1/3
f 50/2/3 40/2/3 49/2/3
f 51/2/3 42/2/3 41/2/3
f 51/1/3 41/1/3 50/1/3
f 52/1/3 43/1/3 42/1/3
f 52/2/3 42/2/3 51/2/3
f 53/2/3 44/2/3 43/2/3
f 53/1/3 43/1/3 52/1/3
f 54/1/3 45/1/3 44/1/3
f 54/2/3 44/2/3 53/2/3
f 55/2/3 46/2/3 45/2/3
f 55/1/3 45/1/3 54/1/3
f 56/2/3 46/2/3 55/2/3
f 57/1/3 54/1/3 53/1/3
f 57/1/3 48/1/3 47/1/3
f 57/1/3 56/1/3 55/1/3
f 57/1/3 55/1/3 54/1/3
f 57/1/3 53/1/3 52/1/3
f 57/1/3 52/1/3 51/1/3
f 57/1/3 51/1/3 50/1/3
f 57/1/3 50/1/3 49/1/3
f 57/1/3 49/1/3 48/1/3
f 58/1/3 56/1/3 57/1/3
f 59/2/3 58/2/3 57/2/3
f 60/1/3 56/1/3 58/1/3
f 60/2/3 58/2/3 59/2/3
f 61/1/3 60/1/3 59/1/3
f 62/1/3 56/1/3 60/1/3
f 62/1/3 60/1/3 61/1/3
f 63/2/3 62/2/3 61/2/3
f 64/1/3 56/1/3 62/1/3
f 64/2/3 62/2/3 63/2/3
f 65/2/3 46/2/3 56/2/3
f 65/1/3 56/1/3 64/1/3
f 66/2/3 46/2/3 65/2/3
f 67/1/3 64/1/3 63/1/3
f 67/1/3 65/1/3 64/1/3
f 67/1/3 66/1/3 65/1/3
f 68/1/3 66/1/3 67/1/3
f 69/2/3 68/2/3 67/2/3
f 70/1/3 66/1/3 68/1/3
f 70/2/3 68/2/3 69/2/3
f 71/1/3 70/1/3 69/1/3
f 72/1/3 66/1/3 70/1/3
f 72/1/3 70/1/3 71/1/3
f 73/1/3 66/1/3 72/1/3
f 74/1/3 66/1/3 73/1/3
f 75/1/3 66/1/3 74/1/3
f 76/1/3 66/1/3 75/1/3
f 77/1/3 66/1/3 76/1/3
f 78/1/3 66/1/3 77/1/3
f 79/1/3 66/1/3 78/1/3
f 80/1/3 66/1/3 79/1/3
f 81/2/3 72/2/3 71/2/3
f 82/1/3 73/1/3 72/1/3
f 82/2/3 72/2/3 81/2/3
f 83/1/3 73/1/3 82/1/3
f 84/1/3 73/1/3 83/1/3
f 85/1/3 73/1/3 84/1/3
f 86/2/3 74/2/3 73/2/3
f 86/1/3 73/1/3 85/1/3
f 87/1/3 75/1/3 74/1/3
f 87/2/3 74/2/3 86/2/3
f 88/2/3 76/2/3 75/2/3
f 88/1/3 75/1/3 87/1/3
f 89/1/3 77/1/3 76/1/3
f 89/2/3 76/2/3 88/2/3
f 90/2/3 78/2/3 77/2/3
f 90/1/3 77/1/3 89/1/3
f 91/1/3 79/1/3 78/1/3
f 91/2/3 78/2/3 90/2/3
f 92/1/3 82/1/3 81/1/3
f 92/1/3 83/1/3 82/1/3
f 92/2/3 84/2/3 83/2/3
f 93/1/3 85/1/3 84/1/3
f 93/2/3 84/2/3 92/2/3
f 94/1/3 87/1/3 86/1/3
f 94/1/3 88/1/3 87/1/3
f 94/1/3 89/1/3 88/1/3
f 94/1/3 91/1/3 90/1/3
f 94/1/3 90/1/3 89/1/3
f 95/1/3 91/1/3 94/1/3
f 96/1/3 91/1/3 95/1/3
f 97/1/3 91/1/3 96/1/3
f 98/1/3 79/1/3 91/1/3
f 98/1/3 91/1/3 97/1/3
f 99/1/3 79/1/3 98/1/3
f 100/1/3 79/1/3 99/1/3
f 101/4/3 97/4/3 96/4/3
f 101/3/3 96/3/3 95/3/3
f 102/2/3 98/2/3 97/2/3
f 102/4/3 97/4/3 101/4/3
f 103/1/3 99/1/3 98/1/3
f 103/2/3 98/2/3 102/2/3
f 104/1/3 79/1/3 100/1/3
f 104/2/3 80/2/3 79/2/3
f 105/2/3 80/2/3 104/2/3
f 106/3/3 101/3/3 95/3/3
f 106/3/3 102/3/3 101/3/3
f 107/4/3 103/4/3 102/4/3
f 107/3/3 102/3/3 106/3/3
f 108/1/3 99/1/3 103/1/3
f 108/4/3 103/4/3 107/4/3
f 109/2/3 100/2/3 99/2/3
f 109/1/3 99/1/3 108/1/3
f 110/1/3 105/1/3 104/1/3
f 110/2/3 100/2/3 109/2/3
f 110/1/3 104/1/3 100/1/3
f 111/1/3 105/1/3 110/1/3
f 112/1/3 105/1/3 111/1/3
f 113/1/3 94/1/3 86/1/3
f 113/2/3 95/2/3 94/2/3
f 114/3/3 106/3/3 95/3/3
f 114/2/3 95/2/3 113/2/3
f 115/4/3 107/4/3 106/4/3
f 115/3/3 106/3/3 114/3/3
f 116/2/3 108/2/3 107/2/3
f 116/4/3 107/4/3 115/4/3
f 117/1/3 109/1/3 108/1/3
f 117/2/3 108/2/3 116/2/3
f 117/1/3 110/1/3 109/1/3
f 117/1/3 111/1/3 110/1/3
f 118/1/3 111/1/3 117/1/3
f 119/1/3 111/1/3 118/1/3
f 120/2/3 86/2/3 85/2/3
f 120/1/3 114/1/3 113/1/3
f 120/1/3 113/1/3 86/1/3
f 120/1/3 118/1/3 117/1/3
f 120/1/3 117/1/3 116/1/3
f 120/1/3 116/1/3 115/1/3
f 120/1/3 115/1/3 114/1/3
f 121/1/3 118/1/3 120/1/3
f 122/1/3 118/1/3 121/1/3
f 123/1/3 118/1/3 122/1/3
f 124/1/3 118/1/3 123/1/3
f 125/1/3 118/1/3 124/1/3
f 126/2/3 119/2/3 118/2/3
f 126/1/3 118/1/3 125/1/3
f 127/1/3 111/1/3 119/1/3
f 127/2/3 119/2/3 126/2/3
f 128/2/3 112/2/3 111/2/3
f 128/1/3 111/1/3 127/1/3
f 129/2/3 112/2/3 128/2/3
f 130/1/3 92/1/3 81/1/3
f 130/1/3 93/1/3 92/1/3
f 131/1/3 93/1/3 130/1/3
f 132/1/3 85/1/3 93/1/3
f 132/1/3 93/1/3 131/1/3
f 132/2/3 120/2/3 85/2/3
f 132/2/3 121/2/3 120/2/3
f 133/1/3 122/1/3 121/1/3
f 133/2/3 121/2/3 132/2/3
f 134/2/3 123/2/3 122/2/3
f 134/1/3 122/1/3 133/1/3
f 135/1/3 124/1/3 123/1/3
f 135/2/3 123/2/3 134/2/3
f 136/2/3 125/2/3 124/2/3
f 136/1/3 124/1/3 135/1/3
f 137/1/3 126/1/3 125/1/3
f 137/2/3 125/2/3 136/2/3
f 137/1/3 129/1/3 128/1/3
f 137/1/3 127/1/3 126/1/3
f 137/1/3 128/1/3 127/1/3
f 138/2/3 131/2/3 130/2/3
f 139/1/3 136/1/3 135/1/3
f 139/2/3 131/2/3 138/2/3
f 139/1/3 134/1/3 133/1/3
f 139/1/3 137/1/3 136/1/3
f 139/1/3 132/1/3 131/1/3
f 139/1/3 135/1/3 134/1/3
f 139/1/3 133/1/3 132/1/3
f 140/1/3 139/1/3 138/1/3
f 141/1/3 137/1/3 139/1/3
f 141/1/3 139/1/3 140/1/3
f 142/2/3 141/2/3 140/2/3
f 143/1/3 137/1/3 141/1/3
f 143/2/3 141/2/3 142/2/3
f 144/1/3 143/1/3 142/1/3
f 145/1/3 137/1/3 143/1/3
f 145/1/3 143/1/3 144/1/3
f 146/2/3 145/2/3 144/2/3
f 147/1/3 137/1/3 145/1/3
f 147/2/3 145/2/3 146/2/3
f 148/1/3 147/1/3 146/1/3
f 149/1/3 137/1/3 147/1/3
f 149/1/3 147/1/3 148/1/3
f 150/1/3 129/1/3 137/1/3
f 150/1/3 137/1/3 149/1/3
f 151/1/3 129/1/3 150/1/3
f 152/2/3 149/2/3 148/2/3
f 152/1/3 150/1/3 149/1/3
f 153/1/3 150/1/3 152/1/3
f 154/1/3 150/1/3 153/1/3
f 155/1/3 150/1/3 154/1/3
f 156/1/3 150/1/3 155/1/3
f 157/1/3 150/1/3 156/1/3
f 158/2/3 152/2/3 148/2/3
f 158/2/3 153/2/3 152/2/3
f 159/1/3 154/1/3 153/1/3
f 159/2/3 153/2/3 158/2/3
f 160/2/3 155/2/3 154/2/3
f 160/1/3 154/1/3 159/1/3
f 161/1/3 156/1/3 155/1/3
f 161/2/3 155/2/3 160/2/3
f 162/2/3 157/2/3 156/2/3
f 162/1/3 156/1/3 161/1/3
f 163/1/3 150/1/3 157/1/3
f 163/2/3 157/2/3 162/2/3
f 164/2/3 151/2/3 150/2/3
f 164/1/3 150/1/3 163/1/3
f 165/2/3 151/2/3 164/2/3
f 166/2/4 167/2/4 176/2/4
f 167/1/4 168/1/4 177/1/4
f 176/2/4 167/2/4 177/2/4
f 168/2/4 169/2/4 178/2/4
f 177/1/4 168/1/4 178/1/4
f 169/1/4 170/1/4 179/1/4
f 178/2/4 169/2/4 179/2/4
f 170/2/4 171/2/4 180/2/4
f 179/1/4 170/1/4 180/1/4
f 171/1/4 172/1/4 181/1/4
f 180/2/4 171/2/4 181/2/4
f 172/2/4 173/2/4 182/2/4
f 181/1/4 172/1/4 182/1/4
f 173/1/4 174/1/4 183/1/4
f 182/2/4 173/2/4 183/2/4
f 174/2/4 175/2/4 184/2/4
f 183/1/4 174/1/4 184/1/4
f 184/2/4 175/2/4 185/2/4
f 182/1/4 183/1/4 186/1/4
f 176/1/4 177/1/4 186/1/4
f 184/1/4 185/1/4 186/1/4
f 183/1/4 184/1/4 186/1/4
f 181/1/4 182/1/4 186/1/4
f 180/1/4 181/1/4 186/1/4
f 179/1/4 180/1/4 186/1/4
f 178/1/4 179/1/4 186/1/4
f 177/1/4 178/1/4 186/1/4
f 186/1/4 185/1/4 187/1/4
f 186/2/4 187/2/4 188/2/4
f 187/1/4 185/1/4 189/1/4
f 188/2/4 187/2/4 189/2/4
f 188/1/4 189/1/4 190/1/4
f 189/1/4 185/1/4 191/1/4
f 190/1/4 189/1/4 191/1/4
f 190/2/4 191/2/4 192/2/4
f 191/1/4 185/1/4 193/1/4
f 192/2/4 191/2/4 193/2/4
f 185/2/4 175/2/4 194/2/4
f 193/1/4 185/1/4 194/1/4
f 194/2/4 175/2/4 195/2/4
f 192/1/4 193/1/4 196/1/4
f 193/1/4 194/1/4 196/1/4
f 194/1/4 195/1/4 196/1/4
f 196/1/4 195/1/4 197/1/4
f 196/2/4 197/2/4 198/2/4
f 197/1/4 195/1/4 199/1/4
f 198/2/4 197/2/4 199/2/4
f 198/1/4 199/1/4 200/1/4
f 199/1/4 195/1/4 201/1/4
f 200/1/4 199/1/4 201/1/4
f 201/1/4 195/1/4 202/1/4
f 202/1/4 195/1/4 203/1/4
f 203/1/4 195/1/4 204/1/4
f 204/1/4 195/1/4 205/1/4
f 205/1/4 195/1/4 206/1/4
f 206/1/4 195/1/4 207/1/4
f 207/1/4 195/1/4 208/1/4
f 208/1/4 195/1/4 209/1/4
f 200/2/4 201/2/4 210/2/4
f 201/1/4 202/1/4 211/1/4
f 210/2/4 201/2/4 211/2/4
f 211/1/4 202/1/4 212/1/4
f 212/1/4 202/1/4 213/1/4
f 213/1/4 202/1/4 214/1/4
f 202/2/4 203/2/4 215/2/4
f 214/1/4 202/1/4 215/1/4
f 203/1/4 204/1/4 216/1/4
f 215/2/4 203/2/4 216/2/4
f 204/2/4 205/2/4 217/2/4
f 216/1/4 204/1/4 217/1/4
f 205/1/4 206/1/4 218/1/4
f 217/2/4 205/2/4 218/2/4
f 206/2/4 207/2/4 219/2/4
f 218/1/4 206/1/4 219/1/4
f 207/1/4 208/1/4 220/1/4
f 219/2/4 207/2/4 220/2/4
f 210/1/4 211/1/4 221/1/4
f 211/1/4 212/1/4 221/1/4
f 212/2/4 213/2/4 221/2/4
f 213/1/4 214/1/4 222/1/4
f 221/2/4 213/2/4 222/2/4
f 215/1/4 216/1/4 223/1/4
f 216/1/4 217/1/4 223/1/4
f 217/1/4 218/1/4 223/1/4
f 219/1/4 220/1/4 223/1/4
f 218/1/4 219/1/4 223/1/4
f 223/1/4 220/1/4 224/1/4
f 224/1/4 220/1/4 225/1/4
f 225/1/4 220/1/4 226/1/4
f 220/1/4 208/1/4 227/1/4
f 226/1/4 220/1/4 227/1/4
f 227/1/4 208/1/4 228/1/4
f 228/1/4 208/1/4 229/1/4
f 225/4/4 226/4/4 230/4/4
f 224/3/4 225/3/4 230/3/4
f 226/2/4 227/2/4 231/2/4
f 230/4/4 226/4/4 231/4/4
f 227/1/4 228/1/4 232/1/4
f 231/2/4 227/2/4 232/2/4
f 229/1/4 208/1/4 233/1/4
f 208/2/4 209/2/4 233/2/4
f 233/2/4 209/2/4 234/2/4
f 224/3/4 230/3/4 235/3/4
f 230/3/4 231/3/4 235/3/4
f 231/4/4 232/4/4 236/4/4
f 235/3/4 231/3/4 236/3/4
f 232/1/4 228/1/4 237/1/4
f 236/4/4 232/4/4 237/4/4
f 228/2/4 229/2/4 238/2/4
f 237/1/4 228/1/4 238/1/4
f 233/1/4 234/1/4 239/1/4
f 238/2/4 229/2/4 239/2/4
f 229/1/4 233/1/4 239/1/4
f 239/1/4 234/1/4 240/1/4
f 240/1/4 234/1/4 241/1/4
f 215/1/4 223/1/4 242/1/4
f 223/2/4 224/2/4 242/2/4
f 224/3/4 235/3/4 243/3/4
f 242/2/4 224/2/4 243/2/4
f 235/4/4 236/4/4 244/4/4
f 243/3/4 235/3/4 244/3/4
f 236/2/4 237/2/4 245/2/4
f 244/4/4 236/4/4 245/4/4
f 237/1/4 238/1/4 246/1/4
f 245/2/4 237/2/4 246/2/4
f 238/1/4 239/1/4 246/1/4
f 239/1/4 240/1/4 246/1/4
f 246/1/4 240/1/4 247/1/4
f 247/1/4 240/1/4 248/1/4
f 214/2/4 215/2/4 249/2/4
f 242/1/4 243/1/4 249/1/4
f 215/1/4 242/1/4 249/1/4
f 246/1/4 247/1/4 249/1/4
f 245/1/4 246/1/4 249/1/4
f 244/1/4 245/1/4 249/1/4
f 243/1/4 244/1/4 249/1/4
f 249/1/4 247/1/4 250/1/4
f 250/1/4 247/1/4 251/1/4
f 251/1/4 247/1/4 252/1/4
f 252/1/4 247/1/4 253/1/4
f 253/1/4 247/1/4 254/1/4
f 247/2/4 248/2/4 255/2/4
f 254/1/4 247/1/4 255/1/4
f 248/1/4 240/1/4 256/1/4
f 255/2/4 248/2/4 256/2/4
f 240/2/4 241/2/4 257/2/4
f 256/1/4 240/1/4 257/1/4
f 257/2/4 241/2/4 258/2/4
f 210/1/4 221/1/4 259/1/4
f 221/1/4 222/1/4 259/1/4
f 259/1/4 222/1/4 260/1/4
f 222/1/4 214/1/4 261/1/4
f 260/1/4 222/1/4 261/1/4
f 214/2/4 249/2/4 261/2/4
f 249/2/4 250/2/4 261/2/4
f 250/1/4 251/1/4 262/1/4
f 261/2/4 250/2/4 262/2/4
f 251/2/4 252/2/4 263/2/4
f 262/1/4 251/1/4 263/1/4
f 252/1/4 253/1/4 264/1/4
f 263/2/4 252/2/4 264/2/4
f 253/2/4 254/2/4 265/2/4
f 264/1/4 253/1/4 265/1/4
f 254/1/4 255/1/4 266/1/4
f 265/2/4 254/2/4 266/2/4
f 257/1/4 258/1/4 266/1/4
f 255/1/4 256/1/4 266/1/4
f 256/1/4 257/1/4 266/1/4
f 259/2/4 260/2/4 267/2/4
f 264/1/4 265/1/4 268/1/4
f 267/2/4 260/2/4 268/2/4
f 262/1/4 263/1/4 268/1/4
f 265/1/4 266/1/4 268/1/4
f 260/1/4 261/1/4 268/1/4
f 263/1/4 264/1/4 268/1/4
f 261/1/4 262/1/4 268/1/4
f 267/1/4 268/1/4 269/1/4
f 268/1/4 266/1/4 270/1/4
f 269/1/4 268/1/4 270/1/4
f 269/2/4 270/2/4 271/2/4
f 270/1/4 266/1/4 272/1/4
f 271/2/4 270/2/4 272/2/4
f 271/1/4 272/1/4 273/1/4
f 272/1/4 266/1/4 274/1/4
f 273/1/4 272/1/4 274/1/4
f 273/2/4 274/2/4 275/2/4
f 274/1/4 266/1/4 276/1/4
f 275/2/4 274/2/4 276/2/4
f 275/1/4 276/1/4 277/1/4
f 276/1/4 266/1/4 278/1/4
f 277/1/4 276/1/4 278/1/4
f 266/1/4 258/1/4 279/1/4
f 278/1/4 266/1/4 279/1/4
f 279/1/4 258/1/4 280/1/4
f 277/2/4 278/2/4 281/2/4
f 278/1/4 279/1/4 281/1/4
f 281/1/4 279/1/4 282/1/4
f 282/1/4 279/1/4 283/1/4
f 283/1/4 279/1/4 284/1/4
f 284/1/4 279/1/4 285/1/4
f 285/1/4 279/1/4 286/1/4
f 277/2/4 281/2/4 287/2/4
f 281/2/4 282/2/4 287/2/4
f 282/1/4 283/1/4 288/1/4
f 287/2/4 282/2/4 288/2/4
f 283/2/4 284/2/4 289/2/4
f 288/1/4 283/1/4 289/1/4
f 284/1/4 285/1/4 290/1/4
f 289/2/4 284/2/4 290/2/4
f 285/2/4 286/2/4 291/2/4
f 290/1/4 285/1/4 291/1/4
f 286/1/4 279/1/4 292/1/4
f 291/2/4 286/2/4 292/2/4
f 279/2/4 280/2/4 293/2/4
f 292/1/4 279/1/4 293/1/4
f 293/2/4 280/2/4 294/2/4
f 313/2/5 296/2/5 295/2/5
f 314/1/5 297/1/5 296/1/5
f 314/2/5 296/2/5 313/2/5
f 315/2/5 298/2/5 297/2/5
f 315/1/5 297/1/5 314/1/5
f 316/1/5 299/1/5 298/1/5
f 316/2/5 298/2/5 315/2/5
f 317/2/5 300/2/5 299/2/5
f 317/1/5 299/1/5 316/1/5
f 318/1/5 301/1/5 300/1/5
f 318/2/5 300/2/5 317/2/5
f 319/2/5 302/2/5 301/2/5
f 319/1/5 301/1/5 318/1/5
f 320/1/5 303/1/5 302/1/5
f 320/2/5 302/2/5 319/2/5
f 321/2/5 304/2/5 303/2/5
f 321/1/5 303/1/5 320/1/5
f 322/1/5 305/1/5 304/1/5
f 322/2/5 304/2/5 321/2/5
f 323/2/5 306/2/5 305/2/5
f 323/1/5 305/1/5 322/1/5
f 324/1/5 307/1/5 306/1/5
f 324/2/5 306/2/5 323/2/5
f 325/2/5 308/2/5 307/2/5
f 325/1/5 307/1/5 324/1/5
f 326/1/5 309/1/5 308/1/5
f 326/2/5 308/2/5 325/2/5
f 327/2/5 310/2/5 309/2/5
f 327/1/5 309/1/5 326/1/5
f 328/1/5 311/1/5 310/1/5
f 328/2/5 310/2/5 327/2/5
f 329/2/5 312/2/5 311/2/5
f 329/1/5 311/1/5 328/1/5
f 330/2/5 312/2/5 329/2/5
f 331/2/6 332/2/6 339/2/6
f 332/1/6 333/1/6 340/1/6
f 339/2/6 332/2/6 340/2/6
f 333/2/6 334/2/6 341/2/6
f 340/1/6 333/1/6 341/1/6
f 334/1/6 335/1/6 342/1/6
f 341/2/6 334/2/6 342/2/6
f 335/2/6 336/2/6 343/2/6
f 342/1/6 335/1/6 343/1/6
f 336/1/6 337/1/6 344/1/6
f 343/2/6 336/2/6 344/2/6
f 337/2/6 338/2/6 345/2/6
f 344/1/6 337/1/6 345/1/6
f 345/2/6 338/2/6 346/2/6
