# MagicaVoxel @ Ephtracy

# group
g test-26

# material
mtllib test-26.mtl
usemtl palette

# normals
vn -1 0 0
vn 1 0 0
vn 0 0 1
vn 0 0 -1
vn 0 -1 0
vn 0 1 0

# texcoords
vt 0.908203 0.5
vt 0.912109 0.5
vt 0.939453 0.5
vt 0.943359 0.5

# verts
v -16 0 16
v -16 0 15
v -16 14 16
v -16 14 15
v -16 15 16
v -16 15 15
v -16 32 16
v -16 32 15
v 16 0 16
v 16 0 15
v 16 32 16
v 16 32 15
v -16 0 16
v -16 14 16
v -16 15 16
v -16 32 16
v -15 14 16
v -15 15 16
v -15 16 16
v -14 15 16
v -14 16 16
v -13 15 16
v -13 16 16
v -12 17 16
v -12 18 16
v -11 17 16
v -11 18 16
v -10 15 16
v -10 16 16
v -9 14 16
v -9 15 16
v -8 14 16
v -8 15 16
v 0 7 16
v 0 8 16
v 1 7 16
v 1 8 16
v 5 8 16
v 5 9 16
v 6 8 16
v 6 9 16
v 16 0 16
v 16 32 16
v -16 0 15
v -16 14 15
v -16 15 15
v -16 32 15
v -15 14 15
v -15 15 15
v -15 16 15
v -14 15 15
v -14 16 15
v -13 15 15
v -13 16 15
v -12 17 15
v -12 18 15
v -11 17 15
v -11 18 15
v -10 15 15
v -10 16 15
v -9 14 15
v -9 15 15
v -8 14 15
v -8 15 15
v 0 7 15
v 0 8 15
v 1 7 15
v 1 8 15
v 5 8 15
v 5 9 15
v 6 8 15
v 6 9 15
v 16 0 15
v 16 32 15
v -16 0 16
v 16 0 16
v -16 0 15
v 16 0 15
v -16 32 16
v 16 32 16
v -16 32 15
v 16 32 15

# faces
f 3/3/1 2/3/1 1/3/1
f 4/3/1 2/3/1 3/3/1
f 5/2/1 4/2/1 3/2/1
f 6/2/1 4/2/1 5/2/1
f 7/3/1 6/3/1 5/3/1
f 8/3/1 6/3/1 7/3/1
f 9/3/2 10/3/2 11/3/2
f 11/3/2 10/3/2 12/3/2
f 17/3/3 14/3/3 13/3/3
f 17/2/3 15/2/3 14/2/3
f 18/3/3 16/3/3 15/3/3
f 18/2/3 15/2/3 17/2/3
f 19/3/3 16/3/3 18/3/3
f 20/1/3 18/1/3 17/1/3
f 20/4/3 19/4/3 18/4/3
f 21/3/3 16/3/3 19/3/3
f 21/4/3 19/4/3 20/4/3
f 22/1/3 20/1/3 17/1/3
f 22/3/3 21/3/3 20/3/3
f 23/3/3 16/3/3 21/3/3
f 23/3/3 21/3/3 22/3/3
f 24/3/3 16/3/3 23/3/3
f 25/3/3 16/3/3 24/3/3
f 26/3/3 24/3/3 23/3/3
f 26/4/3 25/4/3 24/4/3
f 27/3/3 16/3/3 25/3/3
f 27/4/3 25/4/3 26/4/3
f 28/1/3 22/1/3 17/1/3
f 28/4/3 23/4/3 22/4/3
f 29/3/3 27/3/3 26/3/3
f 29/4/3 23/4/3 28/4/3
f 29/3/3 26/3/3 23/3/3
f 30/3/3 17/3/3 13/3/3
f 30/1/3 28/1/3 17/1/3
f 31/3/3 29/3/3 28/3/3
f 31/1/3 28/1/3 30/1/3
f 32/3/3 30/3/3 13/3/3
f 32/4/3 31/4/3 30/4/3
f 33/3/3 29/3/3 31/3/3
f 33/4/3 31/4/3 32/4/3
f 34/3/3 32/3/3 13/3/3
f 34/3/3 33/3/3 32/3/3
f 35/3/3 33/3/3 34/3/3
f 36/3/3 34/3/3 13/3/3
f 36/4/3 35/4/3 34/4/3
f 37/3/3 33/3/3 35/3/3
f 37/4/3 35/4/3 36/4/3
f 38/3/3 37/3/3 36/3/3
f 38/3/3 33/3/3 37/3/3
f 39/3/3 33/3/3 38/3/3
f 40/3/3 38/3/3 36/3/3
f 40/4/3 39/4/3 38/4/3
f 41/3/3 33/3/3 39/3/3
f 41/4/3 39/4/3 40/4/3
f 42/3/3 36/3/3 13/3/3
f 42/3/3 40/3/3 36/3/3
f 42/3/3 41/3/3 40/3/3
f 43/3/3 27/3/3 29/3/3
f 43/3/3 41/3/3 42/3/3
f 43/3/3 16/3/3 27/3/3
f 43/3/3 33/3/3 41/3/3
f 43/3/3 29/3/3 33/3/3
f 44/3/4 45/3/4 48/3/4
f 45/2/4 46/2/4 48/2/4
f 46/3/4 47/3/4 49/3/4
f 48/2/4 46/2/4 49/2/4
f 49/3/4 47/3/4 50/3/4
f 48/1/4 49/1/4 51/1/4
f 49/4/4 50/4/4 51/4/4
f 50/3/4 47/3/4 52/3/4
f 51/4/4 50/4/4 52/4/4
f 48/1/4 51/1/4 53/1/4
f 51/3/4 52/3/4 53/3/4
f 52/3/4 47/3/4 54/3/4
f 53/3/4 52/3/4 54/3/4
f 54/3/4 47/3/4 55/3/4
f 55/3/4 47/3/4 56/3/4
f 54/3/4 55/3/4 57/3/4
f 55/4/4 56/4/4 57/4/4
f 56/3/4 47/3/4 58/3/4
f 57/4/4 56/4/4 58/4/4
f 48/1/4 53/1/4 59/1/4
f 53/4/4 54/4/4 59/4/4
f 57/3/4 58/3/4 60/3/4
f 59/4/4 54/4/4 60/4/4
f 54/3/4 57/3/4 60/3/4
f 44/3/4 48/3/4 61/3/4
f 48/1/4 59/1/4 61/1/4
f 59/3/4 60/3/4 62/3/4
f 61/1/4 59/1/4 62/1/4
f 44/3/4 61/3/4 63/3/4
f 61/4/4 62/4/4 63/4/4
f 62/3/4 60/3/4 64/3/4
f 63/4/4 62/4/4 64/4/4
f 44/3/4 63/3/4 65/3/4
f 63/3/4 64/3/4 65/3/4
f 65/3/4 64/3/4 66/3/4
f 44/3/4 65/3/4 67/3/4
f 65/4/4 66/4/4 67/4/4
f 66/3/4 64/3/4 68/3/4
f 67/4/4 66/4/4 68/4/4
f 67/3/4 68/3/4 69/3/4
f 68/3/4 64/3/4 69/3/4
f 69/3/4 64/3/4 70/3/4
f 67/3/4 69/3/4 71/3/4
f 69/4/4 70/4/4 71/4/4
f 70/3/4 64/3/4 72/3/4
f 71/4/4 70/4/4 72/4/4
f 44/3/4 67/3/4 73/3/4
f 67/3/4 71/3/4 73/3/4
f 71/3/4 72/3/4 73/3/4
f 60/3/4 58/3/4 74/3/4
f 73/3/4 72/3/4 74/3/4
f 58/3/4 47/3/4 74/3/4
f 72/3/4 64/3/4 74/3/4
f 64/3/4 60/3/4 74/3/4
f 77/3/5 76/3/5 75/3/5
f 78/3/5 76/3/5 77/3/5
f 79/3/6 80/3/6 81/3/6
f 81/3/6 80/3/6 82/3/6
