# MagicaVoxel @ Ephtracy

# group
g test-56

# material
mtllib test-56.mtl
usemtl palette

# normals
vn -1 0 0
vn 1 0 0
vn 0 0 1
vn 0 0 -1
vn 0 -1 0
vn 0 1 0

# texcoords
vt 0.939453 0.5
vt 0.943359 0.5
vt 0.970703 0.5
vt 0.978516 0.5

# verts
v -16 0 16
v -16 0 -16
v -16 4 -6
v -16 4 -7
v -16 5 15
v -16 5 14
v -16 5 -6
v -16 5 -7
v -16 6 15
v -16 6 14
v -16 11 16
v -16 11 15
v -16 13 15
v -16 13 14
v -16 14 10
v -16 14 9
v -16 15 10
v -16 15 9
v -16 16 16
v -16 16 14
v -16 17 15
v -16 17 13
v -16 19 5
v -16 19 4
v -16 20 16
v -16 20 15
v -16 20 13
v -16 20 12
v -16 21 16
v -16 21 15
v -16 21 14
v -16 21 13
v -16 21 5
v -16 21 4
v -16 22 14
v -16 22 13
v -16 22 12
v -16 22 11
v -16 23 16
v -16 23 15
v -16 23 11
v -16 24 16
v -16 24 15
v -16 24 11
v -16 25 16
v -16 25 15
v -16 26 13
v -16 26 12
v -16 26 11
v -16 26 10
v -16 27 13
v -16 27 12
v -16 27 9
v -16 27 8
v -16 28 15
v -16 28 14
v -16 28 11
v -16 28 10
v -16 28 9
v -16 28 8
v -16 29 14
v -16 29 11
v -16 30 15
v -16 30 14
v -16 30 10
v -16 31 14
v -16 31 13
v -16 31 12
v -16 31 10
v -16 31 9
v -16 32 16
v -16 32 13
v -16 32 12
v -16 32 9
v -16 32 -16
v 15 0 15
v 15 0 -16
v 15 4 -6
v 15 4 -7
v 15 5 15
v 15 5 14
v 15 5 -6
v 15 5 -7
v 15 6 15
v 15 6 14
v 15 13 15
v 15 13 14
v 15 14 15
v 15 14 10
v 15 14 9
v 15 15 10
v 15 15 9
v 15 16 15
v 15 16 14
v 15 17 15
v 15 17 13
v 15 19 5
v 15 19 4
v 15 20 13
v 15 20 12
v 15 21 14
v 15 21 13
v 15 21 5
v 15 21 4
v 15 22 14
v 15 22 13
v 15 22 12
v 15 22 11
v 15 23 15
v 15 23 11
v 15 24 15
v 15 24 11
v 15 26 13
v 15 26 12
v 15 26 11
v 15 26 10
v 15 27 13
v 15 27 12
v 15 27 9
v 15 27 8
v 15 28 15
v 15 28 14
v 15 28 11
v 15 28 10
v 15 28 9
v 15 28 8
v 15 29 15
v 15 29 14
v 15 29 11
v 15 30 15
v 15 30 14
v 15 30 10
v 15 31 14
v 15 31 13
v 15 31 12
v 15 31 10
v 15 31 9
v 15 32 15
v 15 32 13
v 15 32 12
v 15 32 9
v 15 32 -16
v -15 0 15
v -15 0 -16
v -15 4 -6
v -15 4 -7
v -15 5 15
v -15 5 14
v -15 5 -6
v -15 5 -7
v -15 6 15
v -15 6 14
v -15 13 15
v -15 13 14
v -15 14 15
v -15 14 10
v -15 14 9
v -15 15 10
v -15 15 9
v -15 16 15
v -15 16 14
v -15 17 15
v -15 17 13
v -15 19 5
v -15 19 4
v -15 20 13
v -15 20 12
v -15 21 14
v -15 21 13
v -15 21 5
v -15 21 4
v -15 22 14
v -15 22 13
v -15 22 12
v -15 22 11
v -15 23 15
v -15 23 11
v -15 24 15
v -15 24 11
v -15 26 13
v -15 26 12
v -15 26 11
v -15 26 10
v -15 27 13
v -15 27 12
v -15 27 9
v -15 27 8
v -15 28 15
v -15 28 14
v -15 28 11
v -15 28 10
v -15 28 9
v -15 28 8
v -15 29 15
v -15 29 14
v -15 29 11
v -15 30 15
v -15 30 14
v -15 30 10
v -15 31 14
v -15 31 13
v -15 31 12
v -15 31 10
v -15 31 9
v -15 32 15
v -15 32 13
v -15 32 12
v -15 32 9
v -15 32 -16
v 16 0 16
v 16 0 -16
v 16 4 -6
v 16 4 -7
v 16 5 15
v 16 5 14
v 16 5 -6
v 16 5 -7
v 16 6 15
v 16 6 14
v 16 11 16
v 16 11 15
v 16 13 15
v 16 13 14
v 16 14 10
v 16 14 9
v 16 15 10
v 16 15 9
v 16 16 16
v 16 16 14
v 16 17 15
v 16 17 13
v 16 19 5
v 16 19 4
v 16 20 16
v 16 20 15
v 16 20 13
v 16 20 12
v 16 21 16
v 16 21 15
v 16 21 14
v 16 21 13
v 16 21 5
v 16 21 4
v 16 22 14
v 16 22 13
v 16 22 12
v 16 22 11
v 16 23 16
v 16 23 15
v 16 23 11
v 16 24 16
v 16 24 15
v 16 24 11
v 16 25 16
v 16 25 15
v 16 26 13
v 16 26 12
v 16 26 11
v 16 26 10
v 16 27 13
v 16 27 12
v 16 27 9
v 16 27 8
v 16 28 15
v 16 28 14
v 16 28 11
v 16 28 10
v 16 28 9
v 16 28 8
v 16 29 14
v 16 29 11
v 16 30 15
v 16 30 14
v 16 30 10
v 16 31 14
v 16 31 13
v 16 31 12
v 16 31 10
v 16 31 9
v 16 32 16
v 16 32 13
v 16 32 12
v 16 32 9
v 16 32 -16
v -16 0 16
v -16 11 16
v -16 16 16
v -16 20 16
v -16 21 16
v -16 23 16
v -16 24 16
v -16 25 16
v -16 32 16
v -15 11 16
v -15 14 16
v -15 17 16
v -15 20 16
v -15 21 16
v -15 23 16
v -15 24 16
v -15 25 16
v -15 29 16
v -15 30 16
v -15 32 16
v -14 14 16
v -14 16 16
v -14 30 16
v -14 32 16
v -13 17 16
v -13 18 16
v -13 19 16
v -13 23 16
v -12 18 16
v -12 19 16
v -12 24 16
v -12 25 16
v -11 25 16
v -11 27 16
v -11 30 16
v -11 32 16
v -10 27 16
v -10 29 16
v 10 27 16
v 10 29 16
v 11 25 16
v 11 27 16
v 11 30 16
v 11 32 16
v 12 18 16
v 12 19 16
v 12 24 16
v 12 25 16
v 13 17 16
v 13 18 16
v 13 19 16
v 13 23 16
v 14 14 16
v 14 16 16
v 14 30 16
v 14 32 16
v 15 11 16
v 15 14 16
v 15 17 16
v 15 20 16
v 15 21 16
v 15 23 16
v 15 24 16
v 15 25 16
v 15 29 16
v 15 30 16
v 15 32 16
v 16 0 16
v 16 11 16
v 16 16 16
v 16 20 16
v 16 21 16
v 16 23 16
v 16 24 16
v 16 25 16
v 16 32 16
v -15 0 15
v -15 5 15
v -15 6 15
v -15 13 15
v -15 14 15
v -15 16 15
v -15 17 15
v -15 23 15
v -15 24 15
v -15 28 15
v -15 29 15
v -15 30 15
v -15 32 15
v -14 14 15
v -14 16 15
v -14 30 15
v -14 32 15
v -13 17 15
v -13 18 15
v -13 19 15
v -13 23 15
v -12 18 15
v -12 19 15
v -12 24 15
v -12 25 15
v -11 25 15
v -11 27 15
v -11 30 15
v -11 32 15
v -10 27 15
v -10 29 15
v 10 27 15
v 10 29 15
v 11 25 15
v 11 27 15
v 11 30 15
v 11 32 15
v 12 18 15
v 12 19 15
v 12 24 15
v 12 25 15
v 13 17 15
v 13 18 15
v 13 19 15
v 13 23 15
v 14 14 15
v 14 16 15
v 14 30 15
v 14 32 15
v 15 0 15
v 15 5 15
v 15 6 15
v 15 13 15
v 15 14 15
v 15 16 15
v 15 17 15
v 15 23 15
v 15 24 15
v 15 28 15
v 15 29 15
v 15 30 15
v 15 32 15
v -16 0 -16
v -16 32 -16
v -15 0 -16
v -15 32 -16
v 15 0 -16
v 15 32 -16
v 16 0 -16
v 16 32 -16
v -16 0 16
v 16 0 16
v -15 0 15
v 15 0 15
v -16 0 -16
v -15 0 -16
v 15 0 -16
v 16 0 -16
v -16 32 16
v -15 32 16
v -14 32 16
v -11 32 16
v 11 32 16
v 14 32 16
v 15 32 16
v 16 32 16
v -15 32 15
v -14 32 15
v -11 32 15
v 11 32 15
v 14 32 15
v 15 32 15
v -16 32 13
v -15 32 13
v 15 32 13
v 16 32 13
v -16 32 12
v -15 32 12
v 15 32 12
v 16 32 12
v -16 32 9
v -15 32 9
v 15 32 9
v 16 32 9
v -16 32 -16
v -15 32 -16
v 15 32 -16
v 16 32 -16

# faces
f 3/4/1 2/4/1 1/4/1
f 4/4/1 2/4/1 3/4/1
f 5/4/1 3/4/1 1/4/1
f 6/4/1 3/4/1 5/4/1
f 7/3/1 4/3/1 3/3/1
f 7/4/1 3/4/1 6/4/1
f 8/4/1 2/4/1 4/4/1
f 8/3/1 4/3/1 7/3/1
f 9/3/1 6/3/1 5/3/1
f 9/4/1 5/4/1 1/4/1
f 10/4/1 7/4/1 6/4/1
f 10/3/1 6/3/1 9/3/1
f 10/4/1 8/4/1 7/4/1
f 11/4/1 9/4/1 1/4/1
f 11/4/1 10/4/1 9/4/1
f 12/4/1 10/4/1 11/4/1
f 13/3/1 12/3/1 11/3/1
f 13/4/1 10/4/1 12/4/1
f 14/4/1 8/4/1 10/4/1
f 14/4/1 10/4/1 13/4/1
f 15/4/1 8/4/1 14/4/1
f 16/4/1 8/4/1 15/4/1
f 17/4/1 15/4/1 14/4/1
f 17/3/1 16/3/1 15/3/1
f 18/4/1 8/4/1 16/4/1
f 18/3/1 16/3/1 17/3/1
f 19/3/1 13/3/1 11/3/1
f 19/3/1 14/3/1 13/3/1
f 20/4/1 18/4/1 17/4/1
f 20/3/1 14/3/1 19/3/1
f 20/4/1 17/4/1 14/4/1
f 21/4/1 20/4/1 19/4/1
f 22/4/1 18/4/1 20/4/1
f 22/4/1 20/4/1 21/4/1
f 23/4/1 8/4/1 18/4/1
f 23/4/1 18/4/1 22/4/1
f 24/4/1 8/4/1 23/4/1
f 25/4/1 21/4/1 19/4/1
f 26/3/1 22/3/1 21/3/1
f 26/4/1 21/4/1 25/4/1
f 27/4/1 23/4/1 22/4/1
f 27/3/1 22/3/1 26/3/1
f 28/4/1 23/4/1 27/4/1
f 29/1/1 26/1/1 25/1/1
f 30/3/1 27/3/1 26/3/1
f 30/1/1 26/1/1 29/1/1
f 30/3/1 28/3/1 27/3/1
f 31/3/1 28/3/1 30/3/1
f 32/3/1 28/3/1 31/3/1
f 33/4/1 23/4/1 28/4/1
f 33/3/1 24/3/1 23/3/1
f 34/4/1 8/4/1 24/4/1
f 34/3/1 24/3/1 33/3/1
f 35/4/1 32/4/1 31/4/1
f 35/3/1 31/3/1 30/3/1
f 36/3/1 28/3/1 32/3/1
f 36/4/1 32/4/1 35/4/1
f 37/4/1 33/4/1 28/4/1
f 37/3/1 28/3/1 36/3/1
f 37/4/1 34/4/1 33/4/1
f 38/4/1 34/4/1 37/4/1
f 39/4/1 30/4/1 29/4/1
f 40/3/1 36/3/1 35/3/1
f 40/4/1 30/4/1 39/4/1
f 40/3/1 35/3/1 30/3/1
f 40/3/1 38/3/1 37/3/1
f 40/3/1 37/3/1 36/3/1
f 41/4/1 34/4/1 38/4/1
f 41/3/1 38/3/1 40/3/1
f 42/1/1 40/1/1 39/1/1
f 43/4/1 41/4/1 40/4/1
f 43/1/1 40/1/1 42/1/1
f 44/4/1 34/4/1 41/4/1
f 44/4/1 41/4/1 43/4/1
f 45/2/1 43/2/1 42/2/1
f 46/3/1 44/3/1 43/3/1
f 46/2/1 43/2/1 45/2/1
f 47/3/1 44/3/1 46/3/1
f 48/3/1 44/3/1 47/3/1
f 49/4/1 34/4/1 44/4/1
f 49/3/1 44/3/1 48/3/1
f 50/4/1 34/4/1 49/4/1
f 51/4/1 48/4/1 47/4/1
f 51/3/1 47/3/1 46/3/1
f 52/3/1 50/3/1 49/3/1
f 52/4/1 48/4/1 51/4/1
f 52/3/1 49/3/1 48/3/1
f 53/4/1 34/4/1 50/4/1
f 54/4/1 34/4/1 53/4/1
f 55/1/1 46/1/1 45/1/1
f 55/3/1 51/3/1 46/3/1
f 55/3/1 52/3/1 51/3/1
f 56/3/1 52/3/1 55/3/1
f 57/3/1 50/3/1 52/3/1
f 57/3/1 52/3/1 56/3/1
f 58/4/1 53/4/1 50/4/1
f 58/3/1 50/3/1 57/3/1
f 59/3/1 54/3/1 53/3/1
f 59/4/1 53/4/1 58/4/1
f 60/4/1 34/4/1 54/4/1
f 60/3/1 54/3/1 59/3/1
f 61/2/1 56/2/1 55/2/1
f 61/3/1 57/3/1 56/3/1
f 62/4/1 59/4/1 58/4/1
f 62/3/1 57/3/1 61/3/1
f 62/4/1 58/4/1 57/4/1
f 62/4/1 60/4/1 59/4/1
f 63/2/1 61/2/1 55/2/1
f 63/1/1 55/1/1 45/1/1
f 64/4/1 62/4/1 61/4/1
f 64/2/1 61/2/1 63/2/1
f 65/4/1 60/4/1 62/4/1
f 65/4/1 62/4/1 64/4/1
f 66/1/1 64/1/1 63/1/1
f 66/3/1 65/3/1 64/3/1
f 67/3/1 65/3/1 66/3/1
f 68/3/1 65/3/1 67/3/1
f 69/4/1 60/4/1 65/4/1
f 69/3/1 65/3/1 68/3/1
f 70/4/1 60/4/1 69/4/1
f 71/1/1 63/1/1 45/1/1
f 71/1/1 66/1/1 63/1/1
f 71/1/1 67/1/1 66/1/1
f 72/2/1 68/2/1 67/2/1
f 72/1/1 67/1/1 71/1/1
f 73/3/1 70/3/1 69/3/1
f 73/2/1 68/2/1 72/2/1
f 73/3/1 69/3/1 68/3/1
f 74/4/1 60/4/1 70/4/1
f 74/3/1 70/3/1 73/3/1
f 75/4/1 2/4/1 8/4/1
f 75/4/1 60/4/1 74/4/1
f 75/4/1 34/4/1 60/4/1
f 75/4/1 8/4/1 34/4/1
f 78/4/1 77/4/1 76/4/1
f 79/4/1 77/4/1 78/4/1
f 80/4/1 78/4/1 76/4/1
f 81/4/1 78/4/1 80/4/1
f 82/3/1 79/3/1 78/3/1
f 82/4/1 78/4/1 81/4/1
f 83/4/1 77/4/1 79/4/1
f 83/3/1 79/3/1 82/3/1
f 84/3/1 81/3/1 80/3/1
f 85/4/1 82/4/1 81/4/1
f 85/3/1 81/3/1 84/3/1
f 85/4/1 83/4/1 82/4/1
f 86/4/1 85/4/1 84/4/1
f 87/4/1 83/4/1 85/4/1
f 87/4/1 85/4/1 86/4/1
f 88/3/1 87/3/1 86/3/1
f 89/4/1 83/4/1 87/4/1
f 90/4/1 83/4/1 89/4/1
f 91/4/1 89/4/1 87/4/1
f 91/3/1 90/3/1 89/3/1
f 92/4/1 83/4/1 90/4/1
f 92/3/1 90/3/1 91/3/1
f 93/3/1 87/3/1 88/3/1
f 94/4/1 91/4/1 87/4/1
f 94/3/1 87/3/1 93/3/1
f 94/4/1 92/4/1 91/4/1
f 95/4/1 94/4/1 93/4/1
f 96/4/1 92/4/1 94/4/1
f 96/4/1 94/4/1 95/4/1
f 97/4/1 83/4/1 92/4/1
f 97/4/1 92/4/1 96/4/1
f 98/4/1 83/4/1 97/4/1
f 99/3/1 96/3/1 95/3/1
f 99/4/1 97/4/1 96/4/1
f 100/4/1 97/4/1 99/4/1
f 101/3/1 99/3/1 95/3/1
f 101/3/1 100/3/1 99/3/1
f 102/3/1 100/3/1 101/3/1
f 103/3/1 98/3/1 97/3/1
f 103/4/1 97/4/1 100/4/1
f 104/4/1 83/4/1 98/4/1
f 104/3/1 98/3/1 103/3/1
f 105/4/1 102/4/1 101/4/1
f 105/3/1 101/3/1 95/3/1
f 106/3/1 100/3/1 102/3/1
f 106/4/1 102/4/1 105/4/1
f 107/4/1 103/4/1 100/4/1
f 107/3/1 100/3/1 106/3/1
f 107/4/1 104/4/1 103/4/1
f 108/4/1 104/4/1 107/4/1
f 109/3/1 106/3/1 105/3/1
f 109/3/1 105/3/1 95/3/1
f 109/3/1 108/3/1 107/3/1
f 109/3/1 107/3/1 106/3/1
f 110/4/1 104/4/1 108/4/1
f 110/3/1 108/3/1 109/3/1
f 111/4/1 110/4/1 109/4/1
f 112/4/1 104/4/1 110/4/1
f 112/4/1 110/4/1 111/4/1
f 113/3/1 112/3/1 111/3/1
f 114/3/1 112/3/1 113/3/1
f 115/4/1 104/4/1 112/4/1
f 115/3/1 112/3/1 114/3/1
f 116/4/1 104/4/1 115/4/1
f 117/4/1 114/4/1 113/4/1
f 117/3/1 113/3/1 111/3/1
f 118/3/1 116/3/1 115/3/1
f 118/4/1 114/4/1 117/4/1
f 118/3/1 115/3/1 114/3/1
f 119/4/1 104/4/1 116/4/1
f 120/4/1 104/4/1 119/4/1
f 121/3/1 117/3/1 111/3/1
f 121/3/1 118/3/1 117/3/1
f 122/3/1 118/3/1 121/3/1
f 123/3/1 116/3/1 118/3/1
f 123/3/1 118/3/1 122/3/1
f 124/4/1 119/4/1 116/4/1
f 124/3/1 116/3/1 123/3/1
f 125/3/1 120/3/1 119/3/1
f 125/4/1 119/4/1 124/4/1
f 126/4/1 104/4/1 120/4/1
f 126/3/1 120/3/1 125/3/1
f 127/2/1 122/2/1 121/2/1
f 128/3/1 123/3/1 122/3/1
f 128/2/1 122/2/1 127/2/1
f 129/4/1 125/4/1 124/4/1
f 129/3/1 123/3/1 128/3/1
f 129/4/1 124/4/1 123/4/1
f 129/4/1 126/4/1 125/4/1
f 130/2/1 128/2/1 127/2/1
f 131/4/1 129/4/1 128/4/1
f 131/2/1 128/2/1 130/2/1
f 132/4/1 126/4/1 129/4/1
f 132/4/1 129/4/1 131/4/1
f 133/1/1 131/1/1 130/1/1
f 133/3/1 132/3/1 131/3/1
f 134/3/1 132/3/1 133/3/1
f 135/3/1 132/3/1 134/3/1
f 136/4/1 126/4/1 132/4/1
f 136/3/1 132/3/1 135/3/1
f 137/4/1 126/4/1 136/4/1
f 138/1/1 133/1/1 130/1/1
f 138/1/1 134/1/1 133/1/1
f 139/2/1 135/2/1 134/2/1
f 139/1/1 134/1/1 138/1/1
f 140/3/1 137/3/1 136/3/1
f 140/2/1 135/2/1 139/2/1
f 140/3/1 136/3/1 135/3/1
f 141/4/1 126/4/1 137/4/1
f 141/3/1 137/3/1 140/3/1
f 142/4/1 77/4/1 83/4/1
f 142/4/1 126/4/1 141/4/1
f 142/4/1 83/4/1 104/4/1
f 142/4/1 104/4/1 126/4/1
f 143/4/2 144/4/2 145/4/2
f 145/4/2 144/4/2 146/4/2
f 143/4/2 145/4/2 147/4/2
f 147/4/2 145/4/2 148/4/2
f 145/3/2 146/3/2 149/3/2
f 148/4/2 145/4/2 149/4/2
f 146/4/2 144/4/2 150/4/2
f 149/3/2 146/3/2 150/3/2
f 147/3/2 148/3/2 151/3/2
f 148/4/2 149/4/2 152/4/2
f 151/3/2 148/3/2 152/3/2
f 149/4/2 150/4/2 152/4/2
f 151/4/2 152/4/2 153/4/2
f 152/4/2 150/4/2 154/4/2
f 153/4/2 152/4/2 154/4/2
f 153/3/2 154/3/2 155/3/2
f 154/4/2 150/4/2 156/4/2
f 156/4/2 150/4/2 157/4/2
f 154/4/2 156/4/2 158/4/2
f 156/3/2 157/3/2 158/3/2
f 157/4/2 150/4/2 159/4/2
f 158/3/2 157/3/2 159/3/2
f 155/3/2 154/3/2 160/3/2
f 154/4/2 158/4/2 161/4/2
f 160/3/2 154/3/2 161/3/2
f 158/4/2 159/4/2 161/4/2
f 160/4/2 161/4/2 162/4/2
f 161/4/2 159/4/2 163/4/2
f 162/4/2 161/4/2 163/4/2
f 159/4/2 150/4/2 164/4/2
f 163/4/2 159/4/2 164/4/2
f 164/4/2 150/4/2 165/4/2
f 162/3/2 163/3/2 166/3/2
f 163/4/2 164/4/2 166/4/2
f 166/4/2 164/4/2 167/4/2
f 162/3/2 166/3/2 168/3/2
f 166/3/2 167/3/2 168/3/2
f 168/3/2 167/3/2 169/3/2
f 164/3/2 165/3/2 170/3/2
f 167/4/2 164/4/2 170/4/2
f 165/4/2 150/4/2 171/4/2
f 170/3/2 165/3/2 171/3/2
f 168/4/2 169/4/2 172/4/2
f 162/3/2 168/3/2 172/3/2
f 169/3/2 167/3/2 173/3/2
f 172/4/2 169/4/2 173/4/2
f 167/4/2 170/4/2 174/4/2
f 173/3/2 167/3/2 174/3/2
f 170/4/2 171/4/2 174/4/2
f 174/4/2 171/4/2 175/4/2
f 172/3/2 173/3/2 176/3/2
f 162/3/2 172/3/2 176/3/2
f 174/3/2 175/3/2 176/3/2
f 173/3/2 174/3/2 176/3/2
f 175/4/2 171/4/2 177/4/2
f 176/3/2 175/3/2 177/3/2
f 176/4/2 177/4/2 178/4/2
f 177/4/2 171/4/2 179/4/2
f 178/4/2 177/4/2 179/4/2
f 178/3/2 179/3/2 180/3/2
f 180/3/2 179/3/2 181/3/2
f 179/4/2 171/4/2 182/4/2
f 181/3/2 179/3/2 182/3/2
f 182/4/2 171/4/2 183/4/2
f 180/4/2 181/4/2 184/4/2
f 178/3/2 180/3/2 184/3/2
f 182/3/2 183/3/2 185/3/2
f 184/4/2 181/4/2 185/4/2
f 181/3/2 182/3/2 185/3/2
f 183/4/2 171/4/2 186/4/2
f 186/4/2 171/4/2 187/4/2
f 178/3/2 184/3/2 188/3/2
f 184/3/2 185/3/2 188/3/2
f 188/3/2 185/3/2 189/3/2
f 185/3/2 183/3/2 190/3/2
f 189/3/2 185/3/2 190/3/2
f 183/4/2 186/4/2 191/4/2
f 190/3/2 183/3/2 191/3/2
f 186/3/2 187/3/2 192/3/2
f 191/4/2 186/4/2 192/4/2
f 187/4/2 171/4/2 193/4/2
f 192/3/2 187/3/2 193/3/2
f 188/2/2 189/2/2 194/2/2
f 189/3/2 190/3/2 195/3/2
f 194/2/2 189/2/2 195/2/2
f 191/4/2 192/4/2 196/4/2
f 195/3/2 190/3/2 196/3/2
f 190/4/2 191/4/2 196/4/2
f 192/4/2 193/4/2 196/4/2
f 194/2/2 195/2/2 197/2/2
f 195/4/2 196/4/2 198/4/2
f 197/2/2 195/2/2 198/2/2
f 196/4/2 193/4/2 199/4/2
f 198/4/2 196/4/2 199/4/2
f 197/1/2 198/1/2 200/1/2
f 198/3/2 199/3/2 200/3/2
f 200/3/2 199/3/2 201/3/2
f 201/3/2 199/3/2 202/3/2
f 199/4/2 193/4/2 203/4/2
f 202/3/2 199/3/2 203/3/2
f 203/4/2 193/4/2 204/4/2
f 197/1/2 200/1/2 205/1/2
f 200/1/2 201/1/2 205/1/2
f 201/2/2 202/2/2 206/2/2
f 205/1/2 201/1/2 206/1/2
f 203/3/2 204/3/2 207/3/2
f 206/2/2 202/2/2 207/2/2
f 202/3/2 203/3/2 207/3/2
f 204/4/2 193/4/2 208/4/2
f 207/3/2 204/3/2 208/3/2
f 150/4/2 144/4/2 209/4/2
f 208/4/2 193/4/2 209/4/2
f 171/4/2 150/4/2 209/4/2
f 193/4/2 171/4/2 209/4/2
f 210/4/2 211/4/2 212/4/2
f 212/4/2 211/4/2 213/4/2
f 210/4/2 212/4/2 214/4/2
f 214/4/2 212/4/2 215/4/2
f 212/3/2 213/3/2 216/3/2
f 215/4/2 212/4/2 216/4/2
f 213/4/2 211/4/2 217/4/2
f 216/3/2 213/3/2 217/3/2
f 214/3/2 215/3/2 218/3/2
f 210/4/2 214/4/2 218/4/2
f 215/4/2 216/4/2 219/4/2
f 218/3/2 215/3/2 219/3/2
f 216/4/2 217/4/2 219/4/2
f 210/4/2 218/4/2 220/4/2
f 218/4/2 219/4/2 220/4/2
f 220/4/2 219/4/2 221/4/2
f 220/3/2 221/3/2 222/3/2
f 221/4/2 219/4/2 222/4/2
f 219/4/2 217/4/2 223/4/2
f 222/4/2 219/4/2 223/4/2
f 223/4/2 217/4/2 224/4/2
f 224/4/2 217/4/2 225/4/2
f 223/4/2 224/4/2 226/4/2
f 224/3/2 225/3/2 226/3/2
f 225/4/2 217/4/2 227/4/2
f 226/3/2 225/3/2 227/3/2
f 220/3/2 222/3/2 228/3/2
f 222/3/2 223/3/2 228/3/2
f 226/4/2 227/4/2 229/4/2
f 228/3/2 223/3/2 229/3/2
f 223/4/2 226/4/2 229/4/2
f 228/4/2 229/4/2 230/4/2
f 229/4/2 227/4/2 231/4/2
f 230/4/2 229/4/2 231/4/2
f 227/4/2 217/4/2 232/4/2
f 231/4/2 227/4/2 232/4/2
f 232/4/2 217/4/2 233/4/2
f 228/4/2 230/4/2 234/4/2
f 230/3/2 231/3/2 235/3/2
f 234/4/2 230/4/2 235/4/2
f 231/4/2 232/4/2 236/4/2
f 235/3/2 231/3/2 236/3/2
f 236/4/2 232/4/2 237/4/2
f 234/1/2 235/1/2 238/1/2
f 235/3/2 236/3/2 239/3/2
f 238/1/2 235/1/2 239/1/2
f 236/3/2 237/3/2 239/3/2
f 239/3/2 237/3/2 240/3/2
f 240/3/2 237/3/2 241/3/2
f 237/4/2 232/4/2 242/4/2
f 232/3/2 233/3/2 242/3/2
f 233/4/2 217/4/2 243/4/2
f 242/3/2 233/3/2 243/3/2
f 240/4/2 241/4/2 244/4/2
f 239/3/2 240/3/2 244/3/2
f 241/3/2 237/3/2 245/3/2
f 244/4/2 241/4/2 245/4/2
f 237/4/2 242/4/2 246/4/2
f 245/3/2 237/3/2 246/3/2
f 242/4/2 243/4/2 246/4/2
f 246/4/2 243/4/2 247/4/2
f 238/4/2 239/4/2 248/4/2
f 244/3/2 245/3/2 249/3/2
f 248/4/2 239/4/2 249/4/2
f 239/3/2 244/3/2 249/3/2
f 246/3/2 247/3/2 249/3/2
f 245/3/2 246/3/2 249/3/2
f 247/4/2 243/4/2 250/4/2
f 249/3/2 247/3/2 250/3/2
f 248/1/2 249/1/2 251/1/2
f 249/4/2 250/4/2 252/4/2
f 251/1/2 249/1/2 252/1/2
f 250/4/2 243/4/2 253/4/2
f 252/4/2 250/4/2 253/4/2
f 251/2/2 252/2/2 254/2/2
f 252/3/2 253/3/2 255/3/2
f 254/2/2 252/2/2 255/2/2
f 255/3/2 253/3/2 256/3/2
f 256/3/2 253/3/2 257/3/2
f 253/4/2 243/4/2 258/4/2
f 257/3/2 253/3/2 258/3/2
f 258/4/2 243/4/2 259/4/2
f 256/4/2 257/4/2 260/4/2
f 255/3/2 256/3/2 260/3/2
f 258/3/2 259/3/2 261/3/2
f 260/4/2 257/4/2 261/4/2
f 257/3/2 258/3/2 261/3/2
f 259/4/2 243/4/2 262/4/2
f 262/4/2 243/4/2 263/4/2
f 254/1/2 255/1/2 264/1/2
f 255/3/2 260/3/2 264/3/2
f 260/3/2 261/3/2 264/3/2
f 264/3/2 261/3/2 265/3/2
f 261/3/2 259/3/2 266/3/2
f 265/3/2 261/3/2 266/3/2
f 259/4/2 262/4/2 267/4/2
f 266/3/2 259/3/2 267/3/2
f 262/3/2 263/3/2 268/3/2
f 267/4/2 262/4/2 268/4/2
f 263/4/2 243/4/2 269/4/2
f 268/3/2 263/3/2 269/3/2
f 264/2/2 265/2/2 270/2/2
f 265/3/2 266/3/2 270/3/2
f 267/4/2 268/4/2 271/4/2
f 270/3/2 266/3/2 271/3/2
f 266/4/2 267/4/2 271/4/2
f 268/4/2 269/4/2 271/4/2
f 264/2/2 270/2/2 272/2/2
f 254/1/2 264/1/2 272/1/2
f 270/4/2 271/4/2 273/4/2
f 272/2/2 270/2/2 273/2/2
f 271/4/2 269/4/2 274/4/2
f 273/4/2 271/4/2 274/4/2
f 272/1/2 273/1/2 275/1/2
f 273/3/2 274/3/2 275/3/2
f 275/3/2 274/3/2 276/3/2
f 276/3/2 274/3/2 277/3/2
f 274/4/2 269/4/2 278/4/2
f 277/3/2 274/3/2 278/3/2
f 278/4/2 269/4/2 279/4/2
f 254/1/2 272/1/2 280/1/2
f 272/1/2 275/1/2 280/1/2
f 275/1/2 276/1/2 280/1/2
f 276/2/2 277/2/2 281/2/2
f 280/1/2 276/1/2 281/1/2
f 278/3/2 279/3/2 282/3/2
f 281/2/2 277/2/2 282/2/2
f 277/3/2 278/3/2 282/3/2
f 279/4/2 269/4/2 283/4/2
f 282/3/2 279/3/2 283/3/2
f 217/4/2 211/4/2 284/4/2
f 283/4/2 269/4/2 284/4/2
f 269/4/2 243/4/2 284/4/2
f 243/4/2 217/4/2 284/4/2
f 294/4/3 286/4/3 285/4/3
f 294/3/3 287/3/3 286/3/3
f 295/3/3 287/3/3 294/3/3
f 296/4/3 288/4/3 287/4/3
f 297/1/3 289/1/3 288/1/3
f 297/4/3 288/4/3 296/4/3
f 298/4/3 290/4/3 289/4/3
f 298/1/3 289/1/3 297/1/3
f 299/1/3 291/1/3 290/1/3
f 299/4/3 290/4/3 298/4/3
f 300/2/3 292/2/3 291/2/3
f 300/1/3 291/1/3 299/1/3
f 301/1/3 293/1/3 292/1/3
f 301/2/3 292/2/3 300/2/3
f 302/1/3 293/1/3 301/1/3
f 303/1/3 293/1/3 302/1/3
f 304/1/3 293/1/3 303/1/3
f 305/3/3 287/3/3 295/3/3
f 305/4/3 295/4/3 294/4/3
f 306/4/3 296/4/3 287/4/3
f 306/3/3 287/3/3 305/3/3
f 307/2/3 304/2/3 303/2/3
f 307/4/3 303/4/3 302/4/3
f 308/2/3 304/2/3 307/2/3
f 309/3/3 299/3/3 298/3/3
f 309/3/3 297/3/3 296/3/3
f 309/3/3 298/3/3 297/3/3
f 309/4/3 296/4/3 306/4/3
f 309/4/3 306/4/3 305/4/3
f 310/3/3 299/3/3 309/3/3
f 311/3/3 299/3/3 310/3/3
f 312/4/3 300/4/3 299/4/3
f 312/3/3 299/3/3 311/3/3
f 313/3/3 311/3/3 310/3/3
f 313/4/3 310/4/3 309/4/3
f 314/4/3 312/4/3 311/4/3
f 314/3/3 311/3/3 313/3/3
f 315/4/3 300/4/3 312/4/3
f 315/4/3 312/4/3 314/4/3
f 315/3/3 302/3/3 301/3/3
f 315/3/3 301/3/3 300/3/3
f 316/3/3 302/3/3 315/3/3
f 317/4/3 314/4/3 313/4/3
f 317/3/3 302/3/3 316/3/3
f 317/4/3 316/4/3 315/4/3
f 317/4/3 315/4/3 314/4/3
f 318/3/3 302/3/3 317/3/3
f 319/3/3 308/3/3 307/3/3
f 319/4/3 307/4/3 302/4/3
f 320/3/3 308/3/3 319/3/3
f 321/3/3 302/3/3 318/3/3
f 321/4/3 318/4/3 317/4/3
f 322/4/3 320/4/3 319/4/3
f 322/3/3 302/3/3 321/3/3
f 322/4/3 319/4/3 302/4/3
f 323/4/3 321/4/3 317/4/3
f 323/4/3 322/4/3 321/4/3
f 324/4/3 320/4/3 322/4/3
f 324/4/3 322/4/3 323/4/3
f 325/4/3 323/4/3 317/4/3
f 325/4/3 317/4/3 313/4/3
f 326/3/3 324/3/3 323/3/3
f 326/4/3 323/4/3 325/4/3
f 327/4/3 320/4/3 324/4/3
f 328/4/3 320/4/3 327/4/3
f 329/4/3 313/4/3 309/4/3
f 329/4/3 325/4/3 313/4/3
f 330/4/3 325/4/3 329/4/3
f 331/4/3 325/4/3 330/4/3
f 332/3/3 326/3/3 325/3/3
f 332/4/3 325/4/3 331/4/3
f 333/4/3 309/4/3 305/4/3
f 333/4/3 329/4/3 309/4/3
f 334/3/3 330/3/3 329/3/3
f 334/4/3 329/4/3 333/4/3
f 335/4/3 331/4/3 330/4/3
f 335/3/3 330/3/3 334/3/3
f 336/4/3 331/4/3 335/4/3
f 337/4/3 305/4/3 294/4/3
f 337/4/3 333/4/3 305/4/3
f 338/4/3 333/4/3 337/4/3
f 339/3/3 328/3/3 327/3/3
f 339/4/3 327/4/3 324/4/3
f 340/3/3 328/3/3 339/3/3
f 341/4/3 294/4/3 285/4/3
f 341/4/3 337/4/3 294/4/3
f 342/3/3 338/3/3 337/3/3
f 342/4/3 337/4/3 341/4/3
f 343/4/3 333/4/3 338/4/3
f 343/3/3 334/3/3 333/3/3
f 343/3/3 336/3/3 335/3/3
f 343/3/3 335/3/3 334/3/3
f 344/3/3 336/3/3 343/3/3
f 345/3/3 336/3/3 344/3/3
f 346/4/3 331/4/3 336/4/3
f 346/3/3 336/3/3 345/3/3
f 347/3/3 332/3/3 331/3/3
f 347/4/3 331/4/3 346/4/3
f 348/3/3 326/3/3 332/3/3
f 348/3/3 332/3/3 347/3/3
f 349/3/3 324/3/3 326/3/3
f 349/3/3 326/3/3 348/3/3
f 349/4/3 339/4/3 324/4/3
f 350/2/3 340/2/3 339/2/3
f 350/4/3 339/4/3 349/4/3
f 351/2/3 340/2/3 350/2/3
f 352/4/3 341/4/3 285/4/3
f 353/3/3 342/3/3 341/3/3
f 353/4/3 341/4/3 352/4/3
f 354/3/3 338/3/3 342/3/3
f 354/3/3 342/3/3 353/3/3
f 354/4/3 344/4/3 343/4/3
f 354/4/3 343/4/3 338/4/3
f 355/1/3 345/1/3 344/1/3
f 355/4/3 344/4/3 354/4/3
f 356/4/3 346/4/3 345/4/3
f 356/1/3 345/1/3 355/1/3
f 357/1/3 347/1/3 346/1/3
f 357/4/3 346/4/3 356/4/3
f 358/2/3 348/2/3 347/2/3
f 358/1/3 347/1/3 357/1/3
f 359/1/3 351/1/3 350/1/3
f 359/2/3 348/2/3 358/2/3
f 359/1/3 349/1/3 348/1/3
f 359/1/3 350/1/3 349/1/3
f 360/1/3 351/1/3 359/1/3
f 361/4/4 362/4/4 374/4/4
f 362/4/4 363/4/4 374/4/4
f 363/4/4 364/4/4 374/4/4
f 364/4/4 365/4/4 374/4/4
f 365/3/4 366/3/4 374/3/4
f 366/4/4 367/4/4 375/4/4
f 374/3/4 366/3/4 375/3/4
f 372/2/4 373/2/4 376/2/4
f 371/4/4 372/4/4 376/4/4
f 376/2/4 373/2/4 377/2/4
f 375/4/4 367/4/4 378/4/4
f 374/4/4 375/4/4 378/4/4
f 367/3/4 368/3/4 378/3/4
f 378/3/4 368/3/4 379/3/4
f 379/3/4 368/3/4 380/3/4
f 368/4/4 369/4/4 381/4/4
f 380/3/4 368/3/4 381/3/4
f 379/3/4 380/3/4 382/3/4
f 378/4/4 379/4/4 382/4/4
f 380/4/4 381/4/4 383/4/4
f 382/3/4 380/3/4 383/3/4
f 370/3/4 371/3/4 384/3/4
f 383/4/4 381/4/4 384/4/4
f 369/3/4 370/3/4 384/3/4
f 381/4/4 369/4/4 384/4/4
f 384/3/4 371/3/4 385/3/4
f 382/4/4 383/4/4 386/4/4
f 385/3/4 371/3/4 386/3/4
f 384/4/4 385/4/4 386/4/4
f 383/4/4 384/4/4 386/4/4
f 386/3/4 371/3/4 387/3/4
f 376/3/4 377/3/4 388/3/4
f 371/4/4 376/4/4 388/4/4
f 388/3/4 377/3/4 389/3/4
f 387/3/4 371/3/4 390/3/4
f 386/4/4 387/4/4 390/4/4
f 388/4/4 389/4/4 391/4/4
f 390/3/4 371/3/4 391/3/4
f 371/4/4 388/4/4 391/4/4
f 386/4/4 390/4/4 392/4/4
f 390/4/4 391/4/4 392/4/4
f 391/4/4 389/4/4 393/4/4
f 392/4/4 391/4/4 393/4/4
f 386/4/4 392/4/4 394/4/4
f 382/4/4 386/4/4 394/4/4
f 392/3/4 393/3/4 395/3/4
f 394/4/4 392/4/4 395/4/4
f 393/4/4 389/4/4 396/4/4
f 396/4/4 389/4/4 397/4/4
f 378/4/4 382/4/4 398/4/4
f 382/4/4 394/4/4 398/4/4
f 398/4/4 394/4/4 399/4/4
f 399/4/4 394/4/4 400/4/4
f 394/3/4 395/3/4 401/3/4
f 400/4/4 394/4/4 401/4/4
f 374/4/4 378/4/4 402/4/4
f 378/4/4 398/4/4 402/4/4
f 398/3/4 399/3/4 403/3/4
f 402/4/4 398/4/4 403/4/4
f 399/4/4 400/4/4 404/4/4
f 403/3/4 399/3/4 404/3/4
f 404/4/4 400/4/4 405/4/4
f 361/4/4 374/4/4 406/4/4
f 374/4/4 402/4/4 406/4/4
f 406/4/4 402/4/4 407/4/4
f 396/3/4 397/3/4 408/3/4
f 393/4/4 396/4/4 408/4/4
f 408/3/4 397/3/4 409/3/4
f 361/4/4 406/4/4 410/4/4
f 410/4/4 406/4/4 411/4/4
f 411/4/4 406/4/4 412/4/4
f 412/4/4 406/4/4 413/4/4
f 406/3/4 407/3/4 414/3/4
f 413/4/4 406/4/4 414/4/4
f 407/4/4 402/4/4 415/4/4
f 414/3/4 407/3/4 415/3/4
f 402/3/4 403/3/4 416/3/4
f 415/4/4 402/4/4 416/4/4
f 404/3/4 405/3/4 416/3/4
f 403/3/4 404/3/4 416/3/4
f 405/4/4 400/4/4 417/4/4
f 416/3/4 405/3/4 417/3/4
f 400/3/4 401/3/4 418/3/4
f 417/4/4 400/4/4 418/4/4
f 395/3/4 393/3/4 419/3/4
f 418/3/4 401/3/4 419/3/4
f 401/3/4 395/3/4 419/3/4
f 393/4/4 408/4/4 420/4/4
f 419/3/4 393/3/4 420/3/4
f 408/2/4 409/2/4 421/2/4
f 420/4/4 408/4/4 421/4/4
f 421/2/4 409/2/4 422/2/4
f 423/4/4 424/4/4 425/4/4
f 425/4/4 424/4/4 426/4/4
f 427/4/4 428/4/4 429/4/4
f 429/4/4 428/4/4 430/4/4
f 433/4/5 432/4/5 431/4/5
f 434/4/5 432/4/5 433/4/5
f 435/4/5 433/4/5 431/4/5
f 436/4/5 433/4/5 435/4/5
f 437/4/5 432/4/5 434/4/5
f 438/4/5 432/4/5 437/4/5
f 439/1/6 440/1/6 447/1/6
f 440/2/6 441/2/6 447/2/6
f 441/3/6 442/3/6 448/3/6
f 447/2/6 441/2/6 448/2/6
f 442/4/6 443/4/6 449/4/6
f 448/3/6 442/3/6 449/3/6
f 443/3/6 444/3/6 450/3/6
f 449/4/6 443/4/6 450/4/6
f 444/2/6 445/2/6 451/2/6
f 450/3/6 444/3/6 451/3/6
f 445/1/6 446/1/6 452/1/6
f 451/2/6 445/2/6 452/2/6
f 439/1/6 447/1/6 453/1/6
f 453/1/6 447/1/6 454/1/6
f 452/1/6 446/1/6 455/1/6
f 455/1/6 446/1/6 456/1/6
f 453/2/6 454/2/6 457/2/6
f 457/2/6 454/2/6 458/2/6
f 455/2/6 456/2/6 459/2/6
f 459/2/6 456/2/6 460/2/6
f 457/3/6 458/3/6 461/3/6
f 461/3/6 458/3/6 462/3/6
f 459/3/6 460/3/6 463/3/6
f 463/3/6 460/3/6 464/3/6
f 461/4/6 462/4/6 465/4/6
f 465/4/6 462/4/6 466/4/6
f 463/4/6 464/4/6 467/4/6
f 467/4/6 464/4/6 468/4/6
