# MagicaVoxel @ Ephtracy

# group
g test-28

# material
mtllib test-28.mtl
usemtl palette

# normals
vn -1 0 0
vn 1 0 0
vn 0 0 1
vn 0 0 -1
vn 0 -1 0
vn 0 1 0

# texcoords
vt 0.908203 0.5
vt 0.912109 0.5
vt 0.939453 0.5
vt 0.943359 0.5

# verts
v -16 0 16
v -16 0 8
v -16 0 -7
v -16 0 -8
v -16 0 -13
v -16 0 -14
v -16 0 -16
v -16 1 9
v -16 1 8
v -16 1 3
v -16 1 2
v -16 1 -7
v -16 1 -8
v -16 1 -13
v -16 1 -14
v -16 2 14
v -16 2 9
v -16 2 3
v -16 2 2
v -16 4 11
v -16 4 10
v -16 5 11
v -16 5 10
v -16 6 15
v -16 6 14
v -16 7 15
v -16 7 14
v -16 8 15
v -16 8 14
v -16 11 16
v -16 11 15
v -16 13 16
v -16 13 15
v -16 15 16
v -16 15 15
v -16 16 16
v -16 16 15
v -16 18 16
v -16 18 15
v -16 27 16
v -16 27 15
v -16 28 16
v -16 28 15
v -16 30 16
v -16 30 15
v -16 31 15
v -16 31 9
v -16 31 8
v -16 31 5
v -16 31 3
v -16 31 2
v -16 31 -1
v -16 31 -6
v -16 32 16
v -16 32 9
v -16 32 8
v -16 32 5
v -16 32 3
v -16 32 2
v -16 32 -1
v -16 32 -6
v -16 32 -16
v -15 0 15
v -15 0 8
v -15 0 -7
v -15 0 -8
v -15 0 -13
v -15 0 -14
v -15 0 -16
v -15 1 9
v -15 1 8
v -15 1 3
v -15 1 2
v -15 1 -7
v -15 1 -8
v -15 1 -13
v -15 1 -14
v -15 2 14
v -15 2 9
v -15 2 3
v -15 2 2
v -15 4 15
v -15 4 11
v -15 4 10
v -15 5 11
v -15 5 10
v -15 6 15
v -15 6 14
v -15 7 15
v -15 7 14
v -15 8 15
v -15 8 14
v -15 31 15
v -15 31 9
v -15 31 8
v -15 31 5
v -15 31 3
v -15 31 2
v -15 31 -1
v -15 31 -6
v -15 32 15
v -15 32 9
v -15 32 8
v -15 32 5
v -15 32 3
v -15 32 2
v -15 32 -1
v -15 32 -6
v -15 32 -16
v 16 0 16
v 16 0 15
v 16 32 16
v 16 32 15
v -16 0 16
v -16 11 16
v -16 13 16
v -16 15 16
v -16 16 16
v -16 18 16
v -16 27 16
v -16 28 16
v -16 30 16
v -16 32 16
v -15 4 16
v -15 11 16
v -15 13 16
v -15 15 16
v -15 16 16
v -15 18 16
v -15 27 16
v -15 28 16
v -15 30 16
v -15 31 16
v -14 3 16
v -14 4 16
v -14 30 16
v -14 31 16
v -13 1 16
v -13 2 16
v -13 28 16
v -13 29 16
v -12 2 16
v -12 3 16
v -12 28 16
v -12 29 16
v -10 4 16
v -10 5 16
v -10 6 16
v -10 30 16
v -10 31 16
v -9 4 16
v -9 5 16
v -9 6 16
v -7 31 16
v -7 32 16
v -6 31 16
v -6 32 16
v -3 0 16
v -3 1 16
v -3 4 16
v -3 5 16
v -2 4 16
v -2 5 16
v -1 31 16
v -1 32 16
v 4 0 16
v 4 1 16
v 4 30 16
v 4 31 16
v 5 0 16
v 5 1 16
v 5 12 16
v 5 13 16
v 5 14 16
v 5 15 16
v 5 30 16
v 5 31 16
v 6 0 16
v 6 1 16
v 6 12 16
v 6 13 16
v 6 14 16
v 6 15 16
v 7 0 16
v 7 1 16
v 8 0 16
v 8 1 16
v 9 0 16
v 9 1 16
v 9 17 16
v 9 18 16
v 9 19 16
v 9 20 16
v 10 17 16
v 10 18 16
v 10 19 16
v 10 20 16
v 10 23 16
v 11 20 16
v 11 21 16
v 11 23 16
v 11 26 16
v 12 18 16
v 12 19 16
v 12 20 16
v 12 21 16
v 12 26 16
v 12 28 16
v 13 19 16
v 13 20 16
v 13 21 16
v 13 23 16
v 13 24 16
v 13 26 16
v 13 27 16
v 14 20 16
v 14 21 16
v 14 23 16
v 14 24 16
v 14 26 16
v 14 27 16
v 14 28 16
v 16 0 16
v 16 32 16
v -15 0 15
v -15 4 15
v -15 6 15
v -15 7 15
v -15 8 15
v -15 31 15
v -15 32 15
v -14 3 15
v -14 4 15
v -14 30 15
v -14 31 15
v -13 1 15
v -13 2 15
v -13 28 15
v -13 29 15
v -12 2 15
v -12 3 15
v -12 28 15
v -12 29 15
v -10 4 15
v -10 5 15
v -10 6 15
v -10 30 15
v -10 31 15
v -9 4 15
v -9 5 15
v -9 6 15
v -7 31 15
v -7 32 15
v -6 31 15
v -6 32 15
v -3 0 15
v -3 1 15
v -3 4 15
v -3 5 15
v -2 4 15
v -2 5 15
v -1 31 15
v -1 32 15
v 4 0 15
v 4 1 15
v 4 30 15
v 4 31 15
v 5 0 15
v 5 1 15
v 5 12 15
v 5 13 15
v 5 14 15
v 5 15 15
v 5 30 15
v 5 31 15
v 6 0 15
v 6 1 15
v 6 12 15
v 6 13 15
v 6 14 15
v 6 15 15
v 7 0 15
v 7 1 15
v 8 0 15
v 8 1 15
v 9 0 15
v 9 1 15
v 9 17 15
v 9 18 15
v 9 19 15
v 9 20 15
v 10 17 15
v 10 18 15
v 10 19 15
v 10 20 15
v 10 23 15
v 11 20 15
v 11 21 15
v 11 23 15
v 11 26 15
v 12 18 15
v 12 19 15
v 12 20 15
v 12 21 15
v 12 26 15
v 12 28 15
v 13 19 15
v 13 20 15
v 13 21 15
v 13 23 15
v 13 24 15
v 13 26 15
v 13 27 15
v 14 20 15
v 14 21 15
v 14 23 15
v 14 24 15
v 14 26 15
v 14 27 15
v 14 28 15
v 16 0 15
v 16 32 15
v -16 0 -16
v -16 32 -16
v -15 0 -16
v -15 32 -16
v -16 0 16
v -3 0 16
v 4 0 16
v 5 0 16
v 6 0 16
v 7 0 16
v 8 0 16
v 9 0 16
v 16 0 16
v -15 0 15
v -3 0 15
v 4 0 15
v 5 0 15
v 6 0 15
v 7 0 15
v 8 0 15
v 9 0 15
v 16 0 15
v -16 0 8
v -15 0 8
v -16 0 -7
v -15 0 -7
v -16 0 -8
v -15 0 -8
v -16 0 -13
v -15 0 -13
v -16 0 -14
v -15 0 -14
v -16 0 -16
v -15 0 -16
v -16 32 16
v -7 32 16
v -6 32 16
v -1 32 16
v 16 32 16
v -15 32 15
v -7 32 15
v -6 32 15
v -1 32 15
v 16 32 15
v -16 32 9
v -15 32 9
v -16 32 8
v -15 32 8
v -16 32 5
v -15 32 5
v -16 32 3
v -15 32 3
v -16 32 2
v -15 32 2
v -16 32 -1
v -15 32 -1
v -16 32 -6
v -15 32 -6
v -16 32 -16
v -15 32 -16

# faces
f 8/2/1 2/2/1 1/2/1
f 9/1/1 3/1/1 2/1/1
f 9/2/1 2/2/1 8/2/1
f 10/1/1 3/1/1 9/1/1
f 11/1/1 3/1/1 10/1/1
f 12/2/1 4/2/1 3/2/1
f 12/1/1 3/1/1 11/1/1
f 13/1/1 5/1/1 4/1/1
f 13/2/1 4/2/1 12/2/1
f 14/2/1 6/2/1 5/2/1
f 14/1/1 5/1/1 13/1/1
f 15/1/1 7/1/1 6/1/1
f 15/2/1 6/2/1 14/2/1
f 16/2/1 8/2/1 1/2/1
f 17/1/1 9/1/1 8/1/1
f 17/2/1 8/2/1 16/2/1
f 17/1/1 10/1/1 9/1/1
f 18/2/1 11/2/1 10/2/1
f 18/1/1 10/1/1 17/1/1
f 19/1/1 14/1/1 13/1/1
f 19/2/1 11/2/1 18/2/1
f 19/1/1 12/1/1 11/1/1
f 19/1/1 15/1/1 14/1/1
f 19/1/1 13/1/1 12/1/1
f 20/1/1 18/1/1 17/1/1
f 20/1/1 17/1/1 16/1/1
f 20/1/1 19/1/1 18/1/1
f 21/1/1 19/1/1 20/1/1
f 22/1/1 20/1/1 16/1/1
f 22/2/1 21/2/1 20/2/1
f 23/1/1 19/1/1 21/1/1
f 23/2/1 21/2/1 22/2/1
f 24/2/1 16/2/1 1/2/1
f 25/1/1 22/1/1 16/1/1
f 25/2/1 16/2/1 24/2/1
f 25/1/1 23/1/1 22/1/1
f 26/2/1 24/2/1 1/2/1
f 26/1/1 25/1/1 24/1/1
f 27/1/1 23/1/1 25/1/1
f 27/1/1 25/1/1 26/1/1
f 28/2/1 26/2/1 1/2/1
f 28/2/1 27/2/1 26/2/1
f 29/1/1 23/1/1 27/1/1
f 29/2/1 27/2/1 28/2/1
f 30/2/1 28/2/1 1/2/1
f 31/1/1 29/1/1 28/1/1
f 31/2/1 28/2/1 30/2/1
f 32/1/1 31/1/1 30/1/1
f 33/1/1 29/1/1 31/1/1
f 33/1/1 31/1/1 32/1/1
f 34/2/1 33/2/1 32/2/1
f 35/1/1 29/1/1 33/1/1
f 35/2/1 33/2/1 34/2/1
f 36/1/1 35/1/1 34/1/1
f 37/1/1 29/1/1 35/1/1
f 37/1/1 35/1/1 36/1/1
f 38/2/1 37/2/1 36/2/1
f 39/1/1 29/1/1 37/1/1
f 39/2/1 37/2/1 38/2/1
f 40/1/1 39/1/1 38/1/1
f 41/1/1 29/1/1 39/1/1
f 41/1/1 39/1/1 40/1/1
f 42/2/1 41/2/1 40/2/1
f 43/1/1 29/1/1 41/1/1
f 43/2/1 41/2/1 42/2/1
f 44/1/1 43/1/1 42/1/1
f 45/1/1 29/1/1 43/1/1
f 45/1/1 43/1/1 44/1/1
f 46/2/1 45/2/1 44/2/1
f 46/1/1 29/1/1 45/1/1
f 47/1/1 19/1/1 23/1/1
f 47/1/1 29/1/1 46/1/1
f 47/1/1 23/1/1 29/1/1
f 48/1/1 19/1/1 47/1/1
f 49/1/1 19/1/1 48/1/1
f 50/1/1 19/1/1 49/1/1
f 51/1/1 15/1/1 19/1/1
f 51/1/1 19/1/1 50/1/1
f 52/1/1 15/1/1 51/1/1
f 53/1/1 15/1/1 52/1/1
f 54/2/1 46/2/1 44/2/1
f 54/2/1 47/2/1 46/2/1
f 55/1/1 48/1/1 47/1/1
f 55/2/1 47/2/1 54/2/1
f 56/2/1 49/2/1 48/2/1
f 56/1/1 48/1/1 55/1/1
f 57/1/1 50/1/1 49/1/1
f 57/2/1 49/2/1 56/2/1
f 58/2/1 51/2/1 50/2/1
f 58/1/1 50/1/1 57/1/1
f 59/1/1 52/1/1 51/1/1
f 59/2/1 51/2/1 58/2/1
f 60/2/1 53/2/1 52/2/1
f 60/1/1 52/1/1 59/1/1
f 61/1/1 15/1/1 53/1/1
f 61/2/1 53/2/1 60/2/1
f 62/1/1 7/1/1 15/1/1
f 62/1/1 15/1/1 61/1/1
f 63/2/2 64/2/2 70/2/2
f 64/1/2 65/1/2 71/1/2
f 70/2/2 64/2/2 71/2/2
f 71/1/2 65/1/2 72/1/2
f 72/1/2 65/1/2 73/1/2
f 65/2/2 66/2/2 74/2/2
f 73/1/2 65/1/2 74/1/2
f 66/1/2 67/1/2 75/1/2
f 74/2/2 66/2/2 75/2/2
f 67/2/2 68/2/2 76/2/2
f 75/1/2 67/1/2 76/1/2
f 68/1/2 69/1/2 77/1/2
f 76/2/2 68/2/2 77/2/2
f 63/2/2 70/2/2 78/2/2
f 70/1/2 71/1/2 79/1/2
f 78/2/2 70/2/2 79/2/2
f 71/1/2 72/1/2 79/1/2
f 72/2/2 73/2/2 80/2/2
f 79/1/2 72/1/2 80/1/2
f 75/1/2 76/1/2 81/1/2
f 80/2/2 73/2/2 81/2/2
f 73/1/2 74/1/2 81/1/2
f 76/1/2 77/1/2 81/1/2
f 74/1/2 75/1/2 81/1/2
f 63/2/2 78/2/2 82/2/2
f 79/1/2 80/1/2 83/1/2
f 78/1/2 79/1/2 83/1/2
f 80/1/2 81/1/2 83/1/2
f 83/1/2 81/1/2 84/1/2
f 78/1/2 83/1/2 85/1/2
f 83/2/2 84/2/2 85/2/2
f 84/1/2 81/1/2 86/1/2
f 85/2/2 84/2/2 86/2/2
f 82/2/2 78/2/2 87/2/2
f 78/1/2 85/1/2 88/1/2
f 87/2/2 78/2/2 88/2/2
f 85/1/2 86/1/2 88/1/2
f 87/1/2 88/1/2 89/1/2
f 88/1/2 86/1/2 90/1/2
f 89/1/2 88/1/2 90/1/2
f 89/2/2 90/2/2 91/2/2
f 90/1/2 86/1/2 92/1/2
f 91/2/2 90/2/2 92/2/2
f 91/1/2 92/1/2 93/1/2
f 86/1/2 81/1/2 94/1/2
f 93/1/2 92/1/2 94/1/2
f 92/1/2 86/1/2 94/1/2
f 94/1/2 81/1/2 95/1/2
f 95/1/2 81/1/2 96/1/2
f 96/1/2 81/1/2 97/1/2
f 81/1/2 77/1/2 98/1/2
f 97/1/2 81/1/2 98/1/2
f 98/1/2 77/1/2 99/1/2
f 99/1/2 77/1/2 100/1/2
f 93/2/2 94/2/2 101/2/2
f 94/1/2 95/1/2 102/1/2
f 101/2/2 94/2/2 102/2/2
f 95/2/2 96/2/2 103/2/2
f 102/1/2 95/1/2 103/1/2
f 96/1/2 97/1/2 104/1/2
f 103/2/2 96/2/2 104/2/2
f 97/2/2 98/2/2 105/2/2
f 104/1/2 97/1/2 105/1/2
f 98/1/2 99/1/2 106/1/2
f 105/2/2 98/2/2 106/2/2
f 99/2/2 100/2/2 107/2/2
f 106/1/2 99/1/2 107/1/2
f 100/1/2 77/1/2 108/1/2
f 107/2/2 100/2/2 108/2/2
f 77/1/2 69/1/2 109/1/2
f 108/1/2 77/1/2 109/1/2
f 110/1/2 111/1/2 112/1/2
f 112/1/2 111/1/2 113/1/2
f 124/2/3 115/2/3 114/2/3
f 125/1/3 116/1/3 115/1/3
f 125/2/3 115/2/3 124/2/3
f 126/2/3 117/2/3 116/2/3
f 126/1/3 116/1/3 125/1/3
f 127/1/3 118/1/3 117/1/3
f 127/2/3 117/2/3 126/2/3
f 128/2/3 119/2/3 118/2/3
f 128/1/3 118/1/3 127/1/3
f 129/1/3 120/1/3 119/1/3
f 129/2/3 119/2/3 128/2/3
f 130/2/3 121/2/3 120/2/3
f 130/1/3 120/1/3 129/1/3
f 131/1/3 122/1/3 121/1/3
f 131/2/3 121/2/3 130/2/3
f 132/2/3 123/2/3 122/2/3
f 132/1/3 122/1/3 131/1/3
f 133/2/3 123/2/3 132/2/3
f 134/2/3 124/2/3 114/2/3
f 135/1/3 131/1/3 130/1/3
f 135/2/3 124/2/3 134/2/3
f 135/1/3 125/1/3 124/1/3
f 135/1/3 133/1/3 132/1/3
f 135/1/3 132/1/3 131/1/3
f 135/1/3 130/1/3 129/1/3
f 135/1/3 129/1/3 128/1/3
f 135/1/3 128/1/3 127/1/3
f 135/1/3 127/1/3 126/1/3
f 135/1/3 126/1/3 125/1/3
f 136/1/3 133/1/3 135/1/3
f 137/2/3 123/2/3 133/2/3
f 137/1/3 133/1/3 136/1/3
f 138/2/3 134/2/3 114/2/3
f 139/2/3 134/2/3 138/2/3
f 140/1/3 136/1/3 135/1/3
f 140/1/3 135/1/3 134/1/3
f 141/1/3 136/1/3 140/1/3
f 142/2/3 134/2/3 139/2/3
f 142/1/3 139/1/3 138/1/3
f 143/1/3 140/1/3 134/1/3
f 143/2/3 134/2/3 142/2/3
f 144/2/3 141/2/3 140/2/3
f 144/1/3 140/1/3 143/1/3
f 145/1/3 136/1/3 141/1/3
f 145/2/3 141/2/3 144/2/3
f 146/1/3 144/1/3 143/1/3
f 146/1/3 143/1/3 142/1/3
f 146/1/3 145/1/3 144/1/3
f 147/1/3 145/1/3 146/1/3
f 148/1/3 145/1/3 147/1/3
f 149/1/3 136/1/3 145/1/3
f 149/1/3 145/1/3 148/1/3
f 149/2/3 137/2/3 136/2/3
f 150/2/3 123/2/3 137/2/3
f 150/2/3 137/2/3 149/2/3
f 151/4/3 147/4/3 146/4/3
f 151/1/3 146/1/3 142/1/3
f 152/3/3 148/3/3 147/3/3
f 152/4/3 147/4/3 151/4/3
f 153/1/3 149/1/3 148/1/3
f 153/3/3 148/3/3 152/3/3
f 153/1/3 150/1/3 149/1/3
f 154/1/3 152/1/3 151/1/3
f 154/1/3 150/1/3 153/1/3
f 154/1/3 153/1/3 152/1/3
f 154/2/3 123/2/3 150/2/3
f 155/2/3 123/2/3 154/2/3
f 156/1/3 154/1/3 151/1/3
f 156/1/3 155/1/3 154/1/3
f 157/1/3 155/1/3 156/1/3
f 158/2/3 138/2/3 114/2/3
f 159/1/3 151/1/3 142/1/3
f 159/2/3 138/2/3 158/2/3
f 159/1/3 142/1/3 138/1/3
f 159/1/3 156/1/3 151/1/3
f 160/1/3 156/1/3 159/1/3
f 161/1/3 156/1/3 160/1/3
f 162/1/3 159/1/3 158/1/3
f 162/1/3 160/1/3 159/1/3
f 162/2/3 161/2/3 160/2/3
f 163/1/3 156/1/3 161/1/3
f 163/2/3 161/2/3 162/2/3
f 164/2/3 157/2/3 156/2/3
f 164/1/3 156/1/3 163/1/3
f 164/1/3 163/1/3 162/1/3
f 165/2/3 157/2/3 164/2/3
f 166/1/3 162/1/3 158/1/3
f 166/1/3 164/1/3 162/1/3
f 166/1/3 165/1/3 164/1/3
f 167/1/3 165/1/3 166/1/3
f 168/1/3 165/1/3 167/1/3
f 169/1/3 165/1/3 168/1/3
f 170/2/3 167/2/3 166/2/3
f 171/1/3 168/1/3 167/1/3
f 171/2/3 167/2/3 170/2/3
f 172/1/3 168/1/3 171/1/3
f 173/1/3 168/1/3 172/1/3
f 174/1/3 168/1/3 173/1/3
f 175/1/3 168/1/3 174/1/3
f 176/2/3 169/2/3 168/2/3
f 176/1/3 168/1/3 175/1/3
f 177/1/3 165/1/3 169/1/3
f 177/2/3 169/2/3 176/2/3
f 178/1/3 171/1/3 170/1/3
f 178/1/3 172/1/3 171/1/3
f 179/1/3 172/1/3 178/1/3
f 180/2/3 173/2/3 172/2/3
f 180/1/3 172/1/3 179/1/3
f 181/4/3 174/4/3 173/4/3
f 181/2/3 173/2/3 180/2/3
f 182/3/3 175/3/3 174/3/3
f 182/4/3 174/4/3 181/4/3
f 183/1/3 176/1/3 175/1/3
f 183/3/3 175/3/3 182/3/3
f 183/1/3 177/1/3 176/1/3
f 184/2/3 179/2/3 178/2/3
f 185/1/3 182/1/3 181/1/3
f 185/2/3 179/2/3 184/2/3
f 185/1/3 181/1/3 180/1/3
f 185/1/3 183/1/3 182/1/3
f 185/1/3 180/1/3 179/1/3
f 186/1/3 185/1/3 184/1/3
f 187/1/3 183/1/3 185/1/3
f 187/1/3 185/1/3 186/1/3
f 188/2/3 187/2/3 186/2/3
f 189/1/3 183/1/3 187/1/3
f 189/2/3 187/2/3 188/2/3
f 190/1/3 177/1/3 183/1/3
f 190/1/3 183/1/3 189/1/3
f 191/1/3 177/1/3 190/1/3
f 192/1/3 177/1/3 191/1/3
f 193/1/3 177/1/3 192/1/3
f 194/1/3 189/1/3 188/1/3
f 194/1/3 190/1/3 189/1/3
f 194/2/3 191/2/3 190/2/3
f 195/4/3 192/4/3 191/4/3
f 195/2/3 191/2/3 194/2/3
f 196/3/3 193/3/3 192/3/3
f 196/4/3 192/4/3 195/4/3
f 197/1/3 177/1/3 193/1/3
f 197/3/3 193/3/3 196/3/3
f 198/1/3 177/1/3 197/1/3
f 199/4/3 197/4/3 196/4/3
f 199/3/3 198/3/3 197/3/3
f 200/3/3 198/3/3 199/3/3
f 201/1/3 177/1/3 198/1/3
f 201/3/3 198/3/3 200/3/3
f 202/1/3 177/1/3 201/1/3
f 203/2/3 196/2/3 195/2/3
f 203/1/3 195/1/3 194/1/3
f 204/4/3 200/4/3 199/4/3
f 204/2/3 196/2/3 203/2/3
f 204/4/3 199/4/3 196/4/3
f 205/4/3 200/4/3 204/4/3
f 206/3/3 202/3/3 201/3/3
f 206/4/3 200/4/3 205/4/3
f 206/3/3 201/3/3 200/3/3
f 207/1/3 177/1/3 202/1/3
f 207/3/3 202/3/3 206/3/3
f 208/1/3 177/1/3 207/1/3
f 209/2/3 205/2/3 204/2/3
f 209/1/3 204/1/3 203/1/3
f 210/3/3 206/3/3 205/3/3
f 210/2/3 205/2/3 209/2/3
f 210/3/3 208/3/3 207/3/3
f 210/3/3 207/3/3 206/3/3
f 211/3/3 208/3/3 210/3/3
f 212/3/3 208/3/3 211/3/3
f 213/3/3 208/3/3 212/3/3
f 214/3/3 208/3/3 213/3/3
f 215/3/3 208/3/3 214/3/3
f 216/1/3 210/1/3 209/1/3
f 216/2/3 211/2/3 210/2/3
f 217/4/3 212/4/3 211/4/3
f 217/2/3 211/2/3 216/2/3
f 218/3/3 213/3/3 212/3/3
f 218/4/3 212/4/3 217/4/3
f 219/4/3 214/4/3 213/4/3
f 219/3/3 213/3/3 218/3/3
f 220/1/3 215/1/3 214/1/3
f 220/4/3 214/4/3 219/4/3
f 221/3/3 208/3/3 215/3/3
f 221/1/3 215/1/3 220/1/3
f 222/1/3 177/1/3 208/1/3
f 222/3/3 208/3/3 221/3/3
f 223/1/3 209/1/3 203/1/3
f 223/1/3 221/1/3 220/1/3
f 223/1/3 222/1/3 221/1/3
f 223/1/3 218/1/3 217/1/3
f 223/1/3 217/1/3 216/1/3
f 223/1/3 216/1/3 209/1/3
f 223/1/3 219/1/3 218/1/3
f 223/1/3 220/1/3 219/1/3
f 223/1/3 203/1/3 194/1/3
f 223/1/3 194/1/3 188/1/3
f 224/1/3 177/1/3 222/1/3
f 224/1/3 222/1/3 223/1/3
f 224/1/3 165/1/3 177/1/3
f 225/2/4 226/2/4 232/2/4
f 226/1/4 227/1/4 233/1/4
f 232/2/4 226/2/4 233/2/4
f 227/1/4 228/1/4 233/1/4
f 229/1/4 230/1/4 233/1/4
f 228/1/4 229/1/4 233/1/4
f 233/1/4 230/1/4 234/1/4
f 230/2/4 231/2/4 235/2/4
f 234/1/4 230/1/4 235/1/4
f 225/2/4 232/2/4 236/2/4
f 236/2/4 232/2/4 237/2/4
f 233/1/4 234/1/4 238/1/4
f 232/1/4 233/1/4 238/1/4
f 238/1/4 234/1/4 239/1/4
f 237/2/4 232/2/4 240/2/4
f 236/1/4 237/1/4 240/1/4
f 232/1/4 238/1/4 241/1/4
f 240/2/4 232/2/4 241/2/4
f 238/2/4 239/2/4 242/2/4
f 241/1/4 238/1/4 242/1/4
f 239/1/4 234/1/4 243/1/4
f 242/2/4 239/2/4 243/2/4
f 241/1/4 242/1/4 244/1/4
f 240/1/4 241/1/4 244/1/4
f 242/1/4 243/1/4 244/1/4
f 244/1/4 243/1/4 245/1/4
f 245/1/4 243/1/4 246/1/4
f 243/1/4 234/1/4 247/1/4
f 246/1/4 243/1/4 247/1/4
f 234/2/4 235/2/4 247/2/4
f 235/2/4 231/2/4 248/2/4
f 247/2/4 235/2/4 248/2/4
f 244/4/4 245/4/4 249/4/4
f 240/1/4 244/1/4 249/1/4
f 245/3/4 246/3/4 250/3/4
f 249/4/4 245/4/4 250/4/4
f 246/1/4 247/1/4 251/1/4
f 250/3/4 246/3/4 251/3/4
f 247/1/4 248/1/4 251/1/4
f 249/1/4 250/1/4 252/1/4
f 251/1/4 248/1/4 252/1/4
f 250/1/4 251/1/4 252/1/4
f 248/2/4 231/2/4 252/2/4
f 252/2/4 231/2/4 253/2/4
f 249/1/4 252/1/4 254/1/4
f 252/1/4 253/1/4 254/1/4
f 254/1/4 253/1/4 255/1/4
f 225/2/4 236/2/4 256/2/4
f 240/1/4 249/1/4 257/1/4
f 256/2/4 236/2/4 257/2/4
f 236/1/4 240/1/4 257/1/4
f 249/1/4 254/1/4 257/1/4
f 257/1/4 254/1/4 258/1/4
f 258/1/4 254/1/4 259/1/4
f 256/1/4 257/1/4 260/1/4
f 257/1/4 258/1/4 260/1/4
f 258/2/4 259/2/4 260/2/4
f 259/1/4 254/1/4 261/1/4
f 260/2/4 259/2/4 261/2/4
f 254/2/4 255/2/4 262/2/4
f 261/1/4 254/1/4 262/1/4
f 260/1/4 261/1/4 262/1/4
f 262/2/4 255/2/4 263/2/4
f 256/1/4 260/1/4 264/1/4
f 260/1/4 262/1/4 264/1/4
f 262/1/4 263/1/4 264/1/4
f 264/1/4 263/1/4 265/1/4
f 265/1/4 263/1/4 266/1/4
f 266/1/4 263/1/4 267/1/4
f 264/2/4 265/2/4 268/2/4
f 265/1/4 266/1/4 269/1/4
f 268/2/4 265/2/4 269/2/4
f 269/1/4 266/1/4 270/1/4
f 270/1/4 266/1/4 271/1/4
f 271/1/4 266/1/4 272/1/4
f 272/1/4 266/1/4 273/1/4
f 266/2/4 267/2/4 274/2/4
f 273/1/4 266/1/4 274/1/4
f 267/1/4 263/1/4 275/1/4
f 274/2/4 267/2/4 275/2/4
f 268/1/4 269/1/4 276/1/4
f 269/1/4 270/1/4 276/1/4
f 276/1/4 270/1/4 277/1/4
f 270/2/4 271/2/4 278/2/4
f 277/1/4 270/1/4 278/1/4
f 271/4/4 272/4/4 279/4/4
f 278/2/4 271/2/4 279/2/4
f 272/3/4 273/3/4 280/3/4
f 279/4/4 272/4/4 280/4/4
f 273/1/4 274/1/4 281/1/4
f 280/3/4 273/3/4 281/3/4
f 274/1/4 275/1/4 281/1/4
f 276/2/4 277/2/4 282/2/4
f 279/1/4 280/1/4 283/1/4
f 282/2/4 277/2/4 283/2/4
f 278/1/4 279/1/4 283/1/4
f 280/1/4 281/1/4 283/1/4
f 277/1/4 278/1/4 283/1/4
f 282/1/4 283/1/4 284/1/4
f 283/1/4 281/1/4 285/1/4
f 284/1/4 283/1/4 285/1/4
f 284/2/4 285/2/4 286/2/4
f 285/1/4 281/1/4 287/1/4
f 286/2/4 285/2/4 287/2/4
f 281/1/4 275/1/4 288/1/4
f 287/1/4 281/1/4 288/1/4
f 288/1/4 275/1/4 289/1/4
f 289/1/4 275/1/4 290/1/4
f 290/1/4 275/1/4 291/1/4
f 286/1/4 287/1/4 292/1/4
f 287/1/4 288/1/4 292/1/4
f 288/2/4 289/2/4 292/2/4
f 289/4/4 290/4/4 293/4/4
f 292/2/4 289/2/4 293/2/4
f 290/3/4 291/3/4 294/3/4
f 293/4/4 290/4/4 294/4/4
f 291/1/4 275/1/4 295/1/4
f 294/3/4 291/3/4 295/3/4
f 295/1/4 275/1/4 296/1/4
f 294/4/4 295/4/4 297/4/4
f 295/3/4 296/3/4 297/3/4
f 297/3/4 296/3/4 298/3/4
f 296/1/4 275/1/4 299/1/4
f 298/3/4 296/3/4 299/3/4
f 299/1/4 275/1/4 300/1/4
f 293/2/4 294/2/4 301/2/4
f 292/1/4 293/1/4 301/1/4
f 297/4/4 298/4/4 302/4/4
f 301/2/4 294/2/4 302/2/4
f 294/4/4 297/4/4 302/4/4
f 302/4/4 298/4/4 303/4/4
f 299/3/4 300/3/4 304/3/4
f 303/4/4 298/4/4 304/4/4
f 298/3/4 299/3/4 304/3/4
f 300/1/4 275/1/4 305/1/4
f 304/3/4 300/3/4 305/3/4
f 305/1/4 275/1/4 306/1/4
f 302/2/4 303/2/4 307/2/4
f 301/1/4 302/1/4 307/1/4
f 303/3/4 304/3/4 308/3/4
f 307/2/4 303/2/4 308/2/4
f 305/3/4 306/3/4 308/3/4
f 304/3/4 305/3/4 308/3/4
f 308/3/4 306/3/4 309/3/4
f 309/3/4 306/3/4 310/3/4
f 310/3/4 306/3/4 311/3/4
f 311/3/4 306/3/4 312/3/4
f 312/3/4 306/3/4 313/3/4
f 307/1/4 308/1/4 314/1/4
f 308/2/4 309/2/4 314/2/4
f 309/4/4 310/4/4 315/4/4
f 314/2/4 309/2/4 315/2/4
f 310/3/4 311/3/4 316/3/4
f 315/4/4 310/4/4 316/4/4
f 311/4/4 312/4/4 317/4/4
f 316/3/4 311/3/4 317/3/4
f 312/1/4 313/1/4 318/1/4
f 317/4/4 312/4/4 318/4/4
f 313/3/4 306/3/4 319/3/4
f 318/1/4 313/1/4 319/1/4
f 306/1/4 275/1/4 320/1/4
f 319/3/4 306/3/4 320/3/4
f 301/1/4 307/1/4 321/1/4
f 318/1/4 319/1/4 321/1/4
f 319/1/4 320/1/4 321/1/4
f 315/1/4 316/1/4 321/1/4
f 314/1/4 315/1/4 321/1/4
f 307/1/4 314/1/4 321/1/4
f 316/1/4 317/1/4 321/1/4
f 317/1/4 318/1/4 321/1/4
f 292/1/4 301/1/4 321/1/4
f 286/1/4 292/1/4 321/1/4
f 320/1/4 275/1/4 322/1/4
f 321/1/4 320/1/4 322/1/4
f 275/1/4 263/1/4 322/1/4
f 323/1/4 324/1/4 325/1/4
f 325/1/4 324/1/4 326/1/4
f 336/2/5 328/2/5 327/2/5
f 337/1/5 329/1/5 328/1/5
f 337/2/5 328/2/5 336/2/5
f 338/2/5 330/2/5 329/2/5
f 338/1/5 329/1/5 337/1/5
f 339/1/5 331/1/5 330/1/5
f 339/2/5 330/2/5 338/2/5
f 340/2/5 332/2/5 331/2/5
f 340/1/5 331/1/5 339/1/5
f 341/1/5 333/1/5 332/1/5
f 341/2/5 332/2/5 340/2/5
f 342/2/5 334/2/5 333/2/5
f 342/1/5 333/1/5 341/1/5
f 343/1/5 335/1/5 334/1/5
f 343/2/5 334/2/5 342/2/5
f 344/1/5 335/1/5 343/1/5
f 345/2/5 336/2/5 327/2/5
f 346/2/5 336/2/5 345/2/5
f 347/1/5 346/1/5 345/1/5
f 348/1/5 346/1/5 347/1/5
f 349/2/5 348/2/5 347/2/5
f 350/2/5 348/2/5 349/2/5
f 351/1/5 350/1/5 349/1/5
f 352/1/5 350/1/5 351/1/5
f 353/2/5 352/2/5 351/2/5
f 354/2/5 352/2/5 353/2/5
f 355/1/5 354/1/5 353/1/5
f 356/1/5 354/1/5 355/1/5
f 357/2/6 358/2/6 362/2/6
f 358/1/6 359/1/6 363/1/6
f 362/2/6 358/2/6 363/2/6
f 359/2/6 360/2/6 364/2/6
f 363/1/6 359/1/6 364/1/6
f 360/1/6 361/1/6 365/1/6
f 364/2/6 360/2/6 365/2/6
f 365/1/6 361/1/6 366/1/6
f 357/2/6 362/2/6 367/2/6
f 367/2/6 362/2/6 368/2/6
f 367/1/6 368/1/6 369/1/6
f 369/1/6 368/1/6 370/1/6
f 369/2/6 370/2/6 371/2/6
f 371/2/6 370/2/6 372/2/6
f 371/1/6 372/1/6 373/1/6
f 373/1/6 372/1/6 374/1/6
f 373/2/6 374/2/6 375/2/6
f 375/2/6 374/2/6 376/2/6
f 375/1/6 376/1/6 377/1/6
f 377/1/6 376/1/6 378/1/6
f 377/2/6 378/2/6 379/2/6
f 379/2/6 378/2/6 380/2/6
f 379/1/6 380/1/6 381/1/6
f 381/1/6 380/1/6 382/1/6
