# MagicaVoxel @ Ephtracy

# group
g test-57

# material
mtllib test-57.mtl
usemtl palette

# normals
vn -1 0 0
vn 1 0 0
vn 0 0 1
vn 0 0 -1
vn 0 -1 0
vn 0 1 0

# texcoords
vt 0.939453 0.5
vt 0.943359 0.5
vt 0.970703 0.5
vt 0.978516 0.5

# verts
v -16 0 16
v -16 0 -16
v -16 5 15
v -16 5 14
v -16 5 -14
v -16 5 -15
v -16 6 15
v -16 6 14
v -16 6 -14
v -16 6 -15
v -16 11 16
v -16 11 15
v -16 11 -15
v -16 11 -16
v -16 13 15
v -16 13 14
v -16 13 -14
v -16 13 -15
v -16 14 10
v -16 14 9
v -16 14 -9
v -16 14 -10
v -16 15 10
v -16 15 9
v -16 15 -9
v -16 15 -10
v -16 16 16
v -16 16 14
v -16 16 -14
v -16 16 -16
v -16 17 15
v -16 17 13
v -16 17 -13
v -16 17 -15
v -16 19 5
v -16 19 4
v -16 19 -4
v -16 19 -5
v -16 20 16
v -16 20 15
v -16 20 13
v -16 20 12
v -16 20 -12
v -16 20 -13
v -16 20 -15
v -16 20 -16
v -16 21 16
v -16 21 15
v -16 21 14
v -16 21 13
v -16 21 5
v -16 21 4
v -16 21 -4
v -16 21 -5
v -16 21 -13
v -16 21 -14
v -16 21 -15
v -16 21 -16
v -16 22 14
v -16 22 13
v -16 22 12
v -16 22 11
v -16 22 -11
v -16 22 -12
v -16 22 -13
v -16 22 -14
v -16 23 16
v -16 23 15
v -16 23 11
v -16 23 -11
v -16 23 -15
v -16 23 -16
v -16 24 16
v -16 24 15
v -16 24 11
v -16 24 -11
v -16 24 -15
v -16 24 -16
v -16 25 16
v -16 25 15
v -16 25 -15
v -16 25 -16
v -16 26 13
v -16 26 12
v -16 26 11
v -16 26 10
v -16 26 -10
v -16 26 -11
v -16 26 -12
v -16 26 -13
v -16 27 13
v -16 27 12
v -16 27 9
v -16 27 8
v -16 27 -8
v -16 27 -9
v -16 27 -12
v -16 27 -13
v -16 28 15
v -16 28 14
v -16 28 11
v -16 28 10
v -16 28 9
v -16 28 8
v -16 28 -8
v -16 28 -9
v -16 28 -10
v -16 28 -11
v -16 28 -14
v -16 28 -15
v -16 29 14
v -16 29 11
v -16 29 -11
v -16 29 -14
v -16 30 15
v -16 30 14
v -16 30 10
v -16 30 -10
v -16 30 -14
v -16 30 -15
v -16 31 14
v -16 31 13
v -16 31 12
v -16 31 10
v -16 31 9
v -16 31 -9
v -16 31 -10
v -16 31 -12
v -16 31 -13
v -16 31 -14
v -16 32 16
v -16 32 13
v -16 32 12
v -16 32 9
v -16 32 -9
v -16 32 -12
v -16 32 -13
v -16 32 -16
v -15 0 15
v -15 0 -15
v -15 5 15
v -15 5 14
v -15 5 -14
v -15 5 -15
v -15 6 15
v -15 6 14
v -15 6 -14
v -15 6 -15
v -15 13 15
v -15 13 14
v -15 13 -14
v -15 13 -15
v -15 14 15
v -15 14 10
v -15 14 9
v -15 14 -9
v -15 14 -10
v -15 14 -15
v -15 15 10
v -15 15 9
v -15 15 -9
v -15 15 -10
v -15 16 15
v -15 16 14
v -15 16 -14
v -15 16 -15
v -15 17 15
v -15 17 13
v -15 17 -13
v -15 17 -15
v -15 19 5
v -15 19 4
v -15 19 -4
v -15 19 -5
v -15 20 13
v -15 20 12
v -15 20 -12
v -15 20 -13
v -15 21 14
v -15 21 13
v -15 21 5
v -15 21 4
v -15 21 -4
v -15 21 -5
v -15 21 -13
v -15 21 -14
v -15 22 14
v -15 22 13
v -15 22 12
v -15 22 11
v -15 22 -11
v -15 22 -12
v -15 22 -13
v -15 22 -14
v -15 23 15
v -15 23 11
v -15 23 -11
v -15 23 -15
v -15 24 15
v -15 24 11
v -15 24 -11
v -15 24 -15
v -15 26 13
v -15 26 12
v -15 26 11
v -15 26 10
v -15 26 -10
v -15 26 -11
v -15 26 -12
v -15 26 -13
v -15 27 13
v -15 27 12
v -15 27 9
v -15 27 8
v -15 27 -8
v -15 27 -9
v -15 27 -12
v -15 27 -13
v -15 28 15
v -15 28 14
v -15 28 11
v -15 28 10
v -15 28 9
v -15 28 8
v -15 28 -8
v -15 28 -9
v -15 28 -10
v -15 28 -11
v -15 28 -14
v -15 28 -15
v -15 29 15
v -15 29 14
v -15 29 11
v -15 29 -11
v -15 29 -14
v -15 29 -15
v -15 30 15
v -15 30 14
v -15 30 10
v -15 30 -10
v -15 30 -14
v -15 30 -15
v -15 31 14
v -15 31 13
v -15 31 12
v -15 31 10
v -15 31 9
v -15 31 -9
v -15 31 -10
v -15 31 -12
v -15 31 -13
v -15 31 -14
v -15 32 15
v -15 32 13
v -15 32 12
v -15 32 9
v -15 32 -9
v -15 32 -12
v -15 32 -13
v -15 32 -15
v 16 0 16
v 16 0 15
v 16 0 -15
v 16 0 -16
v 16 32 16
v 16 32 15
v 16 32 -15
v 16 32 -16
v -16 0 16
v -16 11 16
v -16 16 16
v -16 20 16
v -16 21 16
v -16 23 16
v -16 24 16
v -16 25 16
v -16 32 16
v -15 11 16
v -15 14 16
v -15 17 16
v -15 20 16
v -15 21 16
v -15 23 16
v -15 24 16
v -15 25 16
v -15 29 16
v -15 30 16
v -15 32 16
v -14 14 16
v -14 16 16
v -14 30 16
v -14 32 16
v -13 17 16
v -13 18 16
v -13 19 16
v -13 23 16
v -12 18 16
v -12 19 16
v -12 24 16
v -12 25 16
v -11 25 16
v -11 27 16
v -11 30 16
v -11 32 16
v -10 27 16
v -10 29 16
v 16 0 16
v 16 32 16
v -15 0 -15
v -15 5 -15
v -15 6 -15
v -15 13 -15
v -15 14 -15
v -15 16 -15
v -15 17 -15
v -15 23 -15
v -15 24 -15
v -15 28 -15
v -15 29 -15
v -15 30 -15
v -15 32 -15
v -14 14 -15
v -14 16 -15
v -14 30 -15
v -14 32 -15
v -13 17 -15
v -13 18 -15
v -13 19 -15
v -13 23 -15
v -12 18 -15
v -12 19 -15
v -12 24 -15
v -12 25 -15
v -11 25 -15
v -11 27 -15
v -11 30 -15
v -11 32 -15
v -10 27 -15
v -10 29 -15
v 16 0 -15
v 16 32 -15
v -15 0 15
v -15 5 15
v -15 6 15
v -15 13 15
v -15 14 15
v -15 16 15
v -15 17 15
v -15 23 15
v -15 24 15
v -15 28 15
v -15 29 15
v -15 30 15
v -15 32 15
v -14 14 15
v -14 16 15
v -14 30 15
v -14 32 15
v -13 17 15
v -13 18 15
v -13 19 15
v -13 23 15
v -12 18 15
v -12 19 15
v -12 24 15
v -12 25 15
v -11 25 15
v -11 27 15
v -11 30 15
v -11 32 15
v -10 27 15
v -10 29 15
v 16 0 15
v 16 32 15
v -16 0 -16
v -16 11 -16
v -16 16 -16
v -16 20 -16
v -16 21 -16
v -16 23 -16
v -16 24 -16
v -16 25 -16
v -16 32 -16
v -15 11 -16
v -15 14 -16
v -15 17 -16
v -15 20 -16
v -15 21 -16
v -15 23 -16
v -15 24 -16
v -15 25 -16
v -15 29 -16
v -15 30 -16
v -15 32 -16
v -14 14 -16
v -14 16 -16
v -14 30 -16
v -14 32 -16
v -13 17 -16
v -13 18 -16
v -13 19 -16
v -13 23 -16
v -12 18 -16
v -12 19 -16
v -12 24 -16
v -12 25 -16
v -11 25 -16
v -11 27 -16
v -11 30 -16
v -11 32 -16
v -10 27 -16
v -10 29 -16
v 16 0 -16
v 16 32 -16
v -16 0 16
v 16 0 16
v -15 0 15
v 16 0 15
v -15 0 -15
v 16 0 -15
v -16 0 -16
v 16 0 -16
v -16 32 16
v -15 32 16
v -14 32 16
v -11 32 16
v 16 32 16
v -15 32 15
v -14 32 15
v -11 32 15
v 16 32 15
v -16 32 13
v -15 32 13
v -16 32 12
v -15 32 12
v -16 32 9
v -15 32 9
v -16 32 -9
v -15 32 -9
v -16 32 -12
v -15 32 -12
v -16 32 -13
v -15 32 -13
v -15 32 -15
v -14 32 -15
v -11 32 -15
v 16 32 -15
v -16 32 -16
v -15 32 -16
v -14 32 -16
v -11 32 -16
v 16 32 -16

# faces
f 3/4/1 2/4/1 1/4/1
f 4/4/1 2/4/1 3/4/1
f 5/4/1 2/4/1 4/4/1
f 6/4/1 2/4/1 5/4/1
f 7/4/1 3/4/1 1/4/1
f 7/3/1 4/3/1 3/3/1
f 8/4/1 5/4/1 4/4/1
f 8/3/1 4/3/1 7/3/1
f 9/3/1 6/3/1 5/3/1
f 9/4/1 5/4/1 8/4/1
f 10/4/1 2/4/1 6/4/1
f 10/3/1 6/3/1 9/3/1
f 11/4/1 9/4/1 8/4/1
f 11/4/1 8/4/1 7/4/1
f 11/4/1 10/4/1 9/4/1
f 11/4/1 7/4/1 1/4/1
f 12/4/1 10/4/1 11/4/1
f 13/4/1 2/4/1 10/4/1
f 13/4/1 10/4/1 12/4/1
f 14/4/1 2/4/1 13/4/1
f 15/3/1 12/3/1 11/3/1
f 15/4/1 13/4/1 12/4/1
f 16/4/1 13/4/1 15/4/1
f 17/4/1 13/4/1 16/4/1
f 18/3/1 14/3/1 13/3/1
f 18/4/1 13/4/1 17/4/1
f 19/4/1 17/4/1 16/4/1
f 20/4/1 17/4/1 19/4/1
f 21/4/1 17/4/1 20/4/1
f 22/4/1 17/4/1 21/4/1
f 23/4/1 19/4/1 16/4/1
f 23/3/1 20/3/1 19/3/1
f 24/4/1 21/4/1 20/4/1
f 24/3/1 20/3/1 23/3/1
f 25/3/1 22/3/1 21/3/1
f 25/4/1 21/4/1 24/4/1
f 26/4/1 17/4/1 22/4/1
f 26/3/1 22/3/1 25/3/1
f 27/3/1 15/3/1 11/3/1
f 27/3/1 16/3/1 15/3/1
f 28/4/1 26/4/1 25/4/1
f 28/3/1 16/3/1 27/3/1
f 28/4/1 25/4/1 24/4/1
f 28/4/1 23/4/1 16/4/1
f 28/4/1 24/4/1 23/4/1
f 29/4/1 17/4/1 26/4/1
f 29/4/1 26/4/1 28/4/1
f 29/3/1 18/3/1 17/3/1
f 30/3/1 14/3/1 18/3/1
f 30/3/1 18/3/1 29/3/1
f 31/4/1 29/4/1 28/4/1
f 31/4/1 28/4/1 27/4/1
f 31/4/1 30/4/1 29/4/1
f 32/4/1 30/4/1 31/4/1
f 33/4/1 30/4/1 32/4/1
f 34/4/1 30/4/1 33/4/1
f 35/4/1 33/4/1 32/4/1
f 36/4/1 33/4/1 35/4/1
f 37/4/1 33/4/1 36/4/1
f 38/4/1 33/4/1 37/4/1
f 39/4/1 31/4/1 27/4/1
f 40/3/1 32/3/1 31/3/1
f 40/4/1 31/4/1 39/4/1
f 41/4/1 35/4/1 32/4/1
f 41/3/1 32/3/1 40/3/1
f 42/4/1 35/4/1 41/4/1
f 43/4/1 33/4/1 38/4/1
f 44/3/1 34/3/1 33/3/1
f 44/4/1 33/4/1 43/4/1
f 45/4/1 30/4/1 34/4/1
f 45/3/1 34/3/1 44/3/1
f 46/4/1 30/4/1 45/4/1
f 47/1/1 40/1/1 39/1/1
f 48/3/1 41/3/1 40/3/1
f 48/1/1 40/1/1 47/1/1
f 48/3/1 42/3/1 41/3/1
f 49/3/1 42/3/1 48/3/1
f 50/3/1 42/3/1 49/3/1
f 51/4/1 35/4/1 42/4/1
f 51/3/1 36/3/1 35/3/1
f 52/4/1 37/4/1 36/4/1
f 52/3/1 36/3/1 51/3/1
f 53/3/1 38/3/1 37/3/1
f 53/4/1 37/4/1 52/4/1
f 54/4/1 43/4/1 38/4/1
f 54/3/1 38/3/1 53/3/1
f 55/3/1 44/3/1 43/3/1
f 55/3/1 45/3/1 44/3/1
f 56/3/1 45/3/1 55/3/1
f 57/1/1 46/1/1 45/1/1
f 57/3/1 45/3/1 56/3/1
f 58/1/1 46/1/1 57/1/1
f 59/4/1 50/4/1 49/4/1
f 59/3/1 49/3/1 48/3/1
f 60/3/1 42/3/1 50/3/1
f 60/4/1 50/4/1 59/4/1
f 61/4/1 53/4/1 52/4/1
f 61/3/1 42/3/1 60/3/1
f 61/4/1 51/4/1 42/4/1
f 61/4/1 52/4/1 51/4/1
f 61/4/1 54/4/1 53/4/1
f 62/4/1 54/4/1 61/4/1
f 63/4/1 43/4/1 54/4/1
f 63/4/1 54/4/1 62/4/1
f 64/3/1 55/3/1 43/3/1
f 64/4/1 43/4/1 63/4/1
f 65/4/1 56/4/1 55/4/1
f 65/3/1 55/3/1 64/3/1
f 66/3/1 57/3/1 56/3/1
f 66/4/1 56/4/1 65/4/1
f 67/4/1 48/4/1 47/4/1
f 68/3/1 59/3/1 48/3/1
f 68/4/1 48/4/1 67/4/1
f 68/3/1 62/3/1 61/3/1
f 68/3/1 60/3/1 59/3/1
f 68/3/1 61/3/1 60/3/1
f 69/4/1 63/4/1 62/4/1
f 69/3/1 62/3/1 68/3/1
f 70/3/1 66/3/1 65/3/1
f 70/4/1 63/4/1 69/4/1
f 70/3/1 65/3/1 64/3/1
f 70/3/1 64/3/1 63/3/1
f 71/3/1 57/3/1 66/3/1
f 71/3/1 66/3/1 70/3/1
f 71/4/1 58/4/1 57/4/1
f 72/4/1 58/4/1 71/4/1
f 73/1/1 68/1/1 67/1/1
f 74/4/1 69/4/1 68/4/1
f 74/1/1 68/1/1 73/1/1
f 74/4/1 70/4/1 69/4/1
f 74/4/1 71/4/1 70/4/1
f 75/4/1 71/4/1 74/4/1
f 76/4/1 71/4/1 75/4/1
f 77/1/1 72/1/1 71/1/1
f 77/4/1 71/4/1 76/4/1
f 78/1/1 72/1/1 77/1/1
f 79/2/1 74/2/1 73/2/1
f 80/3/1 75/3/1 74/3/1
f 80/2/1 74/2/1 79/2/1
f 81/3/1 77/3/1 76/3/1
f 81/2/1 78/2/1 77/2/1
f 82/2/1 78/2/1 81/2/1
f 83/3/1 75/3/1 80/3/1
f 84/3/1 75/3/1 83/3/1
f 85/4/1 76/4/1 75/4/1
f 85/3/1 75/3/1 84/3/1
f 86/4/1 76/4/1 85/4/1
f 87/4/1 76/4/1 86/4/1
f 88/3/1 81/3/1 76/3/1
f 88/4/1 76/4/1 87/4/1
f 89/3/1 81/3/1 88/3/1
f 90/3/1 81/3/1 89/3/1
f 91/4/1 84/4/1 83/4/1
f 91/3/1 83/3/1 80/3/1
f 92/3/1 85/3/1 84/3/1
f 92/4/1 84/4/1 91/4/1
f 92/3/1 86/3/1 85/3/1
f 93/4/1 87/4/1 86/4/1
f 94/4/1 87/4/1 93/4/1
f 95/4/1 87/4/1 94/4/1
f 96/4/1 87/4/1 95/4/1
f 97/4/1 90/4/1 89/4/1
f 97/3/1 89/3/1 88/3/1
f 97/3/1 88/3/1 87/3/1
f 98/3/1 81/3/1 90/3/1
f 98/4/1 90/4/1 97/4/1
f 99/1/1 80/1/1 79/1/1
f 99/3/1 91/3/1 80/3/1
f 99/3/1 92/3/1 91/3/1
f 100/3/1 92/3/1 99/3/1
f 101/3/1 86/3/1 92/3/1
f 101/3/1 92/3/1 100/3/1
f 102/4/1 93/4/1 86/4/1
f 102/3/1 86/3/1 101/3/1
f 103/3/1 94/3/1 93/3/1
f 103/4/1 93/4/1 102/4/1
f 104/4/1 95/4/1 94/4/1
f 104/3/1 94/3/1 103/3/1
f 105/3/1 96/3/1 95/3/1
f 105/4/1 95/4/1 104/4/1
f 106/4/1 87/4/1 96/4/1
f 106/3/1 96/3/1 105/3/1
f 107/3/1 97/3/1 87/3/1
f 107/4/1 87/4/1 106/4/1
f 107/3/1 98/3/1 97/3/1
f 108/3/1 98/3/1 107/3/1
f 109/3/1 81/3/1 98/3/1
f 109/3/1 98/3/1 108/3/1
f 110/1/1 82/1/1 81/1/1
f 110/3/1 81/3/1 109/3/1
f 111/2/1 100/2/1 99/2/1
f 111/3/1 101/3/1 100/3/1
f 112/4/1 106/4/1 105/4/1
f 112/3/1 101/3/1 111/3/1
f 112/4/1 108/4/1 107/4/1
f 112/4/1 107/4/1 106/4/1
f 112/4/1 105/4/1 104/4/1
f 112/4/1 102/4/1 101/4/1
f 112/4/1 103/4/1 102/4/1
f 112/4/1 104/4/1 103/4/1
f 113/3/1 109/3/1 108/3/1
f 113/4/1 108/4/1 112/4/1
f 114/2/1 110/2/1 109/2/1
f 114/3/1 109/3/1 113/3/1
f 115/2/1 111/2/1 99/2/1
f 115/1/1 99/1/1 79/1/1
f 116/4/1 113/4/1 112/4/1
f 116/2/1 111/2/1 115/2/1
f 116/4/1 112/4/1 111/4/1
f 116/4/1 114/4/1 113/4/1
f 117/4/1 114/4/1 116/4/1
f 118/4/1 114/4/1 117/4/1
f 119/2/1 110/2/1 114/2/1
f 119/4/1 114/4/1 118/4/1
f 120/1/1 82/1/1 110/1/1
f 120/2/1 110/2/1 119/2/1
f 121/1/1 116/1/1 115/1/1
f 121/3/1 117/3/1 116/3/1
f 122/3/1 117/3/1 121/3/1
f 123/3/1 117/3/1 122/3/1
f 124/4/1 118/4/1 117/4/1
f 124/3/1 117/3/1 123/3/1
f 125/4/1 118/4/1 124/4/1
f 126/4/1 118/4/1 125/4/1
f 127/3/1 119/3/1 118/3/1
f 127/4/1 118/4/1 126/4/1
f 128/3/1 119/3/1 127/3/1
f 129/3/1 119/3/1 128/3/1
f 130/1/1 120/1/1 119/1/1
f 130/3/1 119/3/1 129/3/1
f 131/1/1 115/1/1 79/1/1
f 131/1/1 121/1/1 115/1/1
f 131/1/1 122/1/1 121/1/1
f 132/2/1 123/2/1 122/2/1
f 132/1/1 122/1/1 131/1/1
f 133/3/1 124/3/1 123/3/1
f 133/2/1 123/2/1 132/2/1
f 133/3/1 125/3/1 124/3/1
f 134/4/1 126/4/1 125/4/1
f 134/3/1 125/3/1 133/3/1
f 135/3/1 128/3/1 127/3/1
f 135/4/1 126/4/1 134/4/1
f 135/3/1 127/3/1 126/3/1
f 136/2/1 129/2/1 128/2/1
f 136/3/1 128/3/1 135/3/1
f 137/1/1 130/1/1 129/1/1
f 137/2/1 129/2/1 136/2/1
f 138/1/1 120/1/1 130/1/1
f 138/1/1 130/1/1 137/1/1
f 138/1/1 82/1/1 120/1/1
f 139/4/2 140/4/2 141/4/2
f 141/4/2 140/4/2 142/4/2
f 142/4/2 140/4/2 143/4/2
f 143/4/2 140/4/2 144/4/2
f 141/3/2 142/3/2 145/3/2
f 142/4/2 143/4/2 146/4/2
f 145/3/2 142/3/2 146/3/2
f 143/3/2 144/3/2 147/3/2
f 146/4/2 143/4/2 147/4/2
f 147/3/2 144/3/2 148/3/2
f 145/4/2 146/4/2 149/4/2
f 146/4/2 147/4/2 149/4/2
f 147/4/2 148/4/2 149/4/2
f 149/4/2 148/4/2 150/4/2
f 150/4/2 148/4/2 151/4/2
f 151/4/2 148/4/2 152/4/2
f 149/3/2 150/3/2 153/3/2
f 150/4/2 151/4/2 154/4/2
f 154/4/2 151/4/2 155/4/2
f 155/4/2 151/4/2 156/4/2
f 156/4/2 151/4/2 157/4/2
f 151/3/2 152/3/2 158/3/2
f 150/4/2 154/4/2 159/4/2
f 154/3/2 155/3/2 159/3/2
f 155/4/2 156/4/2 160/4/2
f 159/3/2 155/3/2 160/3/2
f 156/3/2 157/3/2 161/3/2
f 160/4/2 156/4/2 161/4/2
f 157/4/2 151/4/2 162/4/2
f 161/3/2 157/3/2 162/3/2
f 153/3/2 150/3/2 163/3/2
f 160/4/2 161/4/2 164/4/2
f 163/3/2 150/3/2 164/3/2
f 150/4/2 159/4/2 164/4/2
f 161/4/2 162/4/2 164/4/2
f 159/4/2 160/4/2 164/4/2
f 162/4/2 151/4/2 165/4/2
f 164/4/2 162/4/2 165/4/2
f 151/3/2 158/3/2 165/3/2
f 165/3/2 158/3/2 166/3/2
f 163/4/2 164/4/2 167/4/2
f 164/4/2 165/4/2 167/4/2
f 165/4/2 166/4/2 167/4/2
f 167/4/2 166/4/2 168/4/2
f 168/4/2 166/4/2 169/4/2
f 169/4/2 166/4/2 170/4/2
f 168/4/2 169/4/2 171/4/2
f 171/4/2 169/4/2 172/4/2
f 172/4/2 169/4/2 173/4/2
f 173/4/2 169/4/2 174/4/2
f 167/3/2 168/3/2 175/3/2
f 168/4/2 171/4/2 175/4/2
f 175/4/2 171/4/2 176/4/2
f 174/4/2 169/4/2 177/4/2
f 169/3/2 170/3/2 178/3/2
f 177/4/2 169/4/2 178/4/2
f 167/3/2 175/3/2 179/3/2
f 175/3/2 176/3/2 179/3/2
f 179/3/2 176/3/2 180/3/2
f 176/4/2 171/4/2 181/4/2
f 171/3/2 172/3/2 181/3/2
f 172/4/2 173/4/2 182/4/2
f 181/3/2 172/3/2 182/3/2
f 173/3/2 174/3/2 183/3/2
f 182/4/2 173/4/2 183/4/2
f 174/4/2 177/4/2 184/4/2
f 183/3/2 174/3/2 184/3/2
f 178/3/2 170/3/2 185/3/2
f 177/3/2 178/3/2 185/3/2
f 185/3/2 170/3/2 186/3/2
f 179/4/2 180/4/2 187/4/2
f 167/3/2 179/3/2 187/3/2
f 180/3/2 176/3/2 188/3/2
f 187/4/2 180/4/2 188/4/2
f 182/4/2 183/4/2 189/4/2
f 188/3/2 176/3/2 189/3/2
f 181/4/2 182/4/2 189/4/2
f 176/4/2 181/4/2 189/4/2
f 183/4/2 184/4/2 189/4/2
f 189/4/2 184/4/2 190/4/2
f 184/4/2 177/4/2 191/4/2
f 190/4/2 184/4/2 191/4/2
f 177/3/2 185/3/2 192/3/2
f 191/4/2 177/4/2 192/4/2
f 185/4/2 186/4/2 193/4/2
f 192/3/2 185/3/2 193/3/2
f 186/3/2 170/3/2 194/3/2
f 193/4/2 186/4/2 194/4/2
f 167/3/2 187/3/2 195/3/2
f 187/3/2 188/3/2 195/3/2
f 189/3/2 190/3/2 195/3/2
f 188/3/2 189/3/2 195/3/2
f 190/4/2 191/4/2 196/4/2
f 195/3/2 190/3/2 196/3/2
f 193/3/2 194/3/2 197/3/2
f 196/4/2 191/4/2 197/4/2
f 192/3/2 193/3/2 197/3/2
f 191/3/2 192/3/2 197/3/2
f 194/3/2 170/3/2 198/3/2
f 197/3/2 194/3/2 198/3/2
f 196/4/2 197/4/2 199/4/2
f 195/4/2 196/4/2 199/4/2
f 197/4/2 198/4/2 199/4/2
f 199/4/2 198/4/2 200/4/2
f 200/4/2 198/4/2 201/4/2
f 201/4/2 198/4/2 202/4/2
f 199/3/2 200/3/2 203/3/2
f 203/3/2 200/3/2 204/3/2
f 200/4/2 201/4/2 205/4/2
f 204/3/2 200/3/2 205/3/2
f 205/4/2 201/4/2 206/4/2
f 206/4/2 201/4/2 207/4/2
f 201/3/2 202/3/2 208/3/2
f 207/4/2 201/4/2 208/4/2
f 208/3/2 202/3/2 209/3/2
f 209/3/2 202/3/2 210/3/2
f 203/4/2 204/4/2 211/4/2
f 199/3/2 203/3/2 211/3/2
f 204/3/2 205/3/2 212/3/2
f 211/4/2 204/4/2 212/4/2
f 205/3/2 206/3/2 212/3/2
f 206/4/2 207/4/2 213/4/2
f 213/4/2 207/4/2 214/4/2
f 214/4/2 207/4/2 215/4/2
f 215/4/2 207/4/2 216/4/2
f 209/4/2 210/4/2 217/4/2
f 208/3/2 209/3/2 217/3/2
f 207/3/2 208/3/2 217/3/2
f 210/3/2 202/3/2 218/3/2
f 217/4/2 210/4/2 218/4/2
f 199/3/2 211/3/2 219/3/2
f 211/3/2 212/3/2 219/3/2
f 219/3/2 212/3/2 220/3/2
f 212/3/2 206/3/2 221/3/2
f 220/3/2 212/3/2 221/3/2
f 206/4/2 213/4/2 222/4/2
f 221/3/2 206/3/2 222/3/2
f 213/3/2 214/3/2 223/3/2
f 222/4/2 213/4/2 223/4/2
f 214/4/2 215/4/2 224/4/2
f 223/3/2 214/3/2 224/3/2
f 215/3/2 216/3/2 225/3/2
f 224/4/2 215/4/2 225/4/2
f 216/4/2 207/4/2 226/4/2
f 225/3/2 216/3/2 226/3/2
f 207/3/2 217/3/2 227/3/2
f 226/4/2 207/4/2 227/4/2
f 217/3/2 218/3/2 227/3/2
f 227/3/2 218/3/2 228/3/2
f 218/3/2 202/3/2 229/3/2
f 228/3/2 218/3/2 229/3/2
f 229/3/2 202/3/2 230/3/2
f 219/2/2 220/2/2 231/2/2
f 220/3/2 221/3/2 232/3/2
f 231/2/2 220/2/2 232/2/2
f 225/4/2 226/4/2 233/4/2
f 232/3/2 221/3/2 233/3/2
f 224/4/2 225/4/2 233/4/2
f 227/4/2 228/4/2 233/4/2
f 223/4/2 224/4/2 233/4/2
f 226/4/2 227/4/2 233/4/2
f 221/4/2 222/4/2 233/4/2
f 222/4/2 223/4/2 233/4/2
f 228/3/2 229/3/2 234/3/2
f 233/4/2 228/4/2 234/4/2
f 229/2/2 230/2/2 235/2/2
f 234/3/2 229/3/2 235/3/2
f 235/2/2 230/2/2 236/2/2
f 231/2/2 232/2/2 237/2/2
f 233/4/2 234/4/2 238/4/2
f 237/2/2 232/2/2 238/2/2
f 232/4/2 233/4/2 238/4/2
f 234/4/2 235/4/2 238/4/2
f 238/4/2 235/4/2 239/4/2
f 239/4/2 235/4/2 240/4/2
f 235/2/2 236/2/2 241/2/2
f 240/4/2 235/4/2 241/4/2
f 241/2/2 236/2/2 242/2/2
f 237/1/2 238/1/2 243/1/2
f 238/3/2 239/3/2 243/3/2
f 243/3/2 239/3/2 244/3/2
f 244/3/2 239/3/2 245/3/2
f 239/4/2 240/4/2 246/4/2
f 245/3/2 239/3/2 246/3/2
f 246/4/2 240/4/2 247/4/2
f 247/4/2 240/4/2 248/4/2
f 240/3/2 241/3/2 249/3/2
f 248/4/2 240/4/2 249/4/2
f 249/3/2 241/3/2 250/3/2
f 250/3/2 241/3/2 251/3/2
f 241/1/2 242/1/2 252/1/2
f 251/3/2 241/3/2 252/3/2
f 237/1/2 243/1/2 253/1/2
f 243/1/2 244/1/2 253/1/2
f 244/2/2 245/2/2 254/2/2
f 253/1/2 244/1/2 254/1/2
f 245/3/2 246/3/2 255/3/2
f 254/2/2 245/2/2 255/2/2
f 246/3/2 247/3/2 255/3/2
f 247/4/2 248/4/2 256/4/2
f 255/3/2 247/3/2 256/3/2
f 249/3/2 250/3/2 257/3/2
f 256/4/2 248/4/2 257/4/2
f 248/3/2 249/3/2 257/3/2
f 250/2/2 251/2/2 258/2/2
f 257/3/2 250/3/2 258/3/2
f 251/1/2 252/1/2 259/1/2
f 258/2/2 251/2/2 259/2/2
f 252/1/2 242/1/2 260/1/2
f 259/1/2 252/1/2 260/1/2
f 261/4/2 262/4/2 265/4/2
f 265/4/2 262/4/2 266/4/2
f 263/4/2 264/4/2 267/4/2
f 267/4/2 264/4/2 268/4/2
f 278/4/3 270/4/3 269/4/3
f 278/3/3 271/3/3 270/3/3
f 279/3/3 271/3/3 278/3/3
f 280/4/3 272/4/3 271/4/3
f 281/1/3 273/1/3 272/1/3
f 281/4/3 272/4/3 280/4/3
f 282/4/3 274/4/3 273/4/3
f 282/1/3 273/1/3 281/1/3
f 283/1/3 275/1/3 274/1/3
f 283/4/3 274/4/3 282/4/3
f 284/2/3 276/2/3 275/2/3
f 284/1/3 275/1/3 283/1/3
f 285/1/3 277/1/3 276/1/3
f 285/2/3 276/2/3 284/2/3
f 286/1/3 277/1/3 285/1/3
f 287/1/3 277/1/3 286/1/3
f 288/1/3 277/1/3 287/1/3
f 289/3/3 271/3/3 279/3/3
f 289/4/3 279/4/3 278/4/3
f 290/4/3 280/4/3 271/4/3
f 290/3/3 271/3/3 289/3/3
f 291/2/3 288/2/3 287/2/3
f 291/4/3 287/4/3 286/4/3
f 292/2/3 288/2/3 291/2/3
f 293/3/3 283/3/3 282/3/3
f 293/3/3 281/3/3 280/3/3
f 293/3/3 282/3/3 281/3/3
f 293/4/3 280/4/3 290/4/3
f 293/4/3 290/4/3 289/4/3
f 294/3/3 283/3/3 293/3/3
f 295/3/3 283/3/3 294/3/3
f 296/4/3 284/4/3 283/4/3
f 296/3/3 283/3/3 295/3/3
f 297/3/3 295/3/3 294/3/3
f 297/4/3 294/4/3 293/4/3
f 298/4/3 296/4/3 295/4/3
f 298/3/3 295/3/3 297/3/3
f 299/4/3 284/4/3 296/4/3
f 299/4/3 296/4/3 298/4/3
f 299/3/3 286/3/3 285/3/3
f 299/3/3 285/3/3 284/3/3
f 300/3/3 286/3/3 299/3/3
f 301/4/3 298/4/3 297/4/3
f 301/3/3 286/3/3 300/3/3
f 301/4/3 300/4/3 299/4/3
f 301/4/3 299/4/3 298/4/3
f 302/3/3 286/3/3 301/3/3
f 303/3/3 292/3/3 291/3/3
f 303/4/3 291/4/3 286/4/3
f 304/3/3 292/3/3 303/3/3
f 305/3/3 286/3/3 302/3/3
f 305/4/3 302/4/3 301/4/3
f 306/4/3 304/4/3 303/4/3
f 306/3/3 286/3/3 305/3/3
f 306/4/3 303/4/3 286/4/3
f 307/4/3 293/4/3 289/4/3
f 307/4/3 289/4/3 278/4/3
f 307/4/3 306/4/3 305/4/3
f 307/4/3 301/4/3 297/4/3
f 307/4/3 297/4/3 293/4/3
f 307/4/3 278/4/3 269/4/3
f 307/4/3 305/4/3 301/4/3
f 308/4/3 304/4/3 306/4/3
f 308/4/3 306/4/3 307/4/3
f 322/4/3 310/4/3 309/4/3
f 322/4/3 311/4/3 310/4/3
f 322/4/3 312/4/3 311/4/3
f 322/4/3 313/4/3 312/4/3
f 322/3/3 314/3/3 313/3/3
f 323/4/3 315/4/3 314/4/3
f 323/3/3 314/3/3 322/3/3
f 324/2/3 321/2/3 320/2/3
f 324/4/3 320/4/3 319/4/3
f 325/2/3 321/2/3 324/2/3
f 326/4/3 315/4/3 323/4/3
f 326/4/3 323/4/3 322/4/3
f 326/3/3 316/3/3 315/3/3
f 327/3/3 316/3/3 326/3/3
f 328/3/3 316/3/3 327/3/3
f 329/4/3 317/4/3 316/4/3
f 329/3/3 316/3/3 328/3/3
f 330/3/3 328/3/3 327/3/3
f 330/4/3 327/4/3 326/4/3
f 331/4/3 329/4/3 328/4/3
f 331/3/3 328/3/3 330/3/3
f 332/3/3 319/3/3 318/3/3
f 332/4/3 329/4/3 331/4/3
f 332/3/3 318/3/3 317/3/3
f 332/4/3 317/4/3 329/4/3
f 333/3/3 319/3/3 332/3/3
f 334/4/3 331/4/3 330/4/3
f 334/3/3 319/3/3 333/3/3
f 334/4/3 333/4/3 332/4/3
f 334/4/3 332/4/3 331/4/3
f 335/3/3 319/3/3 334/3/3
f 336/3/3 325/3/3 324/3/3
f 336/4/3 324/4/3 319/4/3
f 337/3/3 325/3/3 336/3/3
f 338/3/3 319/3/3 335/3/3
f 338/4/3 335/4/3 334/4/3
f 339/4/3 337/4/3 336/4/3
f 339/3/3 319/3/3 338/3/3
f 339/4/3 336/4/3 319/4/3
f 340/4/3 338/4/3 334/4/3
f 340/4/3 330/4/3 326/4/3
f 340/4/3 339/4/3 338/4/3
f 340/4/3 334/4/3 330/4/3
f 340/4/3 322/4/3 309/4/3
f 340/4/3 326/4/3 322/4/3
f 341/4/3 337/4/3 339/4/3
f 341/4/3 339/4/3 340/4/3
f 342/4/4 343/4/4 355/4/4
f 343/4/4 344/4/4 355/4/4
f 344/4/4 345/4/4 355/4/4
f 345/4/4 346/4/4 355/4/4
f 346/3/4 347/3/4 355/3/4
f 347/4/4 348/4/4 356/4/4
f 355/3/4 347/3/4 356/3/4
f 353/2/4 354/2/4 357/2/4
f 352/4/4 353/4/4 357/4/4
f 357/2/4 354/2/4 358/2/4
f 356/4/4 348/4/4 359/4/4
f 355/4/4 356/4/4 359/4/4
f 348/3/4 349/3/4 359/3/4
f 359/3/4 349/3/4 360/3/4
f 360/3/4 349/3/4 361/3/4
f 349/4/4 350/4/4 362/4/4
f 361/3/4 349/3/4 362/3/4
f 360/3/4 361/3/4 363/3/4
f 359/4/4 360/4/4 363/4/4
f 361/4/4 362/4/4 364/4/4
f 363/3/4 361/3/4 364/3/4
f 351/3/4 352/3/4 365/3/4
f 364/4/4 362/4/4 365/4/4
f 350/3/4 351/3/4 365/3/4
f 362/4/4 350/4/4 365/4/4
f 365/3/4 352/3/4 366/3/4
f 363/4/4 364/4/4 367/4/4
f 366/3/4 352/3/4 367/3/4
f 365/4/4 366/4/4 367/4/4
f 364/4/4 365/4/4 367/4/4
f 367/3/4 352/3/4 368/3/4
f 357/3/4 358/3/4 369/3/4
f 352/4/4 357/4/4 369/4/4
f 369/3/4 358/3/4 370/3/4
f 368/3/4 352/3/4 371/3/4
f 367/4/4 368/4/4 371/4/4
f 369/4/4 370/4/4 372/4/4
f 371/3/4 352/3/4 372/3/4
f 352/4/4 369/4/4 372/4/4
f 367/4/4 371/4/4 373/4/4
f 359/4/4 363/4/4 373/4/4
f 371/4/4 372/4/4 373/4/4
f 363/4/4 367/4/4 373/4/4
f 342/4/4 355/4/4 373/4/4
f 355/4/4 359/4/4 373/4/4
f 372/4/4 370/4/4 374/4/4
f 373/4/4 372/4/4 374/4/4
f 375/4/4 376/4/4 384/4/4
f 376/3/4 377/3/4 384/3/4
f 384/3/4 377/3/4 385/3/4
f 377/4/4 378/4/4 386/4/4
f 378/1/4 379/1/4 387/1/4
f 386/4/4 378/4/4 387/4/4
f 379/4/4 380/4/4 388/4/4
f 387/1/4 379/1/4 388/1/4
f 380/1/4 381/1/4 389/1/4
f 388/4/4 380/4/4 389/4/4
f 381/2/4 382/2/4 390/2/4
f 389/1/4 381/1/4 390/1/4
f 382/1/4 383/1/4 391/1/4
f 390/2/4 382/2/4 391/2/4
f 391/1/4 383/1/4 392/1/4
f 392/1/4 383/1/4 393/1/4
f 393/1/4 383/1/4 394/1/4
f 385/3/4 377/3/4 395/3/4
f 384/4/4 385/4/4 395/4/4
f 377/4/4 386/4/4 396/4/4
f 395/3/4 377/3/4 396/3/4
f 393/2/4 394/2/4 397/2/4
f 392/4/4 393/4/4 397/4/4
f 397/2/4 394/2/4 398/2/4
f 388/3/4 389/3/4 399/3/4
f 386/3/4 387/3/4 399/3/4
f 387/3/4 388/3/4 399/3/4
f 396/4/4 386/4/4 399/4/4
f 395/4/4 396/4/4 399/4/4
f 399/3/4 389/3/4 400/3/4
f 400/3/4 389/3/4 401/3/4
f 389/4/4 390/4/4 402/4/4
f 401/3/4 389/3/4 402/3/4
f 400/3/4 401/3/4 403/3/4
f 399/4/4 400/4/4 403/4/4
f 401/4/4 402/4/4 404/4/4
f 403/3/4 401/3/4 404/3/4
f 402/4/4 390/4/4 405/4/4
f 404/4/4 402/4/4 405/4/4
f 391/3/4 392/3/4 405/3/4
f 390/3/4 391/3/4 405/3/4
f 405/3/4 392/3/4 406/3/4
f 403/4/4 404/4/4 407/4/4
f 406/3/4 392/3/4 407/3/4
f 405/4/4 406/4/4 407/4/4
f 404/4/4 405/4/4 407/4/4
f 407/3/4 392/3/4 408/3/4
f 397/3/4 398/3/4 409/3/4
f 392/4/4 397/4/4 409/4/4
f 409/3/4 398/3/4 410/3/4
f 408/3/4 392/3/4 411/3/4
f 407/4/4 408/4/4 411/4/4
f 409/4/4 410/4/4 412/4/4
f 411/3/4 392/3/4 412/3/4
f 392/4/4 409/4/4 412/4/4
f 395/4/4 399/4/4 413/4/4
f 384/4/4 395/4/4 413/4/4
f 411/4/4 412/4/4 413/4/4
f 403/4/4 407/4/4 413/4/4
f 399/4/4 403/4/4 413/4/4
f 375/4/4 384/4/4 413/4/4
f 407/4/4 411/4/4 413/4/4
f 412/4/4 410/4/4 414/4/4
f 413/4/4 412/4/4 414/4/4
f 417/4/5 416/4/5 415/4/5
f 418/4/5 416/4/5 417/4/5
f 419/4/5 417/4/5 415/4/5
f 421/4/5 419/4/5 415/4/5
f 421/4/5 420/4/5 419/4/5
f 422/4/5 420/4/5 421/4/5
f 423/1/6 424/1/6 428/1/6
f 424/2/6 425/2/6 428/2/6
f 425/3/6 426/3/6 429/3/6
f 428/2/6 425/2/6 429/2/6
f 426/4/6 427/4/6 430/4/6
f 429/3/6 426/3/6 430/3/6
f 430/4/6 427/4/6 431/4/6
f 423/1/6 428/1/6 432/1/6
f 432/1/6 428/1/6 433/1/6
f 432/2/6 433/2/6 434/2/6
f 434/2/6 433/2/6 435/2/6
f 434/3/6 435/3/6 436/3/6
f 436/3/6 435/3/6 437/3/6
f 436/4/6 437/4/6 438/4/6
f 438/4/6 437/4/6 439/4/6
f 438/3/6 439/3/6 440/3/6
f 440/3/6 439/3/6 441/3/6
f 440/2/6 441/2/6 442/2/6
f 442/2/6 441/2/6 443/2/6
f 442/1/6 443/1/6 444/1/6
f 442/1/6 444/1/6 448/1/6
f 444/2/6 445/2/6 449/2/6
f 448/1/6 444/1/6 449/1/6
f 445/3/6 446/3/6 450/3/6
f 449/2/6 445/2/6 450/2/6
f 446/4/6 447/4/6 451/4/6
f 450/3/6 446/3/6 451/3/6
f 451/4/6 447/4/6 452/4/6
