# MagicaVoxel @ Ephtracy

# group
g test-36

# material
mtllib test-36.mtl
usemtl palette

# normals
vn -1 0 0
vn 1 0 0
vn 0 0 1
vn 0 0 -1
vn 0 -1 0
vn 0 1 0

# texcoords
vt 0.908203 0.5
vt 0.912109 0.5
vt 0.970703 0.5
vt 0.978516 0.5

# verts
v -16 0 16
v -16 0 9
v -16 0 -3
v -16 0 -4
v -16 0 -5
v -16 0 -7
v -16 0 -8
v -16 0 -13
v -16 0 -14
v -16 0 -16
v -16 1 11
v -16 1 9
v -16 1 -1
v -16 1 -2
v -16 1 -3
v -16 1 -4
v -16 1 -5
v -16 1 -7
v -16 1 -8
v -16 1 -13
v -16 1 -14
v -16 2 15
v -16 2 11
v -16 2 2
v -16 2 -0
v -16 2 -1
v -16 2 -2
v -16 3 16
v -16 3 15
v -16 3 2
v -16 3 -0
v -16 4 16
v -16 4 15
v -16 5 16
v -16 5 15
v -16 6 7
v -16 6 6
v -16 6 5
v -16 6 4
v -16 6 3
v -16 6 2
v -16 6 1
v -16 7 10
v -16 7 7
v -16 7 6
v -16 7 5
v -16 7 4
v -16 7 3
v -16 7 1
v -16 7 -0
v -16 8 11
v -16 8 10
v -16 8 5
v -16 8 4
v -16 8 3
v -16 8 1
v -16 8 -0
v -16 9 12
v -16 9 11
v -16 9 3
v -16 9 2
v -16 9 1
v -16 9 -0
v -16 10 4
v -16 10 3
v -16 10 2
v -16 10 -0
v -16 11 16
v -16 11 15
v -16 11 13
v -16 11 12
v -16 12 16
v -16 12 15
v -16 12 14
v -16 12 13
v -16 13 16
v -16 13 15
v -16 14 -0
v -16 14 -1
v -16 15 16
v -16 15 15
v -16 15 -0
v -16 15 -1
v -16 16 16
v -16 16 15
v -16 16 14
v -16 22 16
v -16 22 15
v -16 27 16
v -16 27 15
v -16 28 16
v -16 28 15
v -16 30 16
v -16 30 15
v -16 31 15
v -16 31 9
v -16 31 8
v -16 31 5
v -16 31 3
v -16 31 2
v -16 31 -1
v -16 31 -6
v -16 32 16
v -16 32 9
v -16 32 8
v -16 32 5
v -16 32 3
v -16 32 2
v -16 32 -1
v -16 32 -6
v -16 32 -16
v -15 0 15
v -15 0 9
v -15 0 -3
v -15 0 -4
v -15 0 -5
v -15 0 -7
v -15 0 -8
v -15 0 -13
v -15 0 -14
v -15 0 -16
v -15 1 11
v -15 1 9
v -15 1 -1
v -15 1 -2
v -15 1 -3
v -15 1 -4
v -15 1 -5
v -15 1 -7
v -15 1 -8
v -15 1 -13
v -15 1 -14
v -15 2 15
v -15 2 11
v -15 2 2
v -15 2 -0
v -15 2 -1
v -15 2 -2
v -15 3 15
v -15 3 2
v -15 3 -0
v -15 6 7
v -15 6 6
v -15 6 5
v -15 6 4
v -15 6 3
v -15 6 2
v -15 6 1
v -15 7 10
v -15 7 7
v -15 7 6
v -15 7 5
v -15 7 4
v -15 7 3
v -15 7 1
v -15 7 -0
v -15 8 11
v -15 8 10
v -15 8 5
v -15 8 4
v -15 8 3
v -15 8 1
v -15 8 -0
v -15 9 12
v -15 9 11
v -15 9 3
v -15 9 2
v -15 9 1
v -15 9 -0
v -15 10 4
v -15 10 3
v -15 10 2
v -15 10 -0
v -15 11 13
v -15 11 12
v -15 12 14
v -15 12 13
v -15 14 15
v -15 14 -0
v -15 14 -1
v -15 15 15
v -15 15 -0
v -15 15 -1
v -15 16 15
v -15 16 14
v -15 17 15
v -15 31 15
v -15 31 9
v -15 31 8
v -15 31 5
v -15 31 3
v -15 31 2
v -15 31 -1
v -15 31 -6
v -15 32 15
v -15 32 9
v -15 32 8
v -15 32 5
v -15 32 3
v -15 32 2
v -15 32 -1
v -15 32 -6
v -15 32 -16
v 16 0 16
v 16 0 15
v 16 32 16
v 16 32 15
v -16 0 16
v -16 3 16
v -16 4 16
v -16 5 16
v -16 11 16
v -16 12 16
v -16 13 16
v -16 15 16
v -16 16 16
v -16 22 16
v -16 27 16
v -16 28 16
v -16 30 16
v -16 32 16
v -15 4 16
v -15 5 16
v -15 11 16
v -15 12 16
v -15 13 16
v -15 14 16
v -15 15 16
v -15 16 16
v -15 17 16
v -15 22 16
v -15 27 16
v -15 28 16
v -15 30 16
v -15 31 16
v -14 2 16
v -14 3 16
v -14 14 16
v -14 15 16
v -14 17 16
v -14 30 16
v -14 31 16
v -13 12 16
v -13 15 16
v -13 28 16
v -13 29 16
v -12 1 16
v -12 2 16
v -12 8 16
v -12 9 16
v -12 11 16
v -12 12 16
v -12 28 16
v -12 29 16
v -11 8 16
v -11 9 16
v -11 11 16
v -10 0 16
v -10 1 16
v -10 6 16
v -10 8 16
v -10 9 16
v -10 30 16
v -10 31 16
v -9 7 16
v -9 8 16
v -8 5 16
v -8 6 16
v -8 7 16
v -7 4 16
v -7 5 16
v -7 6 16
v -7 31 16
v -7 32 16
v -6 31 16
v -6 32 16
v -5 3 16
v -5 4 16
v -5 5 16
v -4 3 16
v -4 4 16
v -3 2 16
v -3 3 16
v -3 4 16
v -3 5 16
v -2 4 16
v -2 5 16
v -1 31 16
v -1 32 16
v 1 1 16
v 1 2 16
v 3 0 16
v 3 1 16
v 4 0 16
v 4 1 16
v 4 30 16
v 4 31 16
v 5 0 16
v 5 1 16
v 5 30 16
v 5 31 16
v 6 0 16
v 6 1 16
v 7 0 16
v 7 1 16
v 8 0 16
v 8 1 16
v 9 0 16
v 9 1 16
v 16 0 16
v 16 32 16
v -15 0 15
v -15 2 15
v -15 3 15
v -15 14 15
v -15 15 15
v -15 16 15
v -15 17 15
v -15 31 15
v -15 32 15
v -14 2 15
v -14 3 15
v -14 14 15
v -14 15 15
v -14 17 15
v -14 30 15
v -14 31 15
v -13 12 15
v -13 15 15
v -13 28 15
v -13 29 15
v -12 1 15
v -12 2 15
v -12 8 15
v -12 9 15
v -12 11 15
v -12 12 15
v -12 28 15
v -12 29 15
v -11 8 15
v -11 9 15
v -11 11 15
v -10 0 15
v -10 1 15
v -10 6 15
v -10 8 15
v -10 9 15
v -10 30 15
v -10 31 15
v -9 7 15
v -9 8 15
v -8 5 15
v -8 6 15
v -8 7 15
v -7 4 15
v -7 5 15
v -7 6 15
v -7 31 15
v -7 32 15
v -6 31 15
v -6 32 15
v -5 3 15
v -5 4 15
v -5 5 15
v -4 3 15
v -4 4 15
v -3 2 15
v -3 3 15
v -3 4 15
v -3 5 15
v -2 4 15
v -2 5 15
v -1 31 15
v -1 32 15
v 1 1 15
v 1 2 15
v 3 0 15
v 3 1 15
v 4 0 15
v 4 1 15
v 4 30 15
v 4 31 15
v 5 0 15
v 5 1 15
v 5 30 15
v 5 31 15
v 6 0 15
v 6 1 15
v 7 0 15
v 7 1 15
v 8 0 15
v 8 1 15
v 9 0 15
v 9 1 15
v 16 0 15
v 16 32 15
v -16 0 -16
v -16 32 -16
v -15 0 -16
v -15 32 -16
v -16 0 16
v -10 0 16
v 3 0 16
v 4 0 16
v 5 0 16
v 6 0 16
v 7 0 16
v 8 0 16
v 9 0 16
v 16 0 16
v -15 0 15
v -10 0 15
v 3 0 15
v 4 0 15
v 5 0 15
v 6 0 15
v 7 0 15
v 8 0 15
v 9 0 15
v 16 0 15
v -16 0 9
v -15 0 9
v -16 0 -3
v -15 0 -3
v -16 0 -4
v -15 0 -4
v -16 0 -5
v -15 0 -5
v -16 0 -7
v -15 0 -7
v -16 0 -8
v -15 0 -8
v -16 0 -13
v -15 0 -13
v -16 0 -14
v -15 0 -14
v -16 0 -16
v -15 0 -16
v -16 32 16
v -7 32 16
v -6 32 16
v -1 32 16
v 16 32 16
v -15 32 15
v -7 32 15
v -6 32 15
v -1 32 15
v 16 32 15
v -16 32 9
v -15 32 9
v -16 32 8
v -15 32 8
v -16 32 5
v -15 32 5
v -16 32 3
v -15 32 3
v -16 32 2
v -15 32 2
v -16 32 -1
v -15 32 -1
v -16 32 -6
v -15 32 -6
v -16 32 -16
v -15 32 -16

# faces
f 11/4/1 2/4/1 1/4/1
f 12/3/1 3/3/1 2/3/1
f 12/4/1 2/4/1 11/4/1
f 13/3/1 3/3/1 12/3/1
f 14/3/1 3/3/1 13/3/1
f 15/4/1 4/4/1 3/4/1
f 15/3/1 3/3/1 14/3/1
f 16/3/1 5/3/1 4/3/1
f 16/4/1 4/4/1 15/4/1
f 17/1/1 6/1/1 5/1/1
f 17/3/1 5/3/1 16/3/1
f 18/2/1 7/2/1 6/2/1
f 18/1/1 6/1/1 17/1/1
f 19/1/1 8/1/1 7/1/1
f 19/2/1 7/2/1 18/2/1
f 20/2/1 9/2/1 8/2/1
f 20/1/1 8/1/1 19/1/1
f 21/1/1 10/1/1 9/1/1
f 21/2/1 9/2/1 20/2/1
f 22/4/1 11/4/1 1/4/1
f 23/3/1 12/3/1 11/3/1
f 23/4/1 11/4/1 22/4/1
f 23/3/1 13/3/1 12/3/1
f 24/3/1 13/3/1 23/3/1
f 25/3/1 13/3/1 24/3/1
f 26/4/1 14/4/1 13/4/1
f 26/3/1 13/3/1 25/3/1
f 27/1/1 20/1/1 19/1/1
f 27/4/1 14/4/1 26/4/1
f 27/1/1 15/1/1 14/1/1
f 27/1/1 16/1/1 15/1/1
f 27/1/1 17/1/1 16/1/1
f 27/1/1 21/1/1 20/1/1
f 27/1/1 18/1/1 17/1/1
f 27/1/1 19/1/1 18/1/1
f 28/4/1 22/4/1 1/4/1
f 29/3/1 24/3/1 23/3/1
f 29/4/1 22/4/1 28/4/1
f 29/3/1 23/3/1 22/3/1
f 30/4/1 25/4/1 24/4/1
f 30/3/1 24/3/1 29/3/1
f 31/1/1 26/1/1 25/1/1
f 31/4/1 25/4/1 30/4/1
f 31/1/1 27/1/1 26/1/1
f 32/3/1 30/3/1 29/3/1
f 32/3/1 29/3/1 28/3/1
f 33/3/1 30/3/1 32/3/1
f 34/4/1 33/4/1 32/4/1
f 35/3/1 30/3/1 33/3/1
f 35/4/1 33/4/1 34/4/1
f 36/3/1 35/3/1 34/3/1
f 36/3/1 30/3/1 35/3/1
f 37/3/1 30/3/1 36/3/1
f 38/3/1 30/3/1 37/3/1
f 39/3/1 30/3/1 38/3/1
f 40/3/1 30/3/1 39/3/1
f 41/1/1 31/1/1 30/1/1
f 41/3/1 30/3/1 40/3/1
f 42/1/1 31/1/1 41/1/1
f 43/3/1 36/3/1 34/3/1
f 44/1/1 37/1/1 36/1/1
f 44/3/1 36/3/1 43/3/1
f 45/3/1 38/3/1 37/3/1
f 45/1/1 37/1/1 44/1/1
f 46/1/1 39/1/1 38/1/1
f 46/3/1 38/3/1 45/3/1
f 47/3/1 40/3/1 39/3/1
f 47/1/1 39/1/1 46/1/1
f 48/4/1 41/4/1 40/4/1
f 48/3/1 40/3/1 47/3/1
f 48/4/1 42/4/1 41/4/1
f 49/1/1 31/1/1 42/1/1
f 49/4/1 42/4/1 48/4/1
f 50/1/1 27/1/1 31/1/1
f 50/1/1 31/1/1 49/1/1
f 51/3/1 43/3/1 34/3/1
f 52/1/1 46/1/1 45/1/1
f 52/3/1 43/3/1 51/3/1
f 52/1/1 44/1/1 43/1/1
f 52/1/1 45/1/1 44/1/1
f 53/4/1 47/4/1 46/4/1
f 53/1/1 46/1/1 52/1/1
f 54/1/1 48/1/1 47/1/1
f 54/4/1 47/4/1 53/4/1
f 55/4/1 49/4/1 48/4/1
f 55/1/1 48/1/1 54/1/1
f 55/4/1 50/4/1 49/4/1
f 56/4/1 50/4/1 55/4/1
f 57/1/1 27/1/1 50/1/1
f 57/4/1 50/4/1 56/4/1
f 58/3/1 51/3/1 34/3/1
f 59/1/1 54/1/1 53/1/1
f 59/3/1 51/3/1 58/3/1
f 59/1/1 53/1/1 52/1/1
f 59/1/1 52/1/1 51/1/1
f 60/3/1 56/3/1 55/3/1
f 60/3/1 55/3/1 54/3/1
f 61/3/1 56/3/1 60/3/1
f 62/1/1 57/1/1 56/1/1
f 62/3/1 56/3/1 61/3/1
f 63/1/1 27/1/1 57/1/1
f 63/1/1 57/1/1 62/1/1
f 64/1/1 54/1/1 59/1/1
f 64/1/1 59/1/1 58/1/1
f 64/3/1 60/3/1 54/3/1
f 65/1/1 61/1/1 60/1/1
f 65/3/1 60/3/1 64/3/1
f 66/3/1 62/3/1 61/3/1
f 66/1/1 61/1/1 65/1/1
f 66/3/1 63/3/1 62/3/1
f 67/1/1 27/1/1 63/1/1
f 67/3/1 63/3/1 66/3/1
f 68/3/1 58/3/1 34/3/1
f 69/3/1 58/3/1 68/3/1
f 70/3/1 58/3/1 69/3/1
f 71/1/1 65/1/1 64/1/1
f 71/3/1 58/3/1 70/3/1
f 71/1/1 64/1/1 58/1/1
f 71/1/1 66/1/1 65/1/1
f 71/1/1 67/1/1 66/1/1
f 72/4/1 69/4/1 68/4/1
f 73/3/1 70/3/1 69/3/1
f 73/4/1 69/4/1 72/4/1
f 74/3/1 70/3/1 73/3/1
f 75/1/1 71/1/1 70/1/1
f 75/3/1 70/3/1 74/3/1
f 76/3/1 74/3/1 73/3/1
f 76/3/1 73/3/1 72/3/1
f 77/3/1 74/3/1 76/3/1
f 78/1/1 27/1/1 67/1/1
f 78/1/1 67/1/1 71/1/1
f 78/1/1 71/1/1 75/1/1
f 78/1/1 75/1/1 74/1/1
f 79/1/1 27/1/1 78/1/1
f 80/4/1 77/4/1 76/4/1
f 81/3/1 74/3/1 77/3/1
f 81/4/1 77/4/1 80/4/1
f 82/1/1 78/1/1 74/1/1
f 82/3/1 79/3/1 78/3/1
f 83/1/1 27/1/1 79/1/1
f 83/3/1 79/3/1 82/3/1
f 84/3/1 81/3/1 80/3/1
f 85/3/1 74/3/1 81/3/1
f 85/3/1 81/3/1 84/3/1
f 86/1/1 82/1/1 74/1/1
f 86/3/1 74/3/1 85/3/1
f 86/1/1 83/1/1 82/1/1
f 87/4/1 85/4/1 84/4/1
f 88/1/1 86/1/1 85/1/1
f 88/4/1 85/4/1 87/4/1
f 89/1/1 88/1/1 87/1/1
f 90/1/1 86/1/1 88/1/1
f 90/1/1 88/1/1 89/1/1
f 91/2/1 90/2/1 89/2/1
f 92/1/1 86/1/1 90/1/1
f 92/2/1 90/2/1 91/2/1
f 93/1/1 92/1/1 91/1/1
f 94/1/1 86/1/1 92/1/1
f 94/1/1 92/1/1 93/1/1
f 95/2/1 94/2/1 93/2/1
f 95/1/1 86/1/1 94/1/1
f 96/1/1 83/1/1 86/1/1
f 96/1/1 86/1/1 95/1/1
f 97/1/1 83/1/1 96/1/1
f 98/1/1 83/1/1 97/1/1
f 99/1/1 83/1/1 98/1/1
f 100/1/1 83/1/1 99/1/1
f 101/1/1 27/1/1 83/1/1
f 101/1/1 83/1/1 100/1/1
f 102/1/1 21/1/1 27/1/1
f 102/1/1 27/1/1 101/1/1
f 103/2/1 95/2/1 93/2/1
f 103/2/1 96/2/1 95/2/1
f 104/1/1 97/1/1 96/1/1
f 104/2/1 96/2/1 103/2/1
f 105/2/1 98/2/1 97/2/1
f 105/1/1 97/1/1 104/1/1
f 106/1/1 99/1/1 98/1/1
f 106/2/1 98/2/1 105/2/1
f 107/2/1 100/2/1 99/2/1
f 107/1/1 99/1/1 106/1/1
f 108/1/1 101/1/1 100/1/1
f 108/2/1 100/2/1 107/2/1
f 109/2/1 102/2/1 101/2/1
f 109/1/1 101/1/1 108/1/1
f 110/1/1 21/1/1 102/1/1
f 110/2/1 102/2/1 109/2/1
f 111/1/1 10/1/1 21/1/1
f 111/1/1 21/1/1 110/1/1
f 112/4/2 113/4/2 122/4/2
f 113/3/2 114/3/2 123/3/2
f 122/4/2 113/4/2 123/4/2
f 123/3/2 114/3/2 124/3/2
f 124/3/2 114/3/2 125/3/2
f 114/4/2 115/4/2 126/4/2
f 125/3/2 114/3/2 126/3/2
f 115/3/2 116/3/2 127/3/2
f 126/4/2 115/4/2 127/4/2
f 116/1/2 117/1/2 128/1/2
f 127/3/2 116/3/2 128/3/2
f 117/2/2 118/2/2 129/2/2
f 128/1/2 117/1/2 129/1/2
f 118/1/2 119/1/2 130/1/2
f 129/2/2 118/2/2 130/2/2
f 119/2/2 120/2/2 131/2/2
f 130/1/2 119/1/2 131/1/2
f 120/1/2 121/1/2 132/1/2
f 131/2/2 120/2/2 132/2/2
f 112/4/2 122/4/2 133/4/2
f 122/3/2 123/3/2 134/3/2
f 133/4/2 122/4/2 134/4/2
f 123/3/2 124/3/2 134/3/2
f 134/3/2 124/3/2 135/3/2
f 135/3/2 124/3/2 136/3/2
f 124/4/2 125/4/2 137/4/2
f 136/3/2 124/3/2 137/3/2
f 130/1/2 131/1/2 138/1/2
f 137/4/2 125/4/2 138/4/2
f 125/1/2 126/1/2 138/1/2
f 126/1/2 127/1/2 138/1/2
f 127/1/2 128/1/2 138/1/2
f 131/1/2 132/1/2 138/1/2
f 128/1/2 129/1/2 138/1/2
f 129/1/2 130/1/2 138/1/2
f 134/3/2 135/3/2 139/3/2
f 133/3/2 134/3/2 139/3/2
f 135/4/2 136/4/2 140/4/2
f 139/3/2 135/3/2 140/3/2
f 136/1/2 137/1/2 141/1/2
f 140/4/2 136/4/2 141/4/2
f 137/1/2 138/1/2 141/1/2
f 139/3/2 140/3/2 142/3/2
f 142/3/2 140/3/2 143/3/2
f 143/3/2 140/3/2 144/3/2
f 144/3/2 140/3/2 145/3/2
f 145/3/2 140/3/2 146/3/2
f 140/1/2 141/1/2 147/1/2
f 146/3/2 140/3/2 147/3/2
f 147/1/2 141/1/2 148/1/2
f 139/3/2 142/3/2 149/3/2
f 142/1/2 143/1/2 150/1/2
f 149/3/2 142/3/2 150/3/2
f 143/3/2 144/3/2 151/3/2
f 150/1/2 143/1/2 151/1/2
f 144/1/2 145/1/2 152/1/2
f 151/3/2 144/3/2 152/3/2
f 145/3/2 146/3/2 153/3/2
f 152/1/2 145/1/2 153/1/2
f 146/4/2 147/4/2 154/4/2
f 153/3/2 146/3/2 154/3/2
f 147/4/2 148/4/2 154/4/2
f 148/1/2 141/1/2 155/1/2
f 154/4/2 148/4/2 155/4/2
f 141/1/2 138/1/2 156/1/2
f 155/1/2 141/1/2 156/1/2
f 139/3/2 149/3/2 157/3/2
f 151/1/2 152/1/2 158/1/2
f 157/3/2 149/3/2 158/3/2
f 149/1/2 150/1/2 158/1/2
f 150/1/2 151/1/2 158/1/2
f 152/4/2 153/4/2 159/4/2
f 158/1/2 152/1/2 159/1/2
f 153/1/2 154/1/2 160/1/2
f 159/4/2 153/4/2 160/4/2
f 154/4/2 155/4/2 161/4/2
f 160/1/2 154/1/2 161/1/2
f 155/4/2 156/4/2 161/4/2
f 161/4/2 156/4/2 162/4/2
f 156/1/2 138/1/2 163/1/2
f 162/4/2 156/4/2 163/4/2
f 139/3/2 157/3/2 164/3/2
f 159/1/2 160/1/2 165/1/2
f 164/3/2 157/3/2 165/3/2
f 158/1/2 159/1/2 165/1/2
f 157/1/2 158/1/2 165/1/2
f 161/3/2 162/3/2 166/3/2
f 160/3/2 161/3/2 166/3/2
f 166/3/2 162/3/2 167/3/2
f 162/1/2 163/1/2 168/1/2
f 167/3/2 162/3/2 168/3/2
f 163/1/2 138/1/2 169/1/2
f 168/1/2 163/1/2 169/1/2
f 165/1/2 160/1/2 170/1/2
f 164/1/2 165/1/2 170/1/2
f 160/3/2 166/3/2 170/3/2
f 166/1/2 167/1/2 171/1/2
f 170/3/2 166/3/2 171/3/2
f 167/3/2 168/3/2 172/3/2
f 171/1/2 167/1/2 172/1/2
f 168/3/2 169/3/2 172/3/2
f 169/1/2 138/1/2 173/1/2
f 172/3/2 169/3/2 173/3/2
f 139/3/2 164/3/2 174/3/2
f 170/1/2 171/1/2 175/1/2
f 174/3/2 164/3/2 175/3/2
f 164/1/2 170/1/2 175/1/2
f 172/1/2 173/1/2 175/1/2
f 171/1/2 172/1/2 175/1/2
f 139/3/2 174/3/2 176/3/2
f 174/1/2 175/1/2 177/1/2
f 176/3/2 174/3/2 177/3/2
f 139/3/2 176/3/2 178/3/2
f 173/1/2 138/1/2 179/1/2
f 175/1/2 173/1/2 179/1/2
f 177/1/2 175/1/2 179/1/2
f 176/1/2 177/1/2 179/1/2
f 179/1/2 138/1/2 180/1/2
f 178/3/2 176/3/2 181/3/2
f 176/1/2 179/1/2 182/1/2
f 179/3/2 180/3/2 182/3/2
f 180/1/2 138/1/2 183/1/2
f 182/3/2 180/3/2 183/3/2
f 181/3/2 176/3/2 184/3/2
f 176/1/2 182/1/2 185/1/2
f 184/3/2 176/3/2 185/3/2
f 182/1/2 183/1/2 185/1/2
f 184/1/2 185/1/2 186/1/2
f 186/1/2 185/1/2 187/1/2
f 185/1/2 183/1/2 188/1/2
f 187/1/2 185/1/2 188/1/2
f 188/1/2 183/1/2 189/1/2
f 189/1/2 183/1/2 190/1/2
f 190/1/2 183/1/2 191/1/2
f 191/1/2 183/1/2 192/1/2
f 183/1/2 138/1/2 193/1/2
f 192/1/2 183/1/2 193/1/2
f 138/1/2 132/1/2 194/1/2
f 193/1/2 138/1/2 194/1/2
f 187/2/2 188/2/2 195/2/2
f 188/1/2 189/1/2 196/1/2
f 195/2/2 188/2/2 196/2/2
f 189/2/2 190/2/2 197/2/2
f 196/1/2 189/1/2 197/1/2
f 190/1/2 191/1/2 198/1/2
f 197/2/2 190/2/2 198/2/2
f 191/2/2 192/2/2 199/2/2
f 198/1/2 191/1/2 199/1/2
f 192/1/2 193/1/2 200/1/2
f 199/2/2 192/2/2 200/2/2
f 193/2/2 194/2/2 201/2/2
f 200/1/2 193/1/2 201/1/2
f 194/1/2 132/1/2 202/1/2
f 201/2/2 194/2/2 202/2/2
f 132/1/2 121/1/2 203/1/2
f 202/1/2 132/1/2 203/1/2
f 204/1/2 205/1/2 206/1/2
f 206/1/2 205/1/2 207/1/2
f 222/3/3 210/3/3 209/3/3
f 222/4/3 211/4/3 210/4/3
f 223/3/3 212/3/3 211/3/3
f 223/4/3 211/4/3 222/4/3
f 224/4/3 213/4/3 212/4/3
f 224/3/3 212/3/3 223/3/3
f 225/3/3 214/3/3 213/3/3
f 225/4/3 213/4/3 224/4/3
f 226/4/3 215/4/3 214/4/3
f 226/3/3 214/3/3 225/3/3
f 227/4/3 215/4/3 226/4/3
f 228/3/3 216/3/3 215/3/3
f 228/4/3 215/4/3 227/4/3
f 229/4/3 217/4/3 216/4/3
f 229/3/3 216/3/3 228/3/3
f 230/4/3 217/4/3 229/4/3
f 231/1/3 218/1/3 217/1/3
f 231/4/3 217/4/3 230/4/3
f 232/2/3 219/2/3 218/2/3
f 232/1/3 218/1/3 231/1/3
f 233/1/3 220/1/3 219/1/3
f 233/2/3 219/2/3 232/2/3
f 234/2/3 221/2/3 220/2/3
f 234/1/3 220/1/3 233/1/3
f 235/2/3 221/2/3 234/2/3
f 236/4/3 209/4/3 208/4/3
f 237/3/3 222/3/3 209/3/3
f 237/4/3 209/4/3 236/4/3
f 237/3/3 223/3/3 222/3/3
f 237/3/3 224/3/3 223/3/3
f 237/3/3 225/3/3 224/3/3
f 237/3/3 227/3/3 226/3/3
f 237/3/3 226/3/3 225/3/3
f 238/1/3 228/1/3 227/1/3
f 238/3/3 227/3/3 237/3/3
f 239/3/3 229/3/3 228/3/3
f 239/1/3 228/1/3 238/1/3
f 239/3/3 230/3/3 229/3/3
f 240/1/3 233/1/3 232/1/3
f 240/3/3 230/3/3 239/3/3
f 240/1/3 232/1/3 231/1/3
f 240/1/3 235/1/3 234/1/3
f 240/1/3 231/1/3 230/1/3
f 240/1/3 234/1/3 233/1/3
f 241/1/3 235/1/3 240/1/3
f 242/2/3 221/2/3 235/2/3
f 242/1/3 235/1/3 241/1/3
f 243/3/3 239/3/3 238/3/3
f 243/3/3 237/3/3 236/3/3
f 243/3/3 238/3/3 237/3/3
f 244/1/3 241/1/3 240/1/3
f 244/3/3 239/3/3 243/3/3
f 244/1/3 240/1/3 239/1/3
f 245/1/3 241/1/3 244/1/3
f 246/1/3 241/1/3 245/1/3
f 247/4/3 236/4/3 208/4/3
f 248/3/3 243/3/3 236/3/3
f 248/4/3 236/4/3 247/4/3
f 249/3/3 243/3/3 248/3/3
f 250/3/3 243/3/3 249/3/3
f 251/3/3 243/3/3 250/3/3
f 252/1/3 244/1/3 243/1/3
f 252/3/3 243/3/3 251/3/3
f 252/1/3 245/1/3 244/1/3
f 253/2/3 246/2/3 245/2/3
f 253/1/3 245/1/3 252/1/3
f 254/1/3 241/1/3 246/1/3
f 254/2/3 246/2/3 253/2/3
f 255/4/3 250/4/3 249/4/3
f 255/3/3 248/3/3 247/3/3
f 255/3/3 249/3/3 248/3/3
f 256/3/3 251/3/3 250/3/3
f 256/4/3 250/4/3 255/4/3
f 257/1/3 253/1/3 252/1/3
f 257/3/3 251/3/3 256/3/3
f 257/1/3 252/1/3 251/1/3
f 257/1/3 254/1/3 253/1/3
f 258/4/3 247/4/3 208/4/3
f 259/3/3 256/3/3 255/3/3
f 259/4/3 247/4/3 258/4/3
f 259/3/3 255/3/3 247/3/3
f 260/3/3 256/3/3 259/3/3
f 261/3/3 256/3/3 260/3/3
f 262/1/3 257/1/3 256/1/3
f 262/3/3 256/3/3 261/3/3
f 263/1/3 254/1/3 257/1/3
f 263/1/3 257/1/3 262/1/3
f 263/2/3 242/2/3 241/2/3
f 263/1/3 241/1/3 254/1/3
f 264/2/3 221/2/3 242/2/3
f 264/2/3 242/2/3 263/2/3
f 265/4/3 261/4/3 260/4/3
f 266/1/3 262/1/3 261/1/3
f 266/4/3 261/4/3 265/4/3
f 266/1/3 263/1/3 262/1/3
f 266/1/3 264/1/3 263/1/3
f 267/3/3 259/3/3 258/3/3
f 267/3/3 260/3/3 259/3/3
f 268/4/3 265/4/3 260/4/3
f 268/3/3 260/3/3 267/3/3
f 269/1/3 266/1/3 265/1/3
f 269/4/3 265/4/3 268/4/3
f 270/3/3 267/3/3 258/3/3
f 271/4/3 268/4/3 267/4/3
f 271/3/3 267/3/3 270/3/3
f 272/1/3 269/1/3 268/1/3
f 272/4/3 268/4/3 271/4/3
f 273/1/3 266/1/3 269/1/3
f 273/1/3 269/1/3 272/1/3
f 273/1/3 264/1/3 266/1/3
f 273/2/3 221/2/3 264/2/3
f 274/2/3 221/2/3 273/2/3
f 275/1/3 272/1/3 271/1/3
f 275/1/3 273/1/3 272/1/3
f 275/1/3 274/1/3 273/1/3
f 276/1/3 274/1/3 275/1/3
f 277/3/3 270/3/3 258/3/3
f 278/4/3 271/4/3 270/4/3
f 278/3/3 270/3/3 277/3/3
f 279/1/3 275/1/3 271/1/3
f 279/4/3 271/4/3 278/4/3
f 280/3/3 277/3/3 258/3/3
f 280/4/3 278/4/3 277/4/3
f 281/1/3 279/1/3 278/1/3
f 281/4/3 278/4/3 280/4/3
f 282/3/3 280/3/3 258/3/3
f 283/1/3 281/1/3 280/1/3
f 283/3/3 280/3/3 282/3/3
f 284/1/3 279/1/3 281/1/3
f 284/1/3 281/1/3 283/1/3
f 285/1/3 275/1/3 279/1/3
f 285/1/3 279/1/3 284/1/3
f 286/1/3 284/1/3 283/1/3
f 286/1/3 283/1/3 282/1/3
f 286/2/3 285/2/3 284/2/3
f 287/1/3 275/1/3 285/1/3
f 287/2/3 285/2/3 286/2/3
f 288/2/3 276/2/3 275/2/3
f 288/1/3 275/1/3 287/1/3
f 288/1/3 287/1/3 286/1/3
f 289/2/3 276/2/3 288/2/3
f 290/3/3 282/3/3 258/3/3
f 291/1/3 286/1/3 282/1/3
f 291/3/3 282/3/3 290/3/3
f 291/1/3 288/1/3 286/1/3
f 291/1/3 289/1/3 288/1/3
f 292/3/3 290/3/3 258/3/3
f 293/1/3 291/1/3 290/1/3
f 293/3/3 290/3/3 292/3/3
f 294/1/3 293/1/3 292/1/3
f 295/1/3 291/1/3 293/1/3
f 295/1/3 293/1/3 294/1/3
f 296/1/3 289/1/3 291/1/3
f 296/1/3 291/1/3 295/1/3
f 297/1/3 289/1/3 296/1/3
f 298/2/3 295/2/3 294/2/3
f 299/1/3 296/1/3 295/1/3
f 299/2/3 295/2/3 298/2/3
f 300/2/3 297/2/3 296/2/3
f 300/1/3 296/1/3 299/1/3
f 301/1/3 289/1/3 297/1/3
f 301/2/3 297/2/3 300/2/3
f 302/1/3 300/1/3 299/1/3
f 302/1/3 299/1/3 298/1/3
f 302/1/3 301/1/3 300/1/3
f 303/1/3 301/1/3 302/1/3
f 304/2/3 303/2/3 302/2/3
f 305/1/3 301/1/3 303/1/3
f 305/2/3 303/2/3 304/2/3
f 306/1/3 305/1/3 304/1/3
f 307/1/3 301/1/3 305/1/3
f 307/1/3 305/1/3 306/1/3
f 308/2/3 307/2/3 306/2/3
f 309/1/3 301/1/3 307/1/3
f 309/2/3 307/2/3 308/2/3
f 310/1/3 309/1/3 308/1/3
f 311/1/3 289/1/3 301/1/3
f 311/1/3 309/1/3 310/1/3
f 311/1/3 301/1/3 309/1/3
f 312/4/4 313/4/4 321/4/4
f 313/4/4 314/4/4 321/4/4
f 314/3/4 315/3/4 322/3/4
f 321/4/4 314/4/4 322/4/4
f 315/1/4 316/1/4 323/1/4
f 322/3/4 315/3/4 323/3/4
f 316/3/4 317/3/4 324/3/4
f 323/1/4 316/1/4 324/1/4
f 317/3/4 318/3/4 324/3/4
f 318/1/4 319/1/4 325/1/4
f 324/3/4 318/3/4 325/3/4
f 325/1/4 319/1/4 326/1/4
f 319/2/4 320/2/4 327/2/4
f 326/1/4 319/1/4 327/1/4
f 323/3/4 324/3/4 328/3/4
f 321/3/4 322/3/4 328/3/4
f 322/3/4 323/3/4 328/3/4
f 325/1/4 326/1/4 329/1/4
f 328/3/4 324/3/4 329/3/4
f 324/1/4 325/1/4 329/1/4
f 329/1/4 326/1/4 330/1/4
f 330/1/4 326/1/4 331/1/4
f 312/4/4 321/4/4 332/4/4
f 321/3/4 328/3/4 333/3/4
f 332/4/4 321/4/4 333/4/4
f 333/3/4 328/3/4 334/3/4
f 334/3/4 328/3/4 335/3/4
f 335/3/4 328/3/4 336/3/4
f 328/1/4 329/1/4 337/1/4
f 336/3/4 328/3/4 337/3/4
f 329/1/4 330/1/4 337/1/4
f 330/2/4 331/2/4 338/2/4
f 337/1/4 330/1/4 338/1/4
f 331/1/4 326/1/4 339/1/4
f 338/2/4 331/2/4 339/2/4
f 334/4/4 335/4/4 340/4/4
f 332/3/4 333/3/4 340/3/4
f 333/3/4 334/3/4 340/3/4
f 335/3/4 336/3/4 341/3/4
f 340/4/4 335/4/4 341/4/4
f 337/1/4 338/1/4 342/1/4
f 341/3/4 336/3/4 342/3/4
f 336/1/4 337/1/4 342/1/4
f 338/1/4 339/1/4 342/1/4
f 312/4/4 332/4/4 343/4/4
f 340/3/4 341/3/4 344/3/4
f 343/4/4 332/4/4 344/4/4
f 332/3/4 340/3/4 344/3/4
f 344/3/4 341/3/4 345/3/4
f 345/3/4 341/3/4 346/3/4
f 341/1/4 342/1/4 347/1/4
f 346/3/4 341/3/4 347/3/4
f 342/1/4 339/1/4 348/1/4
f 347/1/4 342/1/4 348/1/4
f 326/2/4 327/2/4 348/2/4
f 339/1/4 326/1/4 348/1/4
f 327/2/4 320/2/4 349/2/4
f 348/2/4 327/2/4 349/2/4
f 345/4/4 346/4/4 350/4/4
f 346/1/4 347/1/4 351/1/4
f 350/4/4 346/4/4 351/4/4
f 347/1/4 348/1/4 351/1/4
f 348/1/4 349/1/4 351/1/4
f 343/3/4 344/3/4 352/3/4
f 344/3/4 345/3/4 352/3/4
f 345/4/4 350/4/4 353/4/4
f 352/3/4 345/3/4 353/3/4
f 350/1/4 351/1/4 354/1/4
f 353/4/4 350/4/4 354/4/4
f 343/3/4 352/3/4 355/3/4
f 352/4/4 353/4/4 356/4/4
f 355/3/4 352/3/4 356/3/4
f 353/1/4 354/1/4 357/1/4
f 356/4/4 353/4/4 357/4/4
f 354/1/4 351/1/4 358/1/4
f 357/1/4 354/1/4 358/1/4
f 351/1/4 349/1/4 358/1/4
f 349/2/4 320/2/4 358/2/4
f 358/2/4 320/2/4 359/2/4
f 356/1/4 357/1/4 360/1/4
f 357/1/4 358/1/4 360/1/4
f 358/1/4 359/1/4 360/1/4
f 360/1/4 359/1/4 361/1/4
f 343/3/4 355/3/4 362/3/4
f 355/4/4 356/4/4 363/4/4
f 362/3/4 355/3/4 363/3/4
f 356/1/4 360/1/4 364/1/4
f 363/4/4 356/4/4 364/4/4
f 343/3/4 362/3/4 365/3/4
f 362/4/4 363/4/4 365/4/4
f 363/1/4 364/1/4 366/1/4
f 365/4/4 363/4/4 366/4/4
f 343/3/4 365/3/4 367/3/4
f 365/1/4 366/1/4 368/1/4
f 367/3/4 365/3/4 368/3/4
f 366/1/4 364/1/4 369/1/4
f 368/1/4 366/1/4 369/1/4
f 364/1/4 360/1/4 370/1/4
f 369/1/4 364/1/4 370/1/4
f 368/1/4 369/1/4 371/1/4
f 367/1/4 368/1/4 371/1/4
f 369/2/4 370/2/4 371/2/4
f 370/1/4 360/1/4 372/1/4
f 371/2/4 370/2/4 372/2/4
f 360/2/4 361/2/4 373/2/4
f 372/1/4 360/1/4 373/1/4
f 371/1/4 372/1/4 373/1/4
f 373/2/4 361/2/4 374/2/4
f 343/3/4 367/3/4 375/3/4
f 367/1/4 371/1/4 376/1/4
f 375/3/4 367/3/4 376/3/4
f 371/1/4 373/1/4 376/1/4
f 373/1/4 374/1/4 376/1/4
f 343/3/4 375/3/4 377/3/4
f 375/1/4 376/1/4 378/1/4
f 377/3/4 375/3/4 378/3/4
f 377/1/4 378/1/4 379/1/4
f 378/1/4 376/1/4 380/1/4
f 379/1/4 378/1/4 380/1/4
f 376/1/4 374/1/4 381/1/4
f 380/1/4 376/1/4 381/1/4
f 381/1/4 374/1/4 382/1/4
f 379/2/4 380/2/4 383/2/4
f 380/1/4 381/1/4 384/1/4
f 383/2/4 380/2/4 384/2/4
f 381/2/4 382/2/4 385/2/4
f 384/1/4 381/1/4 385/1/4
f 382/1/4 374/1/4 386/1/4
f 385/2/4 382/2/4 386/2/4
f 384/1/4 385/1/4 387/1/4
f 383/1/4 384/1/4 387/1/4
f 385/1/4 386/1/4 387/1/4
f 387/1/4 386/1/4 388/1/4
f 387/2/4 388/2/4 389/2/4
f 388/1/4 386/1/4 390/1/4
f 389/2/4 388/2/4 390/2/4
f 389/1/4 390/1/4 391/1/4
f 390/1/4 386/1/4 392/1/4
f 391/1/4 390/1/4 392/1/4
f 391/2/4 392/2/4 393/2/4
f 392/1/4 386/1/4 394/1/4
f 393/2/4 392/2/4 394/2/4
f 393/1/4 394/1/4 395/1/4
f 386/1/4 374/1/4 396/1/4
f 395/1/4 394/1/4 396/1/4
f 394/1/4 386/1/4 396/1/4
f 397/1/4 398/1/4 399/1/4
f 399/1/4 398/1/4 400/1/4
f 411/4/5 402/4/5 401/4/5
f 412/3/5 403/3/5 402/3/5
f 412/4/5 402/4/5 411/4/5
f 413/1/5 404/1/5 403/1/5
f 413/3/5 403/3/5 412/3/5
f 414/2/5 405/2/5 404/2/5
f 414/1/5 404/1/5 413/1/5
f 415/1/5 406/1/5 405/1/5
f 415/2/5 405/2/5 414/2/5
f 416/2/5 407/2/5 406/2/5
f 416/1/5 406/1/5 415/1/5
f 417/1/5 408/1/5 407/1/5
f 417/2/5 407/2/5 416/2/5
f 418/2/5 409/2/5 408/2/5
f 418/1/5 408/1/5 417/1/5
f 419/1/5 410/1/5 409/1/5
f 419/2/5 409/2/5 418/2/5
f 420/1/5 410/1/5 419/1/5
f 421/4/5 411/4/5 401/4/5
f 422/4/5 411/4/5 421/4/5
f 423/3/5 422/3/5 421/3/5
f 424/3/5 422/3/5 423/3/5
f 425/4/5 424/4/5 423/4/5
f 426/4/5 424/4/5 425/4/5
f 427/3/5 426/3/5 425/3/5
f 428/3/5 426/3/5 427/3/5
f 429/1/5 428/1/5 427/1/5
f 430/1/5 428/1/5 429/1/5
f 431/2/5 430/2/5 429/2/5
f 432/2/5 430/2/5 431/2/5
f 433/1/5 432/1/5 431/1/5
f 434/1/5 432/1/5 433/1/5
f 435/2/5 434/2/5 433/2/5
f 436/2/5 434/2/5 435/2/5
f 437/1/5 436/1/5 435/1/5
f 438/1/5 436/1/5 437/1/5
f 439/2/6 440/2/6 444/2/6
f 440/1/6 441/1/6 445/1/6
f 444/2/6 440/2/6 445/2/6
f 441/2/6 442/2/6 446/2/6
f 445/1/6 441/1/6 446/1/6
f 442/1/6 443/1/6 447/1/6
f 446/2/6 442/2/6 447/2/6
f 447/1/6 443/1/6 448/1/6
f 439/2/6 444/2/6 449/2/6
f 449/2/6 444/2/6 450/2/6
f 449/1/6 450/1/6 451/1/6
f 451/1/6 450/1/6 452/1/6
f 451/2/6 452/2/6 453/2/6
f 453/2/6 452/2/6 454/2/6
f 453/1/6 454/1/6 455/1/6
f 455/1/6 454/1/6 456/1/6
f 455/2/6 456/2/6 457/2/6
f 457/2/6 456/2/6 458/2/6
f 457/1/6 458/1/6 459/1/6
f 459/1/6 458/1/6 460/1/6
f 459/2/6 460/2/6 461/2/6
f 461/2/6 460/2/6 462/2/6
f 461/1/6 462/1/6 463/1/6
f 463/1/6 462/1/6 464/1/6
