# MagicaVoxel @ Ephtracy

# group
g test-46

# material
mtllib test-46.mtl
usemtl palette

# normals
vn -1 0 0
vn 1 0 0
vn 0 0 1
vn 0 0 -1
vn 0 -1 0
vn 0 1 0

# texcoords
vt 0.908203 0.5
vt 0.912109 0.5

# verts
v -16 0 16
v -16 0 3
v -16 0 2
v -16 0 -2
v -16 0 -3
v -16 0 -6
v -16 0 -7
v -16 0 -8
v -16 0 -13
v -16 0 -14
v -16 0 -16
v -16 1 9
v -16 1 3
v -16 1 2
v -16 1 -2
v -16 1 -3
v -16 1 -6
v -16 1 -7
v -16 1 -8
v -16 1 -13
v -16 1 -14
v -16 2 13
v -16 2 9
v -16 2 3
v -16 2 2
v -16 3 14
v -16 3 13
v -16 4 11
v -16 4 10
v -16 5 11
v -16 5 10
v -16 6 15
v -16 6 14
v -16 7 15
v -16 7 14
v -16 8 15
v -16 8 14
v -16 11 16
v -16 11 15
v -16 13 16
v -16 13 15
v -16 15 16
v -16 15 15
v -16 16 16
v -16 16 15
v -16 18 16
v -16 18 15
v -16 27 16
v -16 27 15
v -16 28 16
v -16 28 15
v -16 30 16
v -16 30 15
v -16 31 15
v -16 31 9
v -16 31 8
v -16 31 5
v -16 31 3
v -16 31 2
v -16 31 -1
v -16 31 -16
v -16 32 16
v -16 32 9
v -16 32 8
v -16 32 5
v -16 32 3
v -16 32 2
v -16 32 -1
v -16 32 -16
v 15 0 16
v 15 0 3
v 15 0 2
v 15 0 -2
v 15 0 -3
v 15 0 -6
v 15 0 -7
v 15 0 -8
v 15 0 -13
v 15 0 -14
v 15 0 -16
v 15 1 9
v 15 1 3
v 15 1 2
v 15 1 -2
v 15 1 -3
v 15 1 -6
v 15 1 -7
v 15 1 -8
v 15 1 -13
v 15 1 -14
v 15 2 13
v 15 2 9
v 15 2 3
v 15 2 2
v 15 3 14
v 15 3 13
v 15 4 11
v 15 4 10
v 15 5 11
v 15 5 10
v 15 6 15
v 15 6 14
v 15 7 15
v 15 7 14
v 15 8 15
v 15 8 14
v 15 11 16
v 15 11 15
v 15 13 16
v 15 13 15
v 15 15 16
v 15 15 15
v 15 16 16
v 15 16 15
v 15 18 16
v 15 18 15
v 15 27 16
v 15 27 15
v 15 28 16
v 15 28 15
v 15 30 16
v 15 30 15
v 15 31 15
v 15 31 9
v 15 31 8
v 15 31 5
v 15 31 3
v 15 31 2
v 15 31 -1
v 15 31 -16
v 15 32 16
v 15 32 9
v 15 32 8
v 15 32 5
v 15 32 3
v 15 32 2
v 15 32 -1
v 15 32 -16
v -15 0 16
v -15 0 3
v -15 0 2
v -15 0 -2
v -15 0 -3
v -15 0 -6
v -15 0 -7
v -15 0 -8
v -15 0 -13
v -15 0 -14
v -15 0 -16
v -15 1 9
v -15 1 3
v -15 1 2
v -15 1 -2
v -15 1 -3
v -15 1 -6
v -15 1 -7
v -15 1 -8
v -15 1 -13
v -15 1 -14
v -15 2 13
v -15 2 9
v -15 2 3
v -15 2 2
v -15 3 14
v -15 3 13
v -15 4 11
v -15 4 10
v -15 5 11
v -15 5 10
v -15 6 15
v -15 6 14
v -15 7 15
v -15 7 14
v -15 8 15
v -15 8 14
v -15 11 16
v -15 11 15
v -15 13 16
v -15 13 15
v -15 15 16
v -15 15 15
v -15 16 16
v -15 16 15
v -15 18 16
v -15 18 15
v -15 27 16
v -15 27 15
v -15 28 16
v -15 28 15
v -15 30 16
v -15 30 15
v -15 31 15
v -15 31 9
v -15 31 8
v -15 31 5
v -15 31 3
v -15 31 2
v -15 31 -1
v -15 31 -16
v -15 32 16
v -15 32 9
v -15 32 8
v -15 32 5
v -15 32 3
v -15 32 2
v -15 32 -1
v -15 32 -16
v 16 0 16
v 16 0 3
v 16 0 2
v 16 0 -2
v 16 0 -3
v 16 0 -6
v 16 0 -7
v 16 0 -8
v 16 0 -13
v 16 0 -14
v 16 0 -16
v 16 1 9
v 16 1 3
v 16 1 2
v 16 1 -2
v 16 1 -3
v 16 1 -6
v 16 1 -7
v 16 1 -8
v 16 1 -13
v 16 1 -14
v 16 2 13
v 16 2 9
v 16 2 3
v 16 2 2
v 16 3 14
v 16 3 13
v 16 4 11
v 16 4 10
v 16 5 11
v 16 5 10
v 16 6 15
v 16 6 14
v 16 7 15
v 16 7 14
v 16 8 15
v 16 8 14
v 16 11 16
v 16 11 15
v 16 13 16
v 16 13 15
v 16 15 16
v 16 15 15
v 16 16 16
v 16 16 15
v 16 18 16
v 16 18 15
v 16 27 16
v 16 27 15
v 16 28 16
v 16 28 15
v 16 30 16
v 16 30 15
v 16 31 15
v 16 31 9
v 16 31 8
v 16 31 5
v 16 31 3
v 16 31 2
v 16 31 -1
v 16 31 -16
v 16 32 16
v 16 32 9
v 16 32 8
v 16 32 5
v 16 32 3
v 16 32 2
v 16 32 -1
v 16 32 -16
v -16 0 16
v -16 11 16
v -16 13 16
v -16 15 16
v -16 16 16
v -16 18 16
v -16 27 16
v -16 28 16
v -16 30 16
v -16 32 16
v -15 0 16
v -15 11 16
v -15 13 16
v -15 15 16
v -15 16 16
v -15 18 16
v -15 27 16
v -15 28 16
v -15 30 16
v -15 32 16
v 15 0 16
v 15 11 16
v 15 13 16
v 15 15 16
v 15 16 16
v 15 18 16
v 15 27 16
v 15 28 16
v 15 30 16
v 15 32 16
v 16 0 16
v 16 11 16
v 16 13 16
v 16 15 16
v 16 16 16
v 16 18 16
v 16 27 16
v 16 28 16
v 16 30 16
v 16 32 16
v -16 0 -16
v -16 31 -16
v -16 32 -16
v -15 0 -16
v -15 31 -16
v -15 32 -16
v 15 0 -16
v 15 31 -16
v 15 32 -16
v 16 0 -16
v 16 31 -16
v 16 32 -16
v -16 0 16
v -15 0 16
v 15 0 16
v 16 0 16
v -16 0 3
v -15 0 3
v 15 0 3
v 16 0 3
v -16 0 2
v -15 0 2
v 15 0 2
v 16 0 2
v -16 0 -2
v -15 0 -2
v 15 0 -2
v 16 0 -2
v -16 0 -3
v -15 0 -3
v 15 0 -3
v 16 0 -3
v -16 0 -6
v -15 0 -6
v 15 0 -6
v 16 0 -6
v -16 0 -7
v -15 0 -7
v 15 0 -7
v 16 0 -7
v -16 0 -8
v -15 0 -8
v 15 0 -8
v 16 0 -8
v -16 0 -13
v -15 0 -13
v 15 0 -13
v 16 0 -13
v -16 0 -14
v -15 0 -14
v 15 0 -14
v 16 0 -14
v -16 0 -16
v -15 0 -16
v 15 0 -16
v 16 0 -16
v -16 32 16
v -15 32 16
v 15 32 16
v 16 32 16
v -16 32 9
v -15 32 9
v 15 32 9
v 16 32 9
v -16 32 8
v -15 32 8
v 15 32 8
v 16 32 8
v -16 32 5
v -15 32 5
v 15 32 5
v 16 32 5
v -16 32 3
v -15 32 3
v 15 32 3
v 16 32 3
v -16 32 2
v -15 32 2
v 15 32 2
v 16 32 2
v -16 32 -1
v -15 32 -1
v 15 32 -1
v 16 32 -1
v -16 32 -16
v -15 32 -16
v 15 32 -16
v 16 32 -16

# faces
f 12/2/1 2/2/1 1/2/1
f 13/1/1 3/1/1 2/1/1
f 13/2/1 2/2/1 12/2/1
f 14/2/1 4/2/1 3/2/1
f 14/1/1 3/1/1 13/1/1
f 15/1/1 5/1/1 4/1/1
f 15/2/1 4/2/1 14/2/1
f 16/2/1 6/2/1 5/2/1
f 16/1/1 5/1/1 15/1/1
f 17/1/1 7/1/1 6/1/1
f 17/2/1 6/2/1 16/2/1
f 18/2/1 8/2/1 7/2/1
f 18/1/1 7/1/1 17/1/1
f 19/1/1 9/1/1 8/1/1
f 19/2/1 8/2/1 18/2/1
f 20/2/1 10/2/1 9/2/1
f 20/1/1 9/1/1 19/1/1
f 21/1/1 11/1/1 10/1/1
f 21/2/1 10/2/1 20/2/1
f 22/2/1 12/2/1 1/2/1
f 23/1/1 13/1/1 12/1/1
f 23/2/1 12/2/1 22/2/1
f 24/2/1 14/2/1 13/2/1
f 24/1/1 13/1/1 23/1/1
f 25/1/1 20/1/1 19/1/1
f 25/2/1 14/2/1 24/2/1
f 25/1/1 15/1/1 14/1/1
f 25/1/1 21/1/1 20/1/1
f 25/1/1 19/1/1 18/1/1
f 25/1/1 18/1/1 17/1/1
f 25/1/1 17/1/1 16/1/1
f 25/1/1 16/1/1 15/1/1
f 26/2/1 22/2/1 1/2/1
f 27/1/1 24/1/1 23/1/1
f 27/2/1 22/2/1 26/2/1
f 27/1/1 23/1/1 22/1/1
f 27/1/1 25/1/1 24/1/1
f 28/1/1 27/1/1 26/1/1
f 28/1/1 25/1/1 27/1/1
f 29/1/1 25/1/1 28/1/1
f 30/1/1 28/1/1 26/1/1
f 30/2/1 29/2/1 28/2/1
f 31/1/1 25/1/1 29/1/1
f 31/2/1 29/2/1 30/2/1
f 32/2/1 26/2/1 1/2/1
f 33/1/1 30/1/1 26/1/1
f 33/2/1 26/2/1 32/2/1
f 33/1/1 31/1/1 30/1/1
f 34/2/1 32/2/1 1/2/1
f 34/1/1 33/1/1 32/1/1
f 35/1/1 31/1/1 33/1/1
f 35/1/1 33/1/1 34/1/1
f 36/2/1 34/2/1 1/2/1
f 36/2/1 35/2/1 34/2/1
f 37/1/1 31/1/1 35/1/1
f 37/2/1 35/2/1 36/2/1
f 38/2/1 36/2/1 1/2/1
f 39/1/1 37/1/1 36/1/1
f 39/2/1 36/2/1 38/2/1
f 40/1/1 39/1/1 38/1/1
f 41/1/1 37/1/1 39/1/1
f 41/1/1 39/1/1 40/1/1
f 42/2/1 41/2/1 40/2/1
f 43/1/1 37/1/1 41/1/1
f 43/2/1 41/2/1 42/2/1
f 44/1/1 43/1/1 42/1/1
f 45/1/1 37/1/1 43/1/1
f 45/1/1 43/1/1 44/1/1
f 46/2/1 45/2/1 44/2/1
f 47/1/1 37/1/1 45/1/1
f 47/2/1 45/2/1 46/2/1
f 48/1/1 47/1/1 46/1/1
f 49/1/1 37/1/1 47/1/1
f 49/1/1 47/1/1 48/1/1
f 50/2/1 49/2/1 48/2/1
f 51/1/1 37/1/1 49/1/1
f 51/2/1 49/2/1 50/2/1
f 52/1/1 51/1/1 50/1/1
f 53/1/1 37/1/1 51/1/1
f 53/1/1 51/1/1 52/1/1
f 54/2/1 53/2/1 52/2/1
f 54/1/1 37/1/1 53/1/1
f 55/1/1 25/1/1 31/1/1
f 55/1/1 37/1/1 54/1/1
f 55/1/1 31/1/1 37/1/1
f 56/1/1 25/1/1 55/1/1
f 57/1/1 25/1/1 56/1/1
f 58/1/1 25/1/1 57/1/1
f 59/1/1 21/1/1 25/1/1
f 59/1/1 25/1/1 58/1/1
f 60/1/1 21/1/1 59/1/1
f 61/1/1 11/1/1 21/1/1
f 61/1/1 21/1/1 60/1/1
f 62/2/1 54/2/1 52/2/1
f 62/2/1 55/2/1 54/2/1
f 63/1/1 56/1/1 55/1/1
f 63/2/1 55/2/1 62/2/1
f 64/2/1 57/2/1 56/2/1
f 64/1/1 56/1/1 63/1/1
f 65/1/1 58/1/1 57/1/1
f 65/2/1 57/2/1 64/2/1
f 66/2/1 59/2/1 58/2/1
f 66/1/1 58/1/1 65/1/1
f 67/1/1 60/1/1 59/1/1
f 67/2/1 59/2/1 66/2/1
f 68/2/1 61/2/1 60/2/1
f 68/1/1 60/1/1 67/1/1
f 69/2/1 61/2/1 68/2/1
f 81/2/1 71/2/1 70/2/1
f 82/1/1 72/1/1 71/1/1
f 82/2/1 71/2/1 81/2/1
f 83/2/1 73/2/1 72/2/1
f 83/1/1 72/1/1 82/1/1
f 84/1/1 74/1/1 73/1/1
f 84/2/1 73/2/1 83/2/1
f 85/2/1 75/2/1 74/2/1
f 85/1/1 74/1/1 84/1/1
f 86/1/1 76/1/1 75/1/1
f 86/2/1 75/2/1 85/2/1
f 87/2/1 77/2/1 76/2/1
f 87/1/1 76/1/1 86/1/1
f 88/1/1 78/1/1 77/1/1
f 88/2/1 77/2/1 87/2/1
f 89/2/1 79/2/1 78/2/1
f 89/1/1 78/1/1 88/1/1
f 90/1/1 80/1/1 79/1/1
f 90/2/1 79/2/1 89/2/1
f 91/2/1 81/2/1 70/2/1
f 92/1/1 82/1/1 81/1/1
f 92/2/1 81/2/1 91/2/1
f 93/2/1 83/2/1 82/2/1
f 93/1/1 82/1/1 92/1/1
f 94/1/1 89/1/1 88/1/1
f 94/2/1 83/2/1 93/2/1
f 94/1/1 84/1/1 83/1/1
f 94/1/1 90/1/1 89/1/1
f 94/1/1 88/1/1 87/1/1
f 94/1/1 87/1/1 86/1/1
f 94/1/1 86/1/1 85/1/1
f 94/1/1 85/1/1 84/1/1
f 95/2/1 91/2/1 70/2/1
f 96/1/1 93/1/1 92/1/1
f 96/2/1 91/2/1 95/2/1
f 96/1/1 92/1/1 91/1/1
f 96/1/1 94/1/1 93/1/1
f 97/1/1 96/1/1 95/1/1
f 97/1/1 94/1/1 96/1/1
f 98/1/1 94/1/1 97/1/1
f 99/1/1 97/1/1 95/1/1
f 99/2/1 98/2/1 97/2/1
f 100/1/1 94/1/1 98/1/1
f 100/2/1 98/2/1 99/2/1
f 101/2/1 95/2/1 70/2/1
f 102/1/1 99/1/1 95/1/1
f 102/2/1 95/2/1 101/2/1
f 102/1/1 100/1/1 99/1/1
f 103/2/1 101/2/1 70/2/1
f 103/1/1 102/1/1 101/1/1
f 104/1/1 100/1/1 102/1/1
f 104/1/1 102/1/1 103/1/1
f 105/2/1 103/2/1 70/2/1
f 105/2/1 104/2/1 103/2/1
f 106/1/1 100/1/1 104/1/1
f 106/2/1 104/2/1 105/2/1
f 107/2/1 105/2/1 70/2/1
f 108/1/1 106/1/1 105/1/1
f 108/2/1 105/2/1 107/2/1
f 109/1/1 108/1/1 107/1/1
f 110/1/1 106/1/1 108/1/1
f 110/1/1 108/1/1 109/1/1
f 111/2/1 110/2/1 109/2/1
f 112/1/1 106/1/1 110/1/1
f 112/2/1 110/2/1 111/2/1
f 113/1/1 112/1/1 111/1/1
f 114/1/1 106/1/1 112/1/1
f 114/1/1 112/1/1 113/1/1
f 115/2/1 114/2/1 113/2/1
f 116/1/1 106/1/1 114/1/1
f 116/2/1 114/2/1 115/2/1
f 117/1/1 116/1/1 115/1/1
f 118/1/1 106/1/1 116/1/1
f 118/1/1 116/1/1 117/1/1
f 119/2/1 118/2/1 117/2/1
f 120/1/1 106/1/1 118/1/1
f 120/2/1 118/2/1 119/2/1
f 121/1/1 120/1/1 119/1/1
f 122/1/1 106/1/1 120/1/1
f 122/1/1 120/1/1 121/1/1
f 123/2/1 122/2/1 121/2/1
f 123/1/1 106/1/1 122/1/1
f 124/1/1 94/1/1 100/1/1
f 124/1/1 106/1/1 123/1/1
f 124/1/1 100/1/1 106/1/1
f 125/1/1 94/1/1 124/1/1
f 126/1/1 94/1/1 125/1/1
f 127/1/1 94/1/1 126/1/1
f 128/1/1 90/1/1 94/1/1
f 128/1/1 94/1/1 127/1/1
f 129/1/1 90/1/1 128/1/1
f 130/1/1 80/1/1 90/1/1
f 130/1/1 90/1/1 129/1/1
f 131/2/1 123/2/1 121/2/1
f 131/2/1 124/2/1 123/2/1
f 132/1/1 125/1/1 124/1/1
f 132/2/1 124/2/1 131/2/1
f 133/2/1 126/2/1 125/2/1
f 133/1/1 125/1/1 132/1/1
f 134/1/1 127/1/1 126/1/1
f 134/2/1 126/2/1 133/2/1
f 135/2/1 128/2/1 127/2/1
f 135/1/1 127/1/1 134/1/1
f 136/1/1 129/1/1 128/1/1
f 136/2/1 128/2/1 135/2/1
f 137/2/1 130/2/1 129/2/1
f 137/1/1 129/1/1 136/1/1
f 138/2/1 130/2/1 137/2/1
f 139/2/2 140/2/2 150/2/2
f 140/1/2 141/1/2 151/1/2
f 150/2/2 140/2/2 151/2/2
f 141/2/2 142/2/2 152/2/2
f 151/1/2 141/1/2 152/1/2
f 142/1/2 143/1/2 153/1/2
f 152/2/2 142/2/2 153/2/2
f 143/2/2 144/2/2 154/2/2
f 153/1/2 143/1/2 154/1/2
f 144/1/2 145/1/2 155/1/2
f 154/2/2 144/2/2 155/2/2
f 145/2/2 146/2/2 156/2/2
f 155/1/2 145/1/2 156/1/2
f 146/1/2 147/1/2 157/1/2
f 156/2/2 146/2/2 157/2/2
f 147/2/2 148/2/2 158/2/2
f 157/1/2 147/1/2 158/1/2
f 148/1/2 149/1/2 159/1/2
f 158/2/2 148/2/2 159/2/2
f 139/2/2 150/2/2 160/2/2
f 150/1/2 151/1/2 161/1/2
f 160/2/2 150/2/2 161/2/2
f 151/2/2 152/2/2 162/2/2
f 161/1/2 151/1/2 162/1/2
f 157/1/2 158/1/2 163/1/2
f 162/2/2 152/2/2 163/2/2
f 152/1/2 153/1/2 163/1/2
f 158/1/2 159/1/2 163/1/2
f 156/1/2 157/1/2 163/1/2
f 155/1/2 156/1/2 163/1/2
f 154/1/2 155/1/2 163/1/2
f 153/1/2 154/1/2 163/1/2
f 139/2/2 160/2/2 164/2/2
f 161/1/2 162/1/2 165/1/2
f 164/2/2 160/2/2 165/2/2
f 160/1/2 161/1/2 165/1/2
f 162/1/2 163/1/2 165/1/2
f 164/1/2 165/1/2 166/1/2
f 165/1/2 163/1/2 166/1/2
f 166/1/2 163/1/2 167/1/2
f 164/1/2 166/1/2 168/1/2
f 166/2/2 167/2/2 168/2/2
f 167/1/2 163/1/2 169/1/2
f 168/2/2 167/2/2 169/2/2
f 139/2/2 164/2/2 170/2/2
f 164/1/2 168/1/2 171/1/2
f 170/2/2 164/2/2 171/2/2
f 168/1/2 169/1/2 171/1/2
f 139/2/2 170/2/2 172/2/2
f 170/1/2 171/1/2 172/1/2
f 171/1/2 169/1/2 173/1/2
f 172/1/2 171/1/2 173/1/2
f 139/2/2 172/2/2 174/2/2
f 172/2/2 173/2/2 174/2/2
f 173/1/2 169/1/2 175/1/2
f 174/2/2 173/2/2 175/2/2
f 139/2/2 174/2/2 176/2/2
f 174/1/2 175/1/2 177/1/2
f 176/2/2 174/2/2 177/2/2
f 176/1/2 177/1/2 178/1/2
f 177/1/2 175/1/2 179/1/2
f 178/1/2 177/1/2 179/1/2
f 178/2/2 179/2/2 180/2/2
f 179/1/2 175/1/2 181/1/2
f 180/2/2 179/2/2 181/2/2
f 180/1/2 181/1/2 182/1/2
f 181/1/2 175/1/2 183/1/2
f 182/1/2 181/1/2 183/1/2
f 182/2/2 183/2/2 184/2/2
f 183/1/2 175/1/2 185/1/2
f 184/2/2 183/2/2 185/2/2
f 184/1/2 185/1/2 186/1/2
f 185/1/2 175/1/2 187/1/2
f 186/1/2 185/1/2 187/1/2
f 186/2/2 187/2/2 188/2/2
f 187/1/2 175/1/2 189/1/2
f 188/2/2 187/2/2 189/2/2
f 188/1/2 189/1/2 190/1/2
f 189/1/2 175/1/2 191/1/2
f 190/1/2 189/1/2 191/1/2
f 190/2/2 191/2/2 192/2/2
f 191/1/2 175/1/2 192/1/2
f 169/1/2 163/1/2 193/1/2
f 192/1/2 175/1/2 193/1/2
f 175/1/2 169/1/2 193/1/2
f 193/1/2 163/1/2 194/1/2
f 194/1/2 163/1/2 195/1/2
f 195/1/2 163/1/2 196/1/2
f 163/1/2 159/1/2 197/1/2
f 196/1/2 163/1/2 197/1/2
f 197/1/2 159/1/2 198/1/2
f 159/1/2 149/1/2 199/1/2
f 198/1/2 159/1/2 199/1/2
f 190/2/2 192/2/2 200/2/2
f 192/2/2 193/2/2 200/2/2
f 193/1/2 194/1/2 201/1/2
f 200/2/2 193/2/2 201/2/2
f 194/2/2 195/2/2 202/2/2
f 201/1/2 194/1/2 202/1/2
f 195/1/2 196/1/2 203/1/2
f 202/2/2 195/2/2 203/2/2
f 196/2/2 197/2/2 204/2/2
f 203/1/2 196/1/2 204/1/2
f 197/1/2 198/1/2 205/1/2
f 204/2/2 197/2/2 205/2/2
f 198/2/2 199/2/2 206/2/2
f 205/1/2 198/1/2 206/1/2
f 206/2/2 199/2/2 207/2/2
f 208/2/2 209/2/2 219/2/2
f 209/1/2 210/1/2 220/1/2
f 219/2/2 209/2/2 220/2/2
f 210/2/2 211/2/2 221/2/2
f 220/1/2 210/1/2 221/1/2
f 211/1/2 212/1/2 222/1/2
f 221/2/2 211/2/2 222/2/2
f 212/2/2 213/2/2 223/2/2
f 222/1/2 212/1/2 223/1/2
f 213/1/2 214/1/2 224/1/2
f 223/2/2 213/2/2 224/2/2
f 214/2/2 215/2/2 225/2/2
f 224/1/2 214/1/2 225/1/2
f 215/1/2 216/1/2 226/1/2
f 225/2/2 215/2/2 226/2/2
f 216/2/2 217/2/2 227/2/2
f 226/1/2 216/1/2 227/1/2
f 217/1/2 218/1/2 228/1/2
f 227/2/2 217/2/2 228/2/2
f 208/2/2 219/2/2 229/2/2
f 219/1/2 220/1/2 230/1/2
f 229/2/2 219/2/2 230/2/2
f 220/2/2 221/2/2 231/2/2
f 230/1/2 220/1/2 231/1/2
f 226/1/2 227/1/2 232/1/2
f 231/2/2 221/2/2 232/2/2
f 221/1/2 222/1/2 232/1/2
f 227/1/2 228/1/2 232/1/2
f 225/1/2 226/1/2 232/1/2
f 224/1/2 225/1/2 232/1/2
f 223/1/2 224/1/2 232/1/2
f 222/1/2 223/1/2 232/1/2
f 208/2/2 229/2/2 233/2/2
f 230/1/2 231/1/2 234/1/2
f 233/2/2 229/2/2 234/2/2
f 229/1/2 230/1/2 234/1/2
f 231/1/2 232/1/2 234/1/2
f 233/1/2 234/1/2 235/1/2
f 234/1/2 232/1/2 235/1/2
f 235/1/2 232/1/2 236/1/2
f 233/1/2 235/1/2 237/1/2
f 235/2/2 236/2/2 237/2/2
f 236/1/2 232/1/2 238/1/2
f 237/2/2 236/2/2 238/2/2
f 208/2/2 233/2/2 239/2/2
f 233/1/2 237/1/2 240/1/2
f 239/2/2 233/2/2 240/2/2
f 237/1/2 238/1/2 240/1/2
f 208/2/2 239/2/2 241/2/2
f 239/1/2 240/1/2 241/1/2
f 240/1/2 238/1/2 242/1/2
f 241/1/2 240/1/2 242/1/2
f 208/2/2 241/2/2 243/2/2
f 241/2/2 242/2/2 243/2/2
f 242/1/2 238/1/2 244/1/2
f 243/2/2 242/2/2 244/2/2
f 208/2/2 243/2/2 245/2/2
f 243/1/2 244/1/2 246/1/2
f 245/2/2 243/2/2 246/2/2
f 245/1/2 246/1/2 247/1/2
f 246/1/2 244/1/2 248/1/2
f 247/1/2 246/1/2 248/1/2
f 247/2/2 248/2/2 249/2/2
f 248/1/2 244/1/2 250/1/2
f 249/2/2 248/2/2 250/2/2
f 249/1/2 250/1/2 251/1/2
f 250/1/2 244/1/2 252/1/2
f 251/1/2 250/1/2 252/1/2
f 251/2/2 252/2/2 253/2/2
f 252/1/2 244/1/2 254/1/2
f 253/2/2 252/2/2 254/2/2
f 253/1/2 254/1/2 255/1/2
f 254/1/2 244/1/2 256/1/2
f 255/1/2 254/1/2 256/1/2
f 255/2/2 256/2/2 257/2/2
f 256/1/2 244/1/2 258/1/2
f 257/2/2 256/2/2 258/2/2
f 257/1/2 258/1/2 259/1/2
f 258/1/2 244/1/2 260/1/2
f 259/1/2 258/1/2 260/1/2
f 259/2/2 260/2/2 261/2/2
f 260/1/2 244/1/2 261/1/2
f 238/1/2 232/1/2 262/1/2
f 261/1/2 244/1/2 262/1/2
f 244/1/2 238/1/2 262/1/2
f 262/1/2 232/1/2 263/1/2
f 263/1/2 232/1/2 264/1/2
f 264/1/2 232/1/2 265/1/2
f 232/1/2 228/1/2 266/1/2
f 265/1/2 232/1/2 266/1/2
f 266/1/2 228/1/2 267/1/2
f 228/1/2 218/1/2 268/1/2
f 267/1/2 228/1/2 268/1/2
f 259/2/2 261/2/2 269/2/2
f 261/2/2 262/2/2 269/2/2
f 262/1/2 263/1/2 270/1/2
f 269/2/2 262/2/2 270/2/2
f 263/2/2 264/2/2 271/2/2
f 270/1/2 263/1/2 271/1/2
f 264/1/2 265/1/2 272/1/2
f 271/2/2 264/2/2 272/2/2
f 265/2/2 266/2/2 273/2/2
f 272/1/2 265/1/2 273/1/2
f 266/1/2 267/1/2 274/1/2
f 273/2/2 266/2/2 274/2/2
f 267/2/2 268/2/2 275/2/2
f 274/1/2 267/1/2 275/1/2
f 275/2/2 268/2/2 276/2/2
f 287/2/3 278/2/3 277/2/3
f 288/1/3 279/1/3 278/1/3
f 288/2/3 278/2/3 287/2/3
f 289/2/3 280/2/3 279/2/3
f 289/1/3 279/1/3 288/1/3
f 290/1/3 281/1/3 280/1/3
f 290/2/3 280/2/3 289/2/3
f 291/2/3 282/2/3 281/2/3
f 291/1/3 281/1/3 290/1/3
f 292/1/3 283/1/3 282/1/3
f 292/2/3 282/2/3 291/2/3
f 293/2/3 284/2/3 283/2/3
f 293/1/3 283/1/3 292/1/3
f 294/1/3 285/1/3 284/1/3
f 294/2/3 284/2/3 293/2/3
f 295/2/3 286/2/3 285/2/3
f 295/1/3 285/1/3 294/1/3
f 296/2/3 286/2/3 295/2/3
f 307/2/3 298/2/3 297/2/3
f 308/1/3 299/1/3 298/1/3
f 308/2/3 298/2/3 307/2/3
f 309/2/3 300/2/3 299/2/3
f 309/1/3 299/1/3 308/1/3
f 310/1/3 301/1/3 300/1/3
f 310/2/3 300/2/3 309/2/3
f 311/2/3 302/2/3 301/2/3
f 311/1/3 301/1/3 310/1/3
f 312/1/3 303/1/3 302/1/3
f 312/2/3 302/2/3 311/2/3
f 313/2/3 304/2/3 303/2/3
f 313/1/3 303/1/3 312/1/3
f 314/1/3 305/1/3 304/1/3
f 314/2/3 304/2/3 313/2/3
f 315/2/3 306/2/3 305/2/3
f 315/1/3 305/1/3 314/1/3
f 316/2/3 306/2/3 315/2/3
f 317/1/4 318/1/4 320/1/4
f 318/2/4 319/2/4 321/2/4
f 320/1/4 318/1/4 321/1/4
f 321/2/4 319/2/4 322/2/4
f 323/1/4 324/1/4 326/1/4
f 324/2/4 325/2/4 327/2/4
f 326/1/4 324/1/4 327/1/4
f 327/2/4 325/2/4 328/2/4
f 333/2/5 330/2/5 329/2/5
f 334/2/5 330/2/5 333/2/5
f 335/2/5 332/2/5 331/2/5
f 336/2/5 332/2/5 335/2/5
f 337/1/5 334/1/5 333/1/5
f 338/1/5 334/1/5 337/1/5
f 339/1/5 336/1/5 335/1/5
f 340/1/5 336/1/5 339/1/5
f 341/2/5 338/2/5 337/2/5
f 342/2/5 338/2/5 341/2/5
f 343/2/5 340/2/5 339/2/5
f 344/2/5 340/2/5 343/2/5
f 345/1/5 342/1/5 341/1/5
f 346/1/5 342/1/5 345/1/5
f 347/1/5 344/1/5 343/1/5
f 348/1/5 344/1/5 347/1/5
f 349/2/5 346/2/5 345/2/5
f 350/2/5 346/2/5 349/2/5
f 351/2/5 348/2/5 347/2/5
f 352/2/5 348/2/5 351/2/5
f 353/1/5 350/1/5 349/1/5
f 354/1/5 350/1/5 353/1/5
f 355/1/5 352/1/5 351/1/5
f 356/1/5 352/1/5 355/1/5
f 357/2/5 354/2/5 353/2/5
f 358/2/5 354/2/5 357/2/5
f 359/2/5 356/2/5 355/2/5
f 360/2/5 356/2/5 359/2/5
f 361/1/5 358/1/5 357/1/5
f 362/1/5 358/1/5 361/1/5
f 363/1/5 360/1/5 359/1/5
f 364/1/5 360/1/5 363/1/5
f 365/2/5 362/2/5 361/2/5
f 366/2/5 362/2/5 365/2/5
f 367/2/5 364/2/5 363/2/5
f 368/2/5 364/2/5 367/2/5
f 369/1/5 366/1/5 365/1/5
f 370/1/5 366/1/5 369/1/5
f 371/1/5 368/1/5 367/1/5
f 372/1/5 368/1/5 371/1/5
f 373/2/6 374/2/6 377/2/6
f 377/2/6 374/2/6 378/2/6
f 375/2/6 376/2/6 379/2/6
f 379/2/6 376/2/6 380/2/6
f 377/1/6 378/1/6 381/1/6
f 381/1/6 378/1/6 382/1/6
f 379/1/6 380/1/6 383/1/6
f 383/1/6 380/1/6 384/1/6
f 381/2/6 382/2/6 385/2/6
f 385/2/6 382/2/6 386/2/6
f 383/2/6 384/2/6 387/2/6
f 387/2/6 384/2/6 388/2/6
f 385/1/6 386/1/6 389/1/6
f 389/1/6 386/1/6 390/1/6
f 387/1/6 388/1/6 391/1/6
f 391/1/6 388/1/6 392/1/6
f 389/2/6 390/2/6 393/2/6
f 393/2/6 390/2/6 394/2/6
f 391/2/6 392/2/6 395/2/6
f 395/2/6 392/2/6 396/2/6
f 393/1/6 394/1/6 397/1/6
f 397/1/6 394/1/6 398/1/6
f 395/1/6 396/1/6 399/1/6
f 399/1/6 396/1/6 400/1/6
f 397/2/6 398/2/6 401/2/6
f 401/2/6 398/2/6 402/2/6
f 399/2/6 400/2/6 403/2/6
f 403/2/6 400/2/6 404/2/6
